STARTFONT 2.3
FONT -FontForge-Courgette-Book-R-Normal--36-360-72-72-P-187-ISO10646-1
SIZE 36 72 72  2
FONTBOUNDINGBOX 47 45 -7 -10
COMMENT "Generated by fontforge, http://fontforge.sourceforge.net"
COMMENT "Copyright (c) 2012, Sorkin Type Co (www.sorkintype.com) with Reserved Font Name "Courgette"."
STARTPROPERTIES 41
FOUNDRY "FontForge"
FAMILY_NAME "Courgette"
WEIGHT_NAME "Book"
SLANT "R"
SETWIDTH_NAME "Normal"
ADD_STYLE_NAME ""
PIXEL_SIZE 36
POINT_SIZE 360
RESOLUTION_X 72
RESOLUTION_Y 72
SPACING "P"
AVERAGE_WIDTH 187
CHARSET_REGISTRY "ISO10646"
CHARSET_ENCODING "1"
FONTNAME_REGISTRY ""
CHARSET_COLLECTIONS "ISO8859-2 ISO8859-9 ISO8859-4 ISO10646-1"
BITS_PER_PIXEL 2
FONT_NAME "Courgette-Regular"
FACE_NAME "Courgette Regular"
COPYRIGHT "Copyright (c) 2012, Sorkin Type Co (www.sorkintype.com) with Reserved Font Name "Courgette"."
FONT_VERSION "1.002"
FONT_ASCENT 29
FONT_DESCENT 7
UNDERLINE_POSITION -4
UNDERLINE_THICKNESS 2
X_HEIGHT 17
CAP_HEIGHT 26
DEFAULT_CHAR 1
RAW_ASCENT 799
RAW_DESCENT 200
NORM_SPACE 11
RELATIVE_WEIGHT 40
RELATIVE_SETWIDTH 50
SUPERSCRIPT_X 0
SUPERSCRIPT_Y 17
SUPERSCRIPT_SIZE 23
SUBSCRIPT_X 0
SUBSCRIPT_Y 5
SUBSCRIPT_SIZE 23
AVG_LOWERCASE_WIDTH 180
AVG_UPPERCASE_WIDTH 211
ENDPROPERTIES
CHARS 407
STARTCHAR .null.dup1
ENCODING 0
SWIDTH 0 0
DWIDTH 0 0
BBX 1 1 0 0
BITMAP
00
ENDCHAR
STARTCHAR uni0001
ENCODING 1
SWIDTH 0 0
DWIDTH 0 0
BBX 1 1 0 0
BITMAP
00
ENDCHAR
STARTCHAR uni0002
ENCODING 2
SWIDTH 0 0
DWIDTH 0 0
BBX 1 1 0 0
BITMAP
00
ENDCHAR
STARTCHAR uni0003
ENCODING 3
SWIDTH 0 0
DWIDTH 0 0
BBX 1 1 0 0
BITMAP
00
ENDCHAR
STARTCHAR uni0004
ENCODING 4
SWIDTH 0 0
DWIDTH 0 0
BBX 1 1 0 0
BITMAP
00
ENDCHAR
STARTCHAR uni0005
ENCODING 5
SWIDTH 0 0
DWIDTH 0 0
BBX 1 1 0 0
BITMAP
00
ENDCHAR
STARTCHAR uni0006
ENCODING 6
SWIDTH 0 0
DWIDTH 0 0
BBX 1 1 0 0
BITMAP
00
ENDCHAR
STARTCHAR uni0007
ENCODING 7
SWIDTH 0 0
DWIDTH 0 0
BBX 1 1 0 0
BITMAP
00
ENDCHAR
STARTCHAR uni0008
ENCODING 8
SWIDTH 0 0
DWIDTH 0 0
BBX 1 1 0 0
BITMAP
00
ENDCHAR
STARTCHAR uni0009
ENCODING 9
SWIDTH 0 0
DWIDTH 0 0
BBX 1 1 0 0
BITMAP
00
ENDCHAR
STARTCHAR nonmarkingreturn
ENCODING 13
SWIDTH 0 0
DWIDTH 0 0
BBX 1 1 0 0
BITMAP
00
ENDCHAR
STARTCHAR uni0015
ENCODING 21
SWIDTH 0 0
DWIDTH 0 0
BBX 1 1 0 0
BITMAP
00
ENDCHAR
STARTCHAR uni0016
ENCODING 22
SWIDTH 0 0
DWIDTH 0 0
BBX 1 1 0 0
BITMAP
00
ENDCHAR
STARTCHAR uni0017
ENCODING 23
SWIDTH 0 0
DWIDTH 0 0
BBX 1 1 0 0
BITMAP
00
ENDCHAR
STARTCHAR uni0018
ENCODING 24
SWIDTH 0 0
DWIDTH 0 0
BBX 1 1 0 0
BITMAP
00
ENDCHAR
STARTCHAR uni0019
ENCODING 25
SWIDTH 0 0
DWIDTH 0 0
BBX 1 1 0 0
BITMAP
00
ENDCHAR
STARTCHAR space
ENCODING 32
SWIDTH 307 0
DWIDTH 11 0
BBX 1 1 0 0
BITMAP
00
ENDCHAR
STARTCHAR exclam
ENCODING 33
SWIDTH 417 0
DWIDTH 15 0
BBX 14 28 3 -1
BITMAP
00001F90
0000BFD0
0001FF80
0003FF00
0007FD00
000FFC00
001FF400
002FE000
003FD000
007F8000
00BF4000
00FE0000
01FD0000
02FC0000
03F80000
03F00000
03E00000
07D00000
07C00000
03800000
01000000
00000000
6F800000
FFD00000
FFE00000
FFD00000
7F800000
05000000
ENDCHAR
STARTCHAR quotedbl
ENCODING 34
SWIDTH 437 0
DWIDTH 16 0
BBX 14 9 5 20
BITMAP
0BE01F90
2FF07FD0
7FD0BF80
BF80FF00
BF01FD00
FD02F800
F802F000
F402E000
A0018000
ENDCHAR
STARTCHAR numbersign
ENCODING 35
SWIDTH 725 0
DWIDTH 26 0
BBX 24 27 2 0
BITMAP
000000BC02F0
000001F807F0
000003F40FD0
000007F01FC0
00000BE02F80
00000FD03F40
00001FC07F00
00002F40BE00
00003F00FC00
02FFFFFFFFFE
0BFFFFFFFFFD
0BFFFFFFFFF4
0001F807E000
0002F40BD000
0003F00FC000
0007E01F8000
2FFFFFFFFFD0
FFFFFFFFFFC0
FFFFFFFFFF40
002F00BD0000
003E00FC0000
007D00F80000
007C01F40000
00B802F00000
00F403E00000
01F007C00000
02D00B400000
ENDCHAR
STARTCHAR dollar
ENCODING 36
SWIDTH 545 0
DWIDTH 20 0
BBX 19 37 2 -5
BITMAP
00000000B8
00000002F4
00000007F0
0000000BD0
0000000F80
00001BFF40
0000BFFFD0
0007F907F0
001FE002F4
003F8001F8
00BF0001FC
00FE0002FC
01FD0007FC
02FD000BF8
02FD002FF4
02FE00BFE0
02FF00FF80
01FF407E00
01FFC00000
00BFE00000
003FF40000
001FFC0000
000BFE0000
0002FF0000
0500FF4000
3E007F4000
BE003F4000
FE003F0000
FE007E0000
BF81FC0000
3FFFE00000
0BFE400000
07D0000000
0BC0000000
0F40000000
1F00000000
0500000000
ENDCHAR
STARTCHAR percent
ENCODING 37
SWIDTH 876 0
DWIDTH 32 0
BBX 27 27 2 0
BITMAP
001BF8000002E0
00BFFE00000FD0
02FD2F40003F80
0BF42F8000BF00
1FE02FC002FD00
2FC02FC007F400
3F803F801FE000
7F407F403F8000
7F40FF00FF0000
7F02FD02FC0000
3F4BF40BF40000
1FFFD01FD00000
06FE007F800000
000000FE000000
000002F801BF80
00000BF00BFFF0
00002FD02FD2F8
00007F40BF41FC
0001FE01FE01FC
0003F802FC02FC
000BE003F803F8
002FC007F407F4
007F0007F40FF0
01FD0003F02FD0
03F40002F47F80
0BD00001FFFD00
0F4000006FE000
ENDCHAR
STARTCHAR ampersand
ENCODING 38
SWIDTH 563 0
DWIDTH 20 0
BBX 20 27 1 0
BITMAP
00001AFE40
0000BFFFE0
0007FE41B8
002FF4007D
007FD0007D
00FF4000BD
02FE0002FD
03FD001BFC
07F800BFF4
07F800FFE0
03F8007F80
03F8001400
01FE680000
00BFFF0000
007FFE0000
02FFD00000
0BFE000000
1FF4054018
3FD01FFFFD
7F800BFFF8
BF4002FF90
BF0002F800
BF0003F400
BF800BE000
3FE47F8000
1FFFFE0000
02BFA00000
ENDCHAR
STARTCHAR quotesingle
ENCODING 39
SWIDTH 231 0
DWIDTH 8 0
BBX 6 9 5 20
BITMAP
0BE0
2FF0
7FD0
BF80
BF00
FD00
F800
F400
A000
ENDCHAR
STARTCHAR parenleft
ENCODING 40
SWIDTH 478 0
DWIDTH 17 0
BBX 18 41 4 -9
BITMAP
0000000050
0000000BD0
0000007F40
000002FD00
00000BE000
00002F8000
0000BF0000
0002FD0000
0007F40000
000FE00000
002FC00000
007F400000
00FE000000
01FD000000
03F8000000
07F4000000
0FF0000000
1FE0000000
2FD0000000
3FC0000000
3F80000000
7F40000000
BF40000000
BF00000000
FF00000000
FF00000000
FF00000000
FE00000000
FE00000000
FF00000000
FF00000000
BF00000000
7F40000000
3F40000000
2F80000000
1FC0000000
0FE0000000
07F0000000
02F8000000
00BE000000
002E000000
ENDCHAR
STARTCHAR parenright
ENCODING 41
SWIDTH 478 0
DWIDTH 17 0
BBX 19 41 -4 -9
BITMAP
0000054000
00000FD000
000007F400
000001FD00
000000BE00
0000007F40
0000002F80
0000001FC0
0000001FD0
0000000FE0
0000000FF0
0000000BF0
0000000BF0
0000000BF4
0000000BF4
0000000BF0
0000000BF0
0000000FF0
0000000FE0
0000001FE0
0000001FD0
0000002FD0
0000003FC0
0000007F80
000000BF40
000000FE00
000001FD00
000003FC00
000007F400
00000FE000
00001FD000
00007F8000
0000BE0000
0002FC0000
0007F40000
001FD00000
007F400000
01FD000000
0BF4000000
2F80000000
7900000000
ENDCHAR
STARTCHAR asterisk
ENCODING 42
SWIDTH 518 0
DWIDTH 19 0
BBX 13 14 5 13
BITMAP
000BE000
001FF000
002FD000
343F8000
BC3F0100
7E7D6F80
2FBEFFC0
0BFFE940
03FE0000
0BFF4000
2F5FC000
BD0BE000
E003F000
4001E000
ENDCHAR
STARTCHAR plus
ENCODING 43
SWIDTH 617 0
DWIDTH 22 0
BBX 19 18 2 4
BITMAP
0000740000
0000F80000
0000F80000
0000F80000
0000F80000
0000F80000
0000F80000
0000F80000
2FFFFFFFF4
7FFFFFFFE0
0000F80000
0000F80000
0000F80000
0000F80000
0000F80000
0000F80000
0000F80000
0000A00000
ENDCHAR
STARTCHAR comma
ENCODING 44
SWIDTH 312 0
DWIDTH 11 0
BBX 7 10 0 -5
BITMAP
07E0
1FF8
1FF8
0BF8
07F4
07F0
0BD0
1F80
7E00
E400
ENDCHAR
STARTCHAR hyphen
ENCODING 45
SWIDTH 452 0
DWIDTH 16 0
BBX 11 3 3 9
BITMAP
2FFFF8
BFFFF8
FFFFE0
ENDCHAR
STARTCHAR period
ENCODING 46
SWIDTH 270 0
DWIDTH 10 0
BBX 6 6 1 -1
BITMAP
6F80
FFD0
FFE0
FFD0
7F80
0500
ENDCHAR
STARTCHAR slash
ENCODING 47
SWIDTH 405 0
DWIDTH 15 0
BBX 24 38 -3 -6
BITMAP
00000000002E
0000000000BE
0000000001FC
0000000003F4
000000000BF0
000000000FD0
000000002F80
000000007F00
00000000BE00
00000001FC00
00000003F400
00000007F000
0000000FD000
0000002F8000
0000007F4000
000000BE0000
000001FC0000
000003F80000
000007F00000
00000FD00000
00002F800000
00003F400000
0000BE000000
0001FC000000
0002F8000000
0007F0000000
000FD0000000
001FC0000000
003F40000000
00BE00000000
00FC00000000
02F800000000
07F000000000
0BD000000000
1FC000000000
3F4000000000
BE0000000000
B80000000000
ENDCHAR
STARTCHAR zero
ENCODING 48
SWIDTH 621 0
DWIDTH 22 0
BBX 21 27 2 0
BITMAP
000001AF9000
00000BFFF800
00007F90BE00
0001FE007F00
0007F8003F40
001FF0003F40
003FD0003F40
00BF80007F40
01FF00007F40
02FD0000BF40
07FC0000FF00
0BF40001FF00
0FF00002FE00
1FE00003FD00
2FD00007FC00
3FC0000BF800
7F80001FF000
7F40002FE000
BF40007FC000
BF0000BF8000
BF0001FF0000
BE0003FD0000
7F000FF40000
7F002FD00000
2F81FF400000
0FFFF8000000
02FE90000000
ENDCHAR
STARTCHAR one
ENCODING 49
SWIDTH 405 0
DWIDTH 15 0
BBX 13 27 2 0
BITMAP
00006E00
0001FF40
000BFF80
002FFF80
02FFFF40
07FEBF00
02A0FF00
0001FE00
0002FD00
0003FC00
0007F800
000BF000
000FE000
001FD000
002FC000
003F8000
007F0000
00BE0000
01FC0000
02F80000
03F40000
07E00000
0FC00000
1F800000
2E000000
7C000000
74000000
ENDCHAR
STARTCHAR two
ENCODING 50
SWIDTH 524 0
DWIDTH 19 0
BBX 19 27 0 0
BITMAP
00000BFE40
0000BFFFD0
0002FD07F4
000BF402F8
001FD001FC
003FC001FC
003FC001FC
007FC002FC
003FF007F8
002FE00FF4
000A402FE0
000000BFC0
000002FF40
00000BFD00
00002FF400
0000BFD000
0002FF4000
000BF80000
002FE00000
00BF400000
01FD000000
07E0000000
0F80001B00
2FBFFFFF00
7FFFFFFF00
BE46FFFD00
78001BE400
ENDCHAR
STARTCHAR three
ENCODING 51
SWIDTH 537 0
DWIDTH 19 0
BBX 19 27 1 0
BITMAP
00001BFA00
0001FFFFD0
0007F90BF0
001FE003F4
003F8002F8
00BF4002F8
00FF0003F8
00FF0007F8
00FFC00BF4
00BFC01FF0
002E007FD0
000001FF80
00000BFE00
0001BFF800
0003FFE000
0007FF8000
00016FE000
000007F400
000007F400
068007F800
2FD00BF400
7F800FF000
7F401FE000
7F007FC000
3F86FF0000
1FFFF80000
06FE900000
ENDCHAR
STARTCHAR four
ENCODING 52
SWIDTH 529 0
DWIDTH 19 0
BBX 17 27 2 0
BITMAP
000F800000
000FD00000
001FE00000
002FE00000
003FD00000
007FC00000
00BF800000
00FF407800
02FE007F00
03FD00BF40
0BF800FF00
1FF001FE00
2FD002FD00
7F8003FC00
BF0007F800
FE000FF400
7FFFFFFF40
1FFFFFFF80
00007F8000
0000BF0000
0000FD0000
0001F80000
0003F40000
0007E00000
000FC00000
001F400000
001D000000
ENDCHAR
STARTCHAR five
ENCODING 53
SWIDTH 540 0
DWIDTH 19 0
BBX 21 27 1 0
BITMAP
0000BA505A80
0000FFFFFF80
0002FFFFFF40
0002F46FFE00
0007F0015000
000BE0000000
000FD0000000
001FC0000000
003F40000000
007F6FE00000
00FFFFFD0000
01FFFFFF0000
02FE41FF4000
02F800BF8000
00E0007F8000
0000007F8000
000000BF8000
000000BF4000
000000FF0000
1F8001FE0000
7F8003FD0000
BF000BF80000
BE001FF00000
BE007FC00000
7F46FE000000
1FFFF8000000
06FE80000000
ENDCHAR
STARTCHAR six
ENCODING 54
SWIDTH 554 0
DWIDTH 20 0
BBX 19 27 2 0
BITMAP
000002BE40
00002FFFE0
0001FF42F4
0007FC01F8
000FF002F8
003FC00BF4
00BF402FF0
01FE003FD0
02FD001B40
07F8000000
0BF4000000
0FF0AF9000
1FE7FFF800
2FEF42FD00
3FFD00BE00
7FF400BF00
7FE000BF00
7FD000BF00
BF8000FF00
BF8001FE00
7F4002FD00
7F4003FC00
3F400BF400
2F802FD000
1FD1BF4000
07FFFD0000
01BF900000
ENDCHAR
STARTCHAR seven
ENCODING 55
SWIDTH 473 0
DWIDTH 17 0
BBX 16 27 4 0
BITMAP
790016F8
7FFFFFFE
7FFFFFFE
2FFFE5FD
0BF903F8
00000BF0
00001FD0
00007F40
0000FE00
0002FC00
000BF400
001FE000
003FC000
00BF4000
01FE0000
02FC0000
07F80000
0FF00000
1FE00000
2FC00000
7F800000
BF400000
BF000000
FF000000
FE000000
BE000000
2E000000
ENDCHAR
STARTCHAR eight
ENCODING 56
SWIDTH 524 0
DWIDTH 19 0
BBX 19 27 1 0
BITMAP
00001BF900
0001FFFF80
0007F42FE0
000FC00BF4
002F4007F8
003F0003F8
007F0003F8
007F0003F8
007F4007F4
007F800BF0
003FC01FE0
002FE07F80
001FF5FE00
000FFFF400
0007FF8000
000BFF4000
00BFFF8000
03F97FD000
0FE01FE000
2FC00BE000
3F4007F000
7F4007E000
7F4007E000
3F800BC000
2FE02F4000
0BFFFD0000
01BF900000
ENDCHAR
STARTCHAR nine
ENCODING 57
SWIDTH 554 0
DWIDTH 20 0
BBX 18 27 2 0
BITMAP
00002BF800
0002FFFF40
000FF42FC0
003FC00FD0
00BF000FE0
01FD000FF0
03FC000FF0
07F8000FE0
0BF4001FE0
0FF0002FE0
0FF0003FD0
0FE000BFD0
0FF001FFC0
0BF003FF80
07F81FFF80
02FFFEBF00
006FE4FE00
000001FD00
000002FC00
000003F400
1A000BE000
BF001FC000
FE003F4000
FD00FD0000
FE07F40000
7FFF900000
1BF9000000
ENDCHAR
STARTCHAR colon
ENCODING 58
SWIDTH 312 0
DWIDTH 11 0
BBX 9 18 1 -1
BITMAP
005400
02FF40
03FF80
03FF80
02FF00
00B900
000000
000000
000000
000000
000000
000000
2F8000
BFE000
BFE000
BFE000
3F8000
050000
ENDCHAR
STARTCHAR semicolon
ENCODING 59
SWIDTH 312 0
DWIDTH 11 0
BBX 10 22 0 -5
BITMAP
001500
007FD0
00FFE0
00FFE0
00BFC0
002E40
000000
000000
000000
000000
000000
000000
07E000
1FF800
1FF800
0BF800
07F400
07F000
0BD000
1F8000
7E0000
E40000
ENDCHAR
STARTCHAR less
ENCODING 60
SWIDTH 637 0
DWIDTH 23 0
BBX 19 19 2 2
BITMAP
00000000B4
00000007F4
0000007FE0
000006FE40
00006FF400
0002FF8000
002FF80000
01FFD00000
1FFD000000
7FE0000000
2FF8000000
07FF400000
007FE40000
000BFE0000
0000BFE000
00001BFD00
000001FF90
0000001FF4
00000001F0
ENDCHAR
STARTCHAR equal
ENCODING 61
SWIDTH 617 0
DWIDTH 22 0
BBX 19 9 2 9
BITMAP
1FFFFFFFF8
3FFFFFFFF4
0000000000
0000000000
0000000000
0000000000
0000000000
2FFFFFFFF4
7FFFFFFFE0
ENDCHAR
STARTCHAR greater
ENCODING 62
SWIDTH 606 0
DWIDTH 22 0
BBX 19 19 2 2
BITMAP
3E00000000
7FD0000000
1BFD000000
01FF900000
002FF80000
0006FF8000
00007FF800
000007FF40
000000BFE0
0000002FF8
000001BFD0
00000BFD00
0000BFE000
0007FE0000
007FE40000
06FE400000
2FF4000000
7F40000000
7800000000
ENDCHAR
STARTCHAR question
ENCODING 63
SWIDTH 516 0
DWIDTH 19 0
BBX 17 27 3 0
BITMAP
0001BF9000
000BFFFC00
002FE07E00
007F402F40
00BF002F40
00FF002F40
00FF007F40
00BF40BF00
006D02FE00
00000BFD00
00007FF400
0001FFD000
000BFF4000
002FF80000
00BFE00000
01FF400000
02FD000000
03F4000000
03E0000000
03C0000000
0100000000
0000000000
7F80000000
FFD0000000
FFD0000000
FFC0000000
2E40000000
ENDCHAR
STARTCHAR at
ENCODING 64
SWIDTH 905 0
DWIDTH 33 0
BBX 31 29 1 -5
BITMAP
00000006BFF94000
000001BFFFFFE400
00000BFFFFFFFE00
00007FE50006FF80
0002FE0000007FD0
000BF40000000FF0
002F8000000003F4
00BF0006F92E02F8
01FC002FFFBF41F8
03F400FE0BFF00FC
07F003F803FD00FC
0FD00BF003FC00FC
1FC01FD007F400F8
2F802FC00BF001F4
2F803F800FE002F0
3F407F402FD007E0
3F407F403FC00BC0
7F40BF40BF802F40
7F407F41EF40BE00
3F407F879F86F800
3F802FFD1FFFD000
2FC007E406F90000
1FD0000000000000
0FF0000000000000
07F8000000000000
01FE400000000000
007FE4005B400000
001BFFFFFD000000
00006FFE90000000
ENDCHAR
STARTCHAR A
ENCODING 65
SWIDTH 615 0
DWIDTH 22 0
BBX 27 27 -3 0
BITMAP
00000000001BF0
0000000001FFF4
000000000BFFF0
000000002F8BE0
00000000FD1FD0
00000003F42FC0
0000000BD03F80
0000002F40BF40
0000007E00FF00
000000FC01FE00
000002F402FD00
000007E003FC00
00000FD007F400
00002FEBFFFFD0
0001BFFFFFFFC0
000FFFFFFFFE40
001AF8002FD000
0003F4003FC000
000BE0007F8000
000FC0007F4000
002F8000BF0000
007F0000BF0000
00FD0000FF0000
03FC0000FF4500
1FF40000BFFD00
BFD000007FF800
7E4000001FE000
ENDCHAR
STARTCHAR B
ENCODING 66
SWIDTH 551 0
DWIDTH 20 0
BBX 21 27 1 0
BITMAP
0005AFFE4000
00BFFFFFF400
07FFE406FD00
0FFD0000BF00
07E140007F40
0007F4007F80
000FF8007F80
002FF0007F40
007FD000FF40
00FFC001FE00
01FF4007FD00
02FE001FF400
07FD00BFE000
0BF85BFF4000
0FFFFFF90000
1FFFFFF40000
1FF906FD0000
2FC000BF0000
3F80007F4000
3F40007F4000
7F00007F4000
7F0000FF0000
7F0002FD0000
7F001BF80000
3F95BFE00000
1FFFFE400000
06FE90000000
ENDCHAR
STARTCHAR C
ENCODING 67
SWIDTH 533 0
DWIDTH 19 0
BBX 21 27 1 0
BITMAP
0000006FE400
000007FFFD00
00002FE42F40
0000FF801F80
0003FD001F80
000FF4002F80
002FE0007F80
007FC000FF40
00FF4003FF00
02FE001FFD00
03FD002FF800
0BF8001FE000
0FF400054000
1FF000000000
2FE000000000
2FD000000000
3FC000000000
3FC000000000
7FC000000000
7FC000000000
7FC000000000
3FC000000000
3FD0001D0000
1FE000BD0000
0BF81BFC0000
02FFFFE40000
006FF9400000
ENDCHAR
STARTCHAR D
ENCODING 68
SWIDTH 630 0
DWIDTH 23 0
BBX 23 27 1 0
BITMAP
0006BFF90000
01BFFFFFE400
07FFFFFFFE00
07FF9002FF80
01F800007FD0
000050001FE0
0003FD000FF0
000BFC000BF4
000FF4000BF4
002FF0000BF4
003FD0000BF4
00BF80000BF0
00FF40000FE0
01FF00001FE0
03FD00003FC0
07FC00007F80
0BF80000FF40
0FF40002FE00
1FF00007FC00
2FE0001FF000
2FD0007FD000
3FC001FF4000
7F800BFD0000
7F406FE00000
3F46FF800000
1FFFF8000000
06FE40000000
ENDCHAR
STARTCHAR E
ENCODING 69
SWIDTH 509 0
DWIDTH 18 0
BBX 20 27 1 0
BITMAP
000006BF90
00006FFFFC
0002FF907E
000BFD002F
002FF4003F
007FD000BF
00FF8002FE
01FF001FFC
02FD007FF4
02FC007FD0
03FC002E40
02FC000000
01FD000000
00BF6A0000
002FFF8000
007FFE4000
02FFD00000
0BFE000000
1FF8000000
3FE0000000
7FC0000000
BF80007400
BF8001F800
7F8007F400
2FD06FE000
0BFFFF4000
01BFE40000
ENDCHAR
STARTCHAR F
ENCODING 70
SWIDTH 518 0
DWIDTH 19 0
BBX 22 27 1 0
BITMAP
01BFEA5401D0
0BFFFFFFFFC0
1FFFFFFFFF80
3FE40BEBF900
3F801FD00000
2F002F800000
09007F800000
0000BF400000
0000FF000000
0001FE000000
0002FD000000
0003FC000000
0007FEFE0000
006FFFFF8000
01FFFFFF8000
01FFE0000000
002FD0000000
003FC0000000
00BF80000000
00FF00000000
01FE00000000
03FC00000000
07F800000000
0FF000000000
2FD000000000
BF4000000000
B80000000000
ENDCHAR
STARTCHAR G
ENCODING 71
SWIDTH 598 0
DWIDTH 22 0
BBX 21 27 1 0
BITMAP
0000006FE400
000007FFFE00
00002FF41F40
0000BF800F80
0003FE000FC0
000BF8002FC0
002FE0007F80
007FC001FF40
00FF4007FF00
02FE001FFD00
03FD001FF400
0BFC000BD000
0FF400000000
1FF000000000
2FE000540600
2FD002FFFF40
3FD007FFFF00
3FC002FFFD00
3FC0007FE400
7FC0003F0000
3FC0003E0000
3FC0007D0000
2FD000B80000
1FE002F40000
0BF81BD00000
02FFFE400000
006FE4000000
ENDCHAR
STARTCHAR H
ENCODING 72
SWIDTH 668 0
DWIDTH 24 0
BBX 27 27 -1 0
BITMAP
001BFE000003D0
00BFFF800007F4
007E3FC0000BF4
00003FC0000FF0
00003F80000FF0
00007F80001FE0
0000BF40002FD0
0000FF40003FC0
0000FF00007F80
0001FE0000BF40
0002FD0000FF00
0003FD0001FE00
001BFEAFFFFF80
00BFFFFFFFFF80
007FF4001BFE00
001FE0000BF000
002FD0000FE000
007FC0001FC000
00BF40003F8000
00FF00007F4000
02FD0000BF0000
03FC0000FE0000
0BF40001FD0000
1FE00001FD1400
7F800001FFF400
FE000001FFE000
B40000007E4000
ENDCHAR
STARTCHAR I
ENCODING 73
SWIDTH 327 0
DWIDTH 12 0
BBX 14 27 -1 0
BITMAP
001AFE00
003FFFC0
002E5FD0
00001FD0
00002FD0
00002FD0
00003FC0
00007F80
00007F80
0000BF40
0000FF00
0001FE00
0002FD00
0003FC00
0007F800
000BF400
000FF000
001FE000
002FD000
007F8000
00BF4000
01FE0000
02FC0000
07F40000
1FE00000
7F800000
3D000000
ENDCHAR
STARTCHAR J
ENCODING 74
SWIDTH 393 0
DWIDTH 14 0
BBX 22 37 -6 -10
BITMAP
0000006BF900
000007FFFF80
00003FF93FD0
0000FFD03FD0
0000FF403FC0
00006D007FC0
000000007F80
00000000BF80
00000000FF40
00000001FF00
00000002FE00
00000003FE00
00000007FD00
0000000BFC00
0000000FF800
0000001FF400
0000002FF000
0000003FD000
0000007FC000
000000BF8000
000001FF4000
000002FE0000
000007FD0000
00000BF80000
00001FF40000
00002FE00000
00007FD00000
0000BF800000
0001FF000000
0003FD000000
000BF8000000
002FE0000000
00BF80000000
02FE00000000
0BF800000000
BFD000000000
BE0000000000
ENDCHAR
STARTCHAR K
ENCODING 75
SWIDTH 616 0
DWIDTH 22 0
BBX 26 27 -2 0
BITMAP
001AF900007E00
007FFF80003FC0
003E6FD0002FD0
00042FD0003FD0
00003FC0003FD0
00003FC0007FC0
00007FC000BF40
00007F8002FE00
0000BF4007FC00
0000FF001FF000
0001FF007F8000
0002FE02FE0000
0003FD0BF40000
0003FC7F800000
0007F9FD000000
000FFFF4000000
001FFBFC000000
002FE2FF000000
003FC0FF800000
007F807FD00000
00FF402FF00000
01FE001FF80000
03FC000BFE0000
0BF40003FF8000
2FE00001FFFE00
7F8000007FFE00
7D0000001BE400
ENDCHAR
STARTCHAR L
ENCODING 76
SWIDTH 517 0
DWIDTH 19 0
BBX 22 27 -1 0
BITMAP
0000000BF800
000000BFFE00
000002FD1F80
00000BF40BC0
00001FE00BD0
00003FC00FD0
00007F801FC0
0000FF003FC0
0001FE00FF40
0003FD03FF00
0007FC1FFD00
000BF83FF800
000FF02FD000
001FE0054000
002FD0000000
003FC0000000
00BF80000000
00FF00000000
01FE00000000
02FC00000000
03F800000000
0BF000000000
0FD005540000
2F96FFFF8000
BFFFFFFFD000
BFFFFABFE000
2F940005E000
ENDCHAR
STARTCHAR M
ENCODING 77
SWIDTH 931 0
DWIDTH 34 0
BBX 38 27 -4 0
BITMAP
0000000000BE40001BD0
0000000007FF8000BFE0
000000002FFF4003FFD0
00000000BDFF000FEFC0
00000002F5FE002F6F80
00000007E2FC00BE3F40
0000000FC3F801FCBF00
0000002F47F402F4FE00
0000007E0BF007E1FD00
000000FC0FE00FC2FC00
000002F41FD02F43F800
000007F02FD03F07F400
00000BD03FC0BD0BF000
00001F803F80FC0FE000
00003F407F42F41FD000
00007E00BF43E02FD000
0000FD00BF0BD03FC000
0002F800FF0F807F8000
0007F000FE2F407F4000
000BE000FE3E00BF4000
001FC000FEBD00BF0000
003F4001FEF800FF0000
00BE0001FFF000FF0000
02FC0000FFD000BF4600
0BF40000FF8000BFFF00
BFE00000BF00003FFD00
7E4000007D00001BE400
ENDCHAR
STARTCHAR N
ENCODING 78
SWIDTH 708 0
DWIDTH 25 0
BBX 28 27 0 0
BITMAP
000001BD0007E4
000007FD000FFC
00001FFD0007FE
00007FFC0002FE
0000FFFC0002FF
0002F7F80001FE
0007E3F80002FE
000BD3F80002FD
001F83F80003FC
002F43FC0007F4
007F03FC000BF0
00BD03FC000FD0
00FC03FD001FC0
01F802FD002F40
02F402FE007F00
03F001FE00BD00
07E001FF00F800
0BD000FF02F400
0FD000BF43E000
1FC0007F87C000
2F80007FCF8000
3F40003FEF0000
3F40001FFE0000
7F00000FFD0000
7F000007FC0000
7E000002FC0000
2D000000B80000
ENDCHAR
STARTCHAR O
ENCODING 79
SWIDTH 655 0
DWIDTH 24 0
BBX 22 27 2 0
BITMAP
000001AFE400
00001BFFFE00
00007FE06F80
0002FF400FD0
000BFC000BE0
002FF0000BF0
007FD0000BF0
00FF80000BF0
02FF00000BF0
07FD00000FF0
0BF800001FF0
0FF400001FE0
2FE000002FD0
2FD000003FC0
3FC00000BF80
7F800000FF40
BF400001FF00
BF400003FD00
BF00000BFC00
BF00001FF400
BF00003FE000
BF0000BF8000
7F0002FE0000
3F400BF80000
1FD07FE00000
07FFFE400000
00BFE4000000
ENDCHAR
STARTCHAR P
ENCODING 80
SWIDTH 553 0
DWIDTH 20 0
BBX 24 27 -1 0
BITMAP
00001AFFA400
0006FFFFFF40
002FFF901FE0
003FF40007F4
003F800002FC
00191F4002FD
00003FC002FD
00007F8002FD
0000FF4003FC
0001FE000BF8
0002FD001FF4
0003FC007FE0
0007F802FF80
000BF41FFE00
001FF6FFF400
002FFFFE4000
003FFF940000
007F80000000
00BF40000000
01FF00000000
02FD00000000
03FC00000000
0BF400000000
1FE000000000
7F8000000000
FE0000000000
B80000000000
ENDCHAR
STARTCHAR Q
ENCODING 81
SWIDTH 655 0
DWIDTH 24 0
BBX 24 33 2 -6
BITMAP
000001BFE400
00001FFFFE00
0000BF907F40
0007FD001FC0
001FF4000FD0
003FD0000FE0
00BF40000FE0
01FE00000FE0
03FC00000FE0
07F800001FE0
0FF000002FE0
1FE000003FD0
2FD000007FC0
2FC00000BF80
3FC00001FF00
3F800002FE00
7F800007FC00
7FC0000FF400
3FC0002FE000
3FE000BF8000
1FF402FE0000
0BF40BF80000
01902FE00000
0001FF800000
001FFD000000
02FFFF400000
03FFFFF40000
00006FFE0000
000007FFD000
000000BFFD46
0000001FFFFF
00000002FFFD
000000001BE4
ENDCHAR
STARTCHAR R
ENCODING 82
SWIDTH 623 0
DWIDTH 22 0
BBX 24 28 -1 -1
BITMAP
00001AFFE400
0006FFFFFF80
002FFE501BE0
003FE00002F8
001F464001FC
00001FC001FD
00003FC001FE
00007F8001FD
0000FF4003FD
0001FF0007FC
0002FE001FF4
0003FD007FE0
0007FC02FF80
000BF41FFE00
000FFAFFE400
001FFFFE4000
002FDBF40000
007FC2FC0000
00BF41FE0000
00FF00BF4000
02FE007F8000
03FC002FD000
0BF4001FF000
1FE0000BF800
3FC00007FE00
FF400001FFF4
B80000007FE0
000000000500
ENDCHAR
STARTCHAR S
ENCODING 83
SWIDTH 474 0
DWIDTH 17 0
BBX 19 27 1 0
BITMAP
00001BF900
0001FFFF80
000BF90BE0
002FD002F4
007F4002F8
00FF0002F8
01FD0003F8
02FD0007F8
03FC000FF4
03FC007FF0
03FD00FFD0
03FE00FF80
02FF406900
01FF800000
00FFD00000
007FF40000
002FF80000
000BFD0000
0003FE0000
0401FF0000
7D00BF0000
BD007F0000
FD007E0000
FE00BD0000
BF42F40000
3FFFD00000
0BFA000000
ENDCHAR
STARTCHAR T
ENCODING 84
SWIDTH 471 0
DWIDTH 17 0
BBX 21 27 2 0
BITMAP
02FFEA500680
1FFFFFFFFF80
3FFFFFFFFF00
BFD01FFBF800
BF002FD00000
7D003FC00000
18007F800000
0000BF400000
0000FF000000
0001FE000000
0002FD000000
0003FC000000
0007F8000000
000BF4000000
000FF4000000
001FF0000000
002FD0000000
002FC0000000
003F80000000
00BF40000000
00FF00000000
01FD00000000
03F800000000
07F400000000
1FE000000000
7F8000000000
7D0000000000
ENDCHAR
STARTCHAR U
ENCODING 85
SWIDTH 624 0
DWIDTH 22 0
BBX 25 27 0 0
BITMAP
0002FD00001E40
0007FF00003FC0
0002FF00007F80
0000FF0000FF00
0001FE0001FE00
0002FD0003FD00
0003FC0007FC00
000BF8000FF400
000FF0002FF000
001FE0003FE000
003FD000BFD000
007F8000FFC000
00BF4002FF8000
00FE0007FF4000
02FD000BFF0000
03FC001FFE0000
07F4003FFD0000
0BF000BEFC0000
1FE001F6F80000
2FD003E3F80000
3FC00BC7F40000
3F801F47F40000
7F807D0BF00000
7FC2F40BF45000
3FFFD007FFE000
2FFF4003FFD000
0BF40001BE0000
ENDCHAR
STARTCHAR V
ENCODING 86
SWIDTH 587 0
DWIDTH 21 0
BBX 23 28 3 0
BITMAP
000000000BD0
06BE40001FF4
2FFFD0000FF8
BFFFF00007FC
7F93F80007FC
0407F80007F8
000FF40007F8
002FE0000FF0
003FD0001FE0
00BFC0003FD0
00FF4000BF80
02FE0002FF00
03FD0007FD00
0BF8001FF400
0FF4003FD000
1FE000BF4000
2FD002FD0000
3FC00BF40000
7F802FD00000
BF00BF400000
BF02FD000000
FE07F4000000
FD1FD0000000
FD7F40000000
FEFD00000000
BFF400000000
3FD000000000
1F4000000000
ENDCHAR
STARTCHAR W
ENCODING 87
SWIDTH 941 0
DWIDTH 34 0
BBX 34 27 2 0
BITMAP
01BF80000000001F40
1FFFF000000000BFD0
3FFFF800000000BFE0
2F91FC000000003FE0
0503FC000000002FF0
0007FC0000A4002FF0
000FF40007FC001FF0
002FF0002FF4001FE0
003FE000BFE0001FE0
00BFC003FF80002FD0
00FF800BFF40002FD0
01FF002FFE00003FC0
03FE00BFFD00007F80
07FC01FFF80000BF40
0BF807FBF40000FF00
0FF00FEBF00001FD00
1FE02F8FF00002FC00
2FD07E0FE00007F400
3FC0FC1FD0000FE000
7F82F41FD0001FC000
7F47D02FD0007F4000
7F0F802FC000FD0000
7F2F001FC002F40000
7F7D001FD00BD00000
3FF8000FE07F400000
1FE00007FFF8000000
0BC00001BE80000000
ENDCHAR
STARTCHAR X
ENCODING 88
SWIDTH 552 0
DWIDTH 20 0
BBX 28 27 -2 0
BITMAP
000001B00001BD
000007F0001FFD
00000FF0007FE0
00001FF001FF40
00001FE003FD00
00001FE00FF400
00001FE02FD000
00001FE07F4000
00001FE1FD0000
00000FE3F80000
00000FEBE00000
00000FFFC00000
00000BFF400000
00000BFE000000
000007F8000000
00000BF8000000
00001FFC000000
00007FFD000000
0000FEFE000000
0002F8FF000000
000BE0FF400000
002FC0BFC00000
00BF403FE00000
02FD002FF42000
1FF4000FFFF000
BFD00007FFD000
7E000000BE4000
ENDCHAR
STARTCHAR Y
ENCODING 89
SWIDTH 580 0
DWIDTH 21 0
BBX 25 37 0 -10
BITMAP
0002F900001E40
0007FF00003F80
0002FF00007F80
0001FE0000FF00
0001FE0002FE00
0002FD0003FC00
0007F8000BF800
000BF4000FF400
000FF0002FF000
002FE0007FE000
003FC000BFD000
007F8001FFC000
00BF4002FF8000
01FE0007FF4000
02FD000FFE0000
03F8001FFD0000
0BF4003FFC0000
0FF000BFF80000
1FE001F7F40000
2FC003EBF00000
3FC00B8FE00000
7F802F1FD00000
7F807D3F800000
7F82F47F400000
7FFFD0BF000000
2FFF41FD000000
0BE403FC000000
000007F4000000
00000FE0000000
00002FC0000000
0000BF40000000
0001FD00000000
0007F800000000
001FE000000000
00BF8000000000
0BFD0000000000
0BA00000000000
ENDCHAR
STARTCHAR Z
ENCODING 90
SWIDTH 501 0
DWIDTH 18 0
BBX 23 27 -1 0
BITMAP
001E4005AF80
001FFFFFFFE0
001FFFFFEBF4
000FFFFE5FF4
0002FE907FE0
00000001FFC0
00000007FF40
0000000FFD00
0000003FF400
000000FFD000
000002FF4000
00000BFD0000
00002FF40000
0000BFD00000
0001FF400000
0007FD000000
001FF4000000
003FD0000000
00BF40000000
02FD00000000
07F800000000
0FE000000000
2FC06AFE0000
7F6FFFFFC000
7FFFFFFFE000
7FFE5007E000
2F900000A000
ENDCHAR
STARTCHAR bracketleft
ENCODING 91
SWIDTH 396 0
DWIDTH 14 0
BBX 19 38 0 -6
BITMAP
0000007FF8
000000FFE4
000001FE00
000002FC00
000003F800
000007F400
00000BF000
00000FE000
00001FD000
00002FC000
00003F8000
00007F4000
0000BF0000
0000FE0000
0002FD0000
0003FC0000
0007F40000
000BF00000
000FE00000
001FD00000
002FC00000
003F800000
007F400000
00BF000000
00FE000000
01FD000000
02FC000000
03F8000000
07F4000000
0BF0000000
0FE0000000
1FD0000000
2FC0000000
3F80000000
7F40000000
BF40000000
FFF9000000
BFF8000000
ENDCHAR
STARTCHAR backslash
ENCODING 92
SWIDTH 464 0
DWIDTH 17 0
BBX 13 38 1 -6
BITMAP
78000000
7E000000
3F000000
2F400000
1F800000
1F800000
0FC00000
0BD00000
07E00000
07E00000
03F00000
02F40000
01F80000
00F80000
00FC0000
00BD0000
007E0000
003F0000
003F0000
002F4000
001F8000
000FC000
000FC000
000BD000
0007E000
0003F000
0003F000
0002F400
0001F800
0000FC00
0000BC00
0000BD00
00007E00
00003F00
00002F00
00002F40
00001F80
00000780
ENDCHAR
STARTCHAR bracketright
ENCODING 93
SWIDTH 394 0
DWIDTH 14 0
BBX 19 38 -2 -6
BITMAP
000001BFF4
000001FFF8
00000007F4
0000000BF0
0000000FE0
0000001FD0
0000002FC0
0000003F80
0000007F40
000000BF00
000000FE00
000001FD00
000002FC00
000003F800
000007F400
00000BF000
00000FE000
00001FD000
00002FC000
00003F8000
00007F4000
0000BF0000
0000FE0000
0001FD0000
0002FC0000
0003F80000
0007F00000
000BE00000
000FD00000
001FC00000
002F800000
003F400000
007F000000
00FE000000
01FD000000
03FC000000
6FF8000000
BFE0000000
ENDCHAR
STARTCHAR asciicircum
ENCODING 94
SWIDTH 540 0
DWIDTH 19 0
BBX 16 15 3 12
BITMAP
0002E000
0003F400
000BF800
001FFC00
002FFE00
007FBF00
00FE2F80
01FC1FC0
03F40BE0
0BE003F0
0FC001F8
2F4000BC
7E00007D
BC00002F
14000004
ENDCHAR
STARTCHAR underscore
ENCODING 95
SWIDTH 530 0
DWIDTH 19 0
BBX 24 3 -6 -6
BITMAP
2FFFFFFFFFFE
BFFFFFFFFFFE
BFFFFFFFFFF8
ENDCHAR
STARTCHAR grave
ENCODING 96
SWIDTH 219 0
DWIDTH 8 0
BBX 6 9 1 19
BITMAP
1F40
7F40
BF40
BF40
7F40
2F40
1F80
07D0
0040
ENDCHAR
STARTCHAR a
ENCODING 97
SWIDTH 541 0
DWIDTH 20 0
BBX 19 18 1 0
BITMAP
0000BF82E0
000BFFEBF4
002FD0BFF0
00BF007FD0
02FC007FC0
07F400BF40
0FE000FF00
2FD001FE00
3FC003FC00
7F8007F800
BF400FF400
BF402FF000
BF007FF000
BF00FBF000
BF47EBF990
7FFF87FFC0
2FFE03FF40
07F400B900
ENDCHAR
STARTCHAR b
ENCODING 98
SWIDTH 525 0
DWIDTH 19 0
BBX 17 30 1 0
BITMAP
0001400000
0007E00000
000BF00000
000FF00000
000FE00000
001FD00000
002FD00000
002FC00000
003F800000
007F400000
00BF000000
00FE000000
01FC1BE400
02F8BFFD00
03F6E0FF00
07FB80BF40
0BFE00BF80
0FFC00BF80
1FF400BF80
2FE000BF40
3FD000FF40
3F8001FF00
7F4002FE00
7F0007FC00
BE000BF400
BE002FE000
7E00BF8000
3F57FE0000
1FFFF40000
02FE400000
ENDCHAR
STARTCHAR c
ENCODING 99
SWIDTH 465 0
DWIDTH 17 0
BBX 16 18 1 0
BITMAP
0001AF90
000BFFF8
007FD0FD
01FF00BD
03FD00FD
0BF402FD
1FF007FC
2FD00FF4
7FC007E0
7F800000
BF400000
BF400000
BF400000
BF400180
7F800780
3FD06F40
1FFFFD00
02FF9000
ENDCHAR
STARTCHAR d
ENCODING 100
SWIDTH 557 0
DWIDTH 20 0
BBX 23 30 1 0
BITMAP
000000000150
0000000007F4
000000000BF0
000000001FE0
000000002FD0
000000003FC0
000000007F40
00000000BF00
00000000FE00
00000001FD00
00000002FC00
00000003F800
00006F97F400
0006FFFFF000
001FE47FE000
007F403FD000
01FD002FC000
03F8003F8000
0BF4007F4000
1FE000BF0000
2FD001FF0000
3FC002FE0000
7F8007FD0000
7F400FFC0000
7F402FFC0000
7F40BFF80000
7F82F6F81000
3FFFE2FFF000
1FFF81FFD000
06F9007E4000
ENDCHAR
STARTCHAR e
ENCODING 101
SWIDTH 471 0
DWIDTH 17 0
BBX 16 18 1 0
BITMAP
00006F90
0007FFF4
002FD1FC
00BF00FD
02FD01FD
07F802FD
0FF403FC
1FE00FF8
3FD07FE0
7FC6FF80
7FFFF800
BFEA4000
BF400000
7F400040
3F8002D0
2FD06FC0
0BFFFF40
01BFA400
ENDCHAR
STARTCHAR f
ENCODING 102
SWIDTH 393 0
DWIDTH 14 0
BBX 21 34 -1 -5
BITMAP
0000001BE400
000000FFFD00
000003F87F00
00000BF03F40
00000FE07F40
00002FC0BF00
00003F82FE00
00007F42FD00
0000BF006000
0000FE000000
0000FE000000
0001FD000000
0002FC000000
0003FFF90000
006FFFFF4000
02FFFFFF4000
03FFE0000000
001FD0000000
002FC0000000
003F80000000
007F80000000
00BF40000000
00FF00000000
01FE00000000
01FD00000000
02FC00000000
03F800000000
0BF400000000
0FF000000000
1FE000000000
2FD000000000
7F8000000000
BF4000000000
7D0000000000
ENDCHAR
STARTCHAR g
ENCODING 103
SWIDTH 526 0
DWIDTH 19 0
BBX 18 28 1 -10
BITMAP
0000AF8000
0007FFF2E0
002FD1BFF0
00BF403FE0
02FD002FD0
07F8003FC0
0FF0007F80
2FE000BF40
3FD001FF00
7FC002FE00
7F8007FD00
BF400BFC00
BF401FF800
BF403FF400
7F40FFF000
3F87EBE000
1FFF8FD000
06F91FC000
00002F8000
00007F4000
0000BE0000
0001FD0000
0003F80000
000BF00000
002FD00000
01FF400000
1FFD000000
1FD0000000
ENDCHAR
STARTCHAR h
ENCODING 104
SWIDTH 555 0
DWIDTH 20 0
BBX 19 30 0 0
BITMAP
0000140000
00007E0000
0000BF4000
0000FF0000
0000FF0000
0001FE0000
0001FD0000
0002FD0000
0003FC0000
0007F80000
0007F40000
000BF00000
000FE01F90
001FD0BFF0
002FC2FFF4
003F8B97F4
007F1E0BF4
00BE780FF0
00FEF01FE0
01FFD03FD0
02FF407F80
03FE00BF40
07FC01FE00
0FF402FD00
1FE002FC00
2FC003FC00
7F8003FC20
BF4003FFF0
FE0002FFD0
6D0000BE40
ENDCHAR
STARTCHAR i
ENCODING 105
SWIDTH 286 0
DWIDTH 10 0
BBX 11 27 1 0
BITMAP
000BE0
002FF8
002FF8
002FF4
000BD0
000100
000000
000000
000000
01FE00
03FF00
01FF00
00FE00
01FD00
02FC00
03F800
07F000
0FE000
1FD000
2F8000
3F4000
7F0000
BE0000
FE0000
FFF800
BFF400
2F9000
ENDCHAR
STARTCHAR j
ENCODING 106
SWIDTH 281 0
DWIDTH 10 0
BBX 17 37 -6 -10
BITMAP
000000BE00
000002FF80
000002FF80
000002FF40
000000BD00
0000001000
0000000000
0000000000
0000000000
00000BF400
00001FF800
00000BF800
00000BF800
00000BF400
00000BF400
00000BF000
00000FF000
00001FE000
00001FD000
00002FC000
00003F8000
00007F4000
0000BF0000
0000FE0000
0001FD0000
0002FC0000
0003F80000
000BF00000
000FE00000
002FC00000
007F400000
00BE000000
01FC000000
07F4000000
1FD0000000
BF40000000
F800000000
ENDCHAR
STARTCHAR k
ENCODING 107
SWIDTH 497 0
DWIDTH 18 0
BBX 18 30 0 0
BITMAP
0000140000
00007E0000
0000BF0000
0000FF0000
0000FE0000
0001FE0000
0001FD0000
0002FC0000
0003F80000
0007F80000
0007F40000
000BF00000
000FE01F90
001FD02FF0
002FC00FF0
003F801FF0
007F003FE0
00BE00FF80
00FD07FE00
01FC6FE400
02FFFE4000
03FFF00000
07FFF40000
0FF7F80000
1FE2FD0000
2FC1FF0000
7F80BFD140
BF007FFF80
FE001FFF40
7C0006F800
ENDCHAR
STARTCHAR l
ENCODING 108
SWIDTH 279 0
DWIDTH 10 0
BBX 11 30 1 0
BITMAP
000140
0003F4
0007F8
0007F4
000BF4
000BF0
000FE0
001FE0
002FD0
002FC0
003F80
007F40
00BF00
00FE00
01FD00
02FC00
03F800
07F400
0BF000
0FD000
1FD000
2FC000
3F8000
7F4000
BF0000
BF0000
FF0400
BFFC00
7FF400
1F9000
ENDCHAR
STARTCHAR m
ENCODING 109
SWIDTH 814 0
DWIDTH 29 0
BBX 28 18 0 0
BITMAP
007E401B9002F4
00FFC0BFF01FFD
007FC2FFF07FFE
003F8BD3F1F4FF
007F5F43E3D0FE
00BF7D07EB42FD
00FEF40BEE03FC
01FED00FFC0BF8
02FF802FF40FF0
03FE003FD01FE0
07FC00BF803FC0
0FF400FF007F80
1FE001FE007F40
2FD003FC00BF00
7F8007F800BF44
BF400BF000BFFC
FE000BE0003FF8
6D0006D0001F90
ENDCHAR
STARTCHAR n
ENCODING 110
SWIDTH 561 0
DWIDTH 20 0
BBX 19 18 0 0
BITMAP
007E001F90
00FF80BFF4
007FC2FFF8
003F8BD7F8
007F5F07F8
00BF7C0BF4
00FEF40FF0
01FFD02FD0
02FF803FC0
03FE00BF80
07FC00FF00
0FF401FE00
1FE002FD00
2FD002FC00
7F8002FC10
BF4002FFF0
FE0001FFE0
6D00007F40
ENDCHAR
STARTCHAR o
ENCODING 111
SWIDTH 514 0
DWIDTH 19 0
BBX 17 18 1 0
BITMAP
0001BF9000
000BFFF800
007FD1FD00
01FF40BF00
03FD00BF00
0BF800BF40
1FF400BF40
2FE000FF00
3FD001FF00
7FC002FE00
BF8003FD00
BF400BF800
BF401FF400
BF002FE000
7F40BF8000
3F86FE0000
1FFFF40000
02FE400000
ENDCHAR
STARTCHAR p
ENCODING 112
SWIDTH 550 0
DWIDTH 20 0
BBX 22 28 -3 -10
BITMAP
0006F406F900
000FFC2FFF40
0003FDF93FC0
0002FFE02FD0
0003FF801FD0
0007FF001FD0
0007FD002FD0
000BF8002FD0
000FF4003FC0
001FE0007F80
001FD000FF40
002FC001FE00
003F8003FD00
007F800BF400
00BFC02FE000
00BFE5FF4000
00FEFFFD0000
01FC6F900000
02F800000000
03F800000000
07F400000000
0BF000000000
0FE000000000
1FD000000000
2FC000000000
7F8000000000
7F0000000000
2D0000000000
ENDCHAR
STARTCHAR q
ENCODING 113
SWIDTH 533 0
DWIDTH 19 0
BBX 19 28 1 -10
BITMAP
00006F9000
0007FFF5A0
002FE0BFF4
00BF403FF4
01FD003FE0
07F8007FD0
0FF000BFC0
1FE000FF80
2FC001FF00
3F8003FE00
7F8007FD00
7F400FFC00
BF402FF400
7F40BFF000
7F82FBE000
3FFFDFD000
1FFF5FC000
06F82F8000
00003F4000
00007F0000
0000BE0000
0000FE0000
0000FD0000
0001FD0000
0001FD0000
0001FD0000
0000FD0000
00006D0000
ENDCHAR
STARTCHAR r
ENCODING 114
SWIDTH 407 0
DWIDTH 15 0
BBX 17 18 0 0
BITMAP
00BE007E00
01FF42FF00
00BF4BFF40
007F5FFF00
00BF3D2D00
00BEB40000
00FDE00000
01FE800000
02FF000000
03FE000000
07FC000000
0BF4000000
0FF0000000
1FD0000000
3FC0000000
7F80000000
7F40000000
1E00000000
ENDCHAR
STARTCHAR s
ENCODING 115
SWIDTH 423 0
DWIDTH 15 0
BBX 16 18 0 0
BITMAP
0006FF90
002FFFF4
007F47FC
00FD01FD
01FD01FC
01FD01F4
01FF0040
00FF8000
00BFD000
003FF000
001FF800
000BFC00
1903FD00
3E01FD00
BE01FC00
7F97F800
2FFFD000
06FE0000
ENDCHAR
STARTCHAR t
ENCODING 116
SWIDTH 358 0
DWIDTH 13 0
BBX 13 23 2 0
BITMAP
0002D000
000BF000
001FE000
002FD000
007F8000
1FFFFFC0
1BFFFA40
02FD0000
03FC0000
07F80000
0BF40000
0FF00000
0FE00000
1FD00000
2FC00000
3F800000
3F800000
7F400000
7F406000
7F82F000
3FFFD000
2FFF4000
07F80000
ENDCHAR
STARTCHAR u
ENCODING 117
SWIDTH 553 0
DWIDTH 20 0
BBX 19 18 1 0
BITMAP
01BD0001E4
03FF0007F8
01FF000BF4
00FF001FE0
01FE003FD0
02FD00BF80
03FC00FF40
0BF802FF00
0FF007FD00
1FE00FFC00
3FD02FF800
7F80BAF400
BF41F3F000
FF07D7F000
FE1F4BF040
FFFD0BFFC0
BFF407FF40
2F8001F900
ENDCHAR
STARTCHAR v
ENCODING 118
SWIDTH 510 0
DWIDTH 18 0
BBX 17 18 1 0
BITMAP
01BD007E00
03FF00FF40
00FF407F80
00FF003FC0
01FE003FC0
02FD003F80
03FC003F80
07F4007F40
0FF000BF00
1FE000FD00
2FC001F800
3F8003F400
7F400BD000
BF002F8000
FF01FD0000
FFAFF40000
7FFF800000
1FE4000000
ENDCHAR
STARTCHAR w
ENCODING 119
SWIDTH 750 0
DWIDTH 27 0
BBX 26 18 1 0
BITMAP
02F90000002F40
07FF0006407FC0
02FF002FD03FD0
00FE003FC01FD0
00FE00BF401FD0
01FD00FF001FD0
02FC02FE001FC0
03F407FC001FC0
07F00FF8002F80
0FE02FF4003F00
1FD07FF0007E00
2FC1FBE000FC00
3F47DBE002F400
7F1F4BE007E000
BF7E0BF42F8000
BFF807FEFE0000
BFD002FFF40000
2E0000BE800000
ENDCHAR
STARTCHAR x
ENCODING 120
SWIDTH 467 0
DWIDTH 17 0
BBX 20 18 -1 0
BITMAP
0006C001F9
001FC00BF9
003FC07FD0
003FC1FE00
003FC3F800
003FCBE000
002FEF8000
002FFE0000
001FF80000
000FF40000
000BF40000
002FF80000
007FFC0000
01F9FE0000
07F0FF4500
2FD07FFE00
BF402FFD00
78000BE400
ENDCHAR
STARTCHAR y
ENCODING 121
SWIDTH 549 0
DWIDTH 20 0
BBX 19 28 1 -10
BITMAP
01BE0001F4
02FF4003F8
00FF400BF4
00FF001FF0
00FE002FE0
01FD007FD0
03FC00BFC0
07F801FF80
0BF403FF40
1FE00BFF00
2FD01FFE00
3FC07EFD00
7F40F6FC00
BF03E3F800
FF1F87F000
FFFE0BE000
BFF80FD000
2F901FC000
00003F4000
00007F0000
0000FD0000
0002F80000
000BF00000
001FD00000
00BF400000
06FE000000
2FF4000000
0A80000000
ENDCHAR
STARTCHAR z
ENCODING 122
SWIDTH 430 0
DWIDTH 15 0
BBX 17 18 0 0
BITMAP
00B9002E00
00BFFFFF40
007FFFFF40
001A95FF00
000007FD00
00002FF400
0000BFD000
0002FF4000
000FF80000
007FE00000
01FF800000
03FD000000
0BF4000000
2FD0000000
7F9ABA0000
BFFFFF8000
BFFEBFC000
2E4006C000
ENDCHAR
STARTCHAR braceleft
ENCODING 123
SWIDTH 424 0
DWIDTH 15 0
BBX 18 38 2 -6
BITMAP
0000006FE0
000001FFE0
000007FD00
00000BF400
00000FE000
00001FD000
00002FC000
00003F8000
00007F4000
0000BF4000
0000BF0000
0000FE0000
0001FD0000
0003FC0000
0007F80000
001FF00000
007FD00000
0FFF400000
1FF9000000
0BE0000000
03F4000000
02F8000000
02F8000000
03F8000000
03F8000000
07F4000000
0BF0000000
0FE0000000
2FD0000000
3FC0000000
7F80000000
BF40000000
BF00000000
FE00000000
FE00000000
FF00000000
BFE0000000
2FE0000000
ENDCHAR
STARTCHAR bar
ENCODING 124
SWIDTH 306 0
DWIDTH 11 0
BBX 4 38 4 -6
BITMAP
1D
7E
7E
BE
BE
BE
BE
BE
BE
BE
BE
BE
BE
BE
BE
BE
BE
BE
BE
BE
BE
BE
BE
BE
BE
BE
BE
BE
BE
BE
BE
BE
BE
BE
BE
BE
7D
78
ENDCHAR
STARTCHAR braceright
ENCODING 125
SWIDTH 424 0
DWIDTH 15 0
BBX 18 38 -2 -6
BITMAP
000000BE40
000001FFD0
0000001FE0
0000000FE0
0000001FE0
0000001FD0
0000002FC0
0000003F80
0000007F40
000000BF00
000000FE00
000002FD00
000003FC00
000003F800
000007F400
000007F400
000007F400
000002F800
000000BD00
000006FF00
00002FFD00
0000BF9000
0001FE0000
0003FC0000
0007F40000
000FF00000
000FE00000
001FD00000
002FC00000
003F800000
007F800000
007F400000
00BF000000
01FE000000
02FD000000
0BF8000000
FFF0000000
BF80000000
ENDCHAR
STARTCHAR asciitilde
ENCODING 126
SWIDTH 624 0
DWIDTH 22 0
BBX 20 7 2 9
BITMAP
006F90000A
02FFF8001E
0FFFFE007D
2F46FF81F8
7D00BFFFF0
B4002FFF80
A00006F900
ENDCHAR
STARTCHAR nonbreakingspace
ENCODING 160
SWIDTH 293 0
DWIDTH 11 0
BBX 1 1 0 0
BITMAP
00
ENDCHAR
STARTCHAR exclamdown
ENCODING 161
SWIDTH 417 0
DWIDTH 15 0
BBX 13 28 1 -8
BITMAP
0000BE00
0002FF40
0003FF80
0003FF80
0001BE00
00000000
00000000
00038000
000F8000
002F4000
007E0000
00BD0000
01FC0000
03F80000
07F40000
0BF40000
0FF00000
2FE00000
3FD00000
7FC00000
7FC00000
BF800000
FF400000
FF400000
FF000000
BF000000
7F000000
1E000000
ENDCHAR
STARTCHAR cent
ENCODING 162
SWIDTH 487 0
DWIDTH 18 0
BBX 16 27 2 0
BITMAP
0000007D
000001FC
000002F4
000007E0
00000BD0
00006FC0
000BFFF4
003FE6F8
00FF40FC
02FE01FC
07F802FC
0FF40BF8
1FE00FF0
2FD007D0
3FC00000
7FC00000
7F800000
7F800000
3F800180
3FC007C0
1FE46F80
0BFFFE00
01FFA000
01F40000
02F00000
02E00000
02D00000
ENDCHAR
STARTCHAR sterling
ENCODING 163
SWIDTH 665 0
DWIDTH 24 0
BBX 26 27 -1 0
BITMAP
000000000BF900
000000007FFF40
00000001FE1F80
00000007F80BC0
0000000FF00BD0
0000002FD00BD0
0000007FC00FD0
000000BF802FC0
000000FF00BF80
000002FE02FF40
000003FD0FFE00
000007FC0FF800
00000BF807E000
00000FF4000000
0006FFFFE00000
001FFFFFF80000
00097FC0000000
0000BF80000000
0000FF40000000
0001FE00000000
06FFFD00000000
2FFFFD00000000
7D0BFF80003400
B81FFFF901F400
BC7FDBFFFFF400
7FFF40BFFFE000
1BE4000AFE4000
ENDCHAR
STARTCHAR currency
ENCODING 164
SWIDTH 572 0
DWIDTH 21 0
BBX 20 23 2 1
BITMAP
0007400000
000F800014
001F8001FE
001FC007F8
000FEFEFE0
000FFFFF80
001FE4BE00
007F807F00
00FF007F40
02FD007F40
07FC00BF40
0BF400BF40
0FF000FF00
0FE002FE00
0FE003FD00
0FE00BF800
0FE01FE000
0BF4BFC000
1FFFFFC000
3F6FE7D000
BC0002E000
B00001F000
0000005000
ENDCHAR
STARTCHAR yen
ENCODING 165
SWIDTH 583 0
DWIDTH 21 0
BBX 24 27 2 0
BITMAP
1B90000001B9
7FF400000BFE
FFFC00002FF8
47FE0000BFE0
01FF0001FF80
00BF4007FE00
003F800FF800
002FC02FE000
001FC07FC000
000BD0FF0000
0007D1FD0000
0003E3F80000
0003EBF00000
0002FFD00000
0002FF800000
0156FF950000
07FFFFFD0000
06FFFF900000
0003FC000000
0003F4000000
1BFFFFF40000
2FFFFFE00000
056FE5000000
001FC0000000
002F80000000
002F80000000
002E00000000
ENDCHAR
STARTCHAR brokenbar
ENCODING 166
SWIDTH 292 0
DWIDTH 11 0
BBX 4 38 4 -6
BITMAP
2C
BC
FD
FD
FD
FD
FD
FD
FD
FD
FD
FD
FD
FD
FC
FC
B4
00
00
00
00
2C
BC
FD
FD
FD
FD
FD
FD
FD
FD
FD
FD
FD
FD
FC
FC
B4
ENDCHAR
STARTCHAR section
ENCODING 167
SWIDTH 583 0
DWIDTH 21 0
BBX 22 37 0 -8
BITMAP
0000006FE400
000002FFFF00
00000FF41F80
00002FD00BD0
00003FC00BE0
00007F800BE0
0000BF401FE0
0000BF407FD0
0000BF81FFC0
00007FC2FF40
00007FD0B800
00002FF00000
00007FF40000
000BFFFC0000
002FE7FD0000
007F42FF0000
00FE01FF4000
01FD00BF8000
02FD007FD000
02FD002FD000
02FE001FE000
01FF001FE000
00FF801FE000
00BFD01FD000
007FE03F8000
002FFAFE0000
000FFFF40000
0007FE400000
0002FE000000
0500FF000000
2F00BF000000
7E007F000000
BF007E000000
BF00BD000000
BF81F8000000
2FFFE0000000
06FE40000000
ENDCHAR
STARTCHAR dieresis
ENCODING 168
SWIDTH 412 0
DWIDTH 15 0
BBX 14 5 1 22
BITMAP
1F801F90
7FE07FE0
BFE07FF0
7FD07FE0
2F802F80
ENDCHAR
STARTCHAR copyright
ENCODING 169
SWIDTH 871 0
DWIDTH 31 0
BBX 28 27 2 0
BITMAP
0000006FFA4000
00001BFFFFF800
0000BFFFFFFF40
0007FF9001BFD0
001FF40BF91FF0
007F807FFF43F8
00FE02FE0B81FC
02F80BF40BC0BD
07F01FE00BC07E
0BD03FC01FC07F
1FC07F407F803F
2F80BF01FF003F
2F40FE02FD003F
3F01FD00A4007F
3F01FD0000007E
7E01FD000000BD
7F01FD000000FC
3F00FE002402F8
3F40BF41F407F0
2F802FFFE00FE0
1FD006FE402FC0
0BF0000001FF00
07FD00000BFD00
01FF9001BFF400
007FFFFFFF8000
000BFFFFF90000
00006FFE400000
ENDCHAR
STARTCHAR ordfeminine
ENCODING 170
SWIDTH 564 0
DWIDTH 20 0
BBX 16 16 4 10
BITMAP
0006F92E
002FFFBF
00BF4BFE
02F803FC
0BF007F8
1FD00BF4
3FC00FE0
7F401FD0
BF003FC0
FE00BF80
FE01FF40
FE03FF00
FE0FBF40
BFFF3FFC
3FFC2FF8
1BE00BD0
ENDCHAR
STARTCHAR guillemotleft
ENCODING 171
SWIDTH 662 0
DWIDTH 24 0
BBX 20 14 2 4
BITMAP
00001C0007
0001BC006F
000BF402FD
007FD01FE0
06FE01BF80
2FF40BFD00
7FD01FF400
7F801FE000
2FE00BF800
0BF402FD00
02FD00BF40
00BF402FD0
002FC00BF0
000B8002E0
ENDCHAR
STARTCHAR logicalnot
ENCODING 172
SWIDTH 729 0
DWIDTH 26 0
BBX 20 12 3 2
BITMAP
6FFFFFFFFE
FFFFFFFFFF
FFFFFFFFFF
000000003F
000000003F
000000007F
000000007F
000000007F
000000007E
000000007E
000000007E
0000000078
ENDCHAR
STARTCHAR uni00AD
ENCODING 173
SWIDTH 833 0
DWIDTH 30 0
BBX 1 1 0 0
BITMAP
00
ENDCHAR
STARTCHAR registered
ENCODING 174
SWIDTH 742 0
DWIDTH 27 0
BBX 23 23 3 4
BITMAP
00001BFE4000
0002FFFFF800
001FE501BE00
007F40001F80
01F81AA407E0
03E1FFFF42F0
0BC3F96F81F4
1F41940BC0F8
2F003D0BC0B8
3D00BC1F80B8
7C00F97F00B8
7C01FFF800F8
BC02FFD000F4
BC02F3D001F0
BC07E2F003E0
7C0BC1F807D0
7D0F40BF0F80
3F0900193F40
1F800001FD00
0BE0000BF400
02FE55BFD000
007FFFFE0000
0006FF900000
ENDCHAR
STARTCHAR macron
ENCODING 175
SWIDTH 392 0
DWIDTH 14 0
BBX 13 3 2 21
BITMAP
1FFFFFC0
7FFFFF80
7FFFFE00
ENDCHAR
STARTCHAR degree
ENCODING 176
SWIDTH 405 0
DWIDTH 15 0
BBX 12 11 4 16
BITMAP
00AFE0
07FFF8
1FE1FD
3F80BE
BF00BE
FE00FD
FD01FC
FD03F8
BE1BF0
7FFF80
1BF900
ENDCHAR
STARTCHAR plusminus
ENCODING 177
SWIDTH 617 0
DWIDTH 22 0
BBX 18 23 2 0
BITMAP
0000740000
0000F80000
0000F80000
0000F80000
0000F80000
0000F80000
0000F80000
2FFFFFFFF0
7FFFFFFFE0
0000F80000
0000F80000
0000F80000
0000F80000
0000F80000
0000F80000
0000F80000
0000F40000
0000A00000
0000000000
0000000000
0000000000
2FFFFFFFF0
7FFFFFFFE0
ENDCHAR
STARTCHAR twosuperior
ENCODING 178
SWIDTH 458 0
DWIDTH 16 0
BBX 14 19 3 8
BITMAP
000BF900
007FFFC0
01FD0BE0
02F807F0
03F407F0
03F40BF0
03FC0FE0
01F82FD0
0010BFC0
0002FF40
000BFD00
002FE000
01FF4000
07FD0000
1FE00000
7F401A00
FFBFFD00
FFFFFC00
B95AE400
ENDCHAR
STARTCHAR threesuperior
ENCODING 179
SWIDTH 430 0
DWIDTH 16 0
BBX 15 19 2 8
BITMAP
0001BE80
000BFFF0
002F47F8
007E02FC
00BD02FC
00BE02FC
007E07F8
00041FF0
0001BFC0
000BFE00
001FF800
0006FE00
0100BF00
1F807F00
3F40BF00
7F01FD00
3F07F800
1FEFE000
06FE4000
ENDCHAR
STARTCHAR acute
ENCODING 180
SWIDTH 322 0
DWIDTH 12 0
BBX 8 9 3 20
BITMAP
0014
007E
00BF
00FF
02FE
07F8
0FE0
3F80
B900
ENDCHAR
STARTCHAR mu
ENCODING 181
SWIDTH 618 0
DWIDTH 22 0
BBX 23 28 -1 -10
BITMAP
00007D0002E0
0000FE000BF4
0002FD001FE0
0007F8002FD0
000FF4007FC0
001FE000FF40
003FD002FF00
007FC003FE00
00BF400BFC00
00FF001FF800
02FE003FF400
03FD00BFF000
07FC01FBE000
0BFC07DFE000
0FFD2F4FF040
1FFFFD0BFFC0
2FFFF407FF40
2FAF8002FD00
3F4000000000
7F0000000000
7E0000000000
BE0000000000
BE0000000000
FD0000000000
FD0000000000
FD0000000000
FC0000000000
780000000000
ENDCHAR
STARTCHAR paragraph
ENCODING 182
SWIDTH 739 0
DWIDTH 27 0
BBX 30 31 1 -2
BITMAP
000000006AFFFFD0
0000001BFFFFFFD0
000002FFFFFFFE40
00001FFFFE43F800
0000BFFFFC07F400
0002FFFFF40BF000
0007FFFFF00FF000
000BFFFFE01FE000
000FFFFFD01FD000
000FFFFFC02FC000
001FFFFFC03F8000
000FFFFF807F4000
000BFFFF407F0000
0003FFFF40BF0000
0000FFFF00FE0000
00002FFE01FD0000
000003FD02FC0000
000003FC03F80000
000007FC07F00000
00000BF80BE00000
00000FF00BD00000
00001FE00FC00000
00002FD02F800000
0BE03FC03F400000
2FF07F407F000000
BFC0BF00BD000000
FF41FD00FC000000
FE03F801F8000000
BE0BE003F0000000
7FFF8007D0000000
1BF9000B40000000
ENDCHAR
STARTCHAR periodcentered
ENCODING 183
SWIDTH 353 0
DWIDTH 13 0
BBX 6 6 4 9
BITMAP
2F90
7FF0
BFF0
BFE0
2FC0
0500
ENDCHAR
STARTCHAR cedilla
ENCODING 184
SWIDTH 301 0
DWIDTH 11 0
BBX 7 9 2 -8
BITMAP
0780
02D0
01F0
01F4
02F4
07F4
6FF0
7FD0
2F40
ENDCHAR
STARTCHAR onesuperior
ENCODING 185
SWIDTH 403 0
DWIDTH 15 0
BBX 11 19 4 8
BITMAP
0007E0
001FF4
007FF4
02FFF4
1FFFF0
7F9FE0
141FD0
002FC0
003F80
00BF00
00FE00
01FD00
02F800
07F400
0BE000
1FC000
3F4000
7D0000
140000
ENDCHAR
STARTCHAR ordmasculine
ENCODING 186
SWIDTH 498 0
DWIDTH 18 0
BBX 14 16 4 10
BITMAP
0006F900
007FFF80
01FE1FD0
07F80BE0
0FF00BF0
2FD00BF0
7F800BF0
BF400FE0
FF001FD0
FE002FC0
FD007F80
FD00FF00
FD02FD00
BE1BF400
3FFFD000
0BF90000
ENDCHAR
STARTCHAR guillemotright
ENCODING 187
SWIDTH 665 0
DWIDTH 24 0
BBX 20 14 2 4
BITMAP
0B8002E000
0FF003FC00
07FC01FF00
01FF007FC0
007FC01FE0
001FE007F8
000BF802FE
000BF802FE
007FE01FF8
01FF407FD0
0BF802FE00
2F800FE000
BD002F4000
E000380000
ENDCHAR
STARTCHAR onequarter
ENCODING 188
SWIDTH 988 0
DWIDTH 36 0
BBX 30 29 3 0
BITMAP
0000000000780000
0000000001F80000
0002E00007F40000
000BF8000BE00000
007FF8001FC00000
01FFF8003F400000
1BFFF400BF000000
7FDBF000FD000000
190FE002F8000000
001FD007F0000000
003F800BE0790000
007F401FC07F0000
00BF003F40BF0000
00FD00BE00FF0000
02FC00FD01FE0000
03F402F802FC0A40
0BE007F007F80FD0
0FD00BE00BF01FD0
2F401FC01FE02FC0
3D003F403FC03F40
1000BE007F40BF40
0000FD003FFFFFD0
0002F8001FFFFFE0
0007F0000157F800
000BD0000007F000
001FC000000BD000
003F4000001F8000
00BE0000003E0000
00B8000000380000
ENDCHAR
STARTCHAR onehalf
ENCODING 189
SWIDTH 988 0
DWIDTH 36 0
BBX 30 29 4 0
BITMAP
0000000001E00000
0000000007E00000
000B80001FD00000
002FE0002F800000
00BFE0007F000000
07FFE000FD000000
1FFFD002FC000000
FFAFC003F4000000
B93F800BE0000000
007F401FC0000000
00BE002F80000000
00FD007F002BF800
02FC00FD01FFFF40
03F402F807F82FC0
07F003F40BE00FD0
0FD00BE00FE00FD0
2F801FC00BF41FD0
3F402F8002E03FC0
BD007F000000BF80
F400FD000002FE00
4002F800000BF800
0003F400007FE000
000BE00001FF4000
001FC0000BF80000
002F40002FD00000
007F0000BF006800
00FD0002FEFFF800
02F80003FFFFF400
02E00001FFFFD000
ENDCHAR
STARTCHAR threequarters
ENCODING 190
SWIDTH 1007 0
DWIDTH 36 0
BBX 33 29 1 0
BITMAP
000000000000B80000
000000000002F80000
0002FE400007F00000
001FFFE0000FD00000
007F47F4002F800000
00BD03F8007F400000
00FC03F800BE000000
00FD07F801FC000000
00BD0BF003F4000000
00002FE007F0000000
0006FF800FD0640000
001FF9002F80BD0000
002FF8007F40BD0000
0005FD00BE00FD0000
0500FE01FC01FC0000
3F40FE03F402F81D00
7E00FE0BE007F42F40
BE02FC0FD00BE03F40
7F0BF42F801FD07F00
2FFF807F003F80BE00
06A900BE007F00FD00
000001FC00BE56FD00
000003F4003FFFFF00
00000BE0001BFFFA40
00000FD000000BD000
00002F8000000F8000
00007F0000002F0000
0000BD0000007D0000
0000F4000000A00000
ENDCHAR
STARTCHAR questiondown
ENCODING 191
SWIDTH 516 0
DWIDTH 19 0
BBX 17 27 0 -7
BITMAP
0000007E00
000001FF40
000003FF80
000003FF80
000001BE00
0000000000
0000004000
000001E000
000003E000
00000BE000
00002FD000
0000BFC000
0002FF4000
001FFD0000
00BFF40000
02FFC00000
0BFE000000
2FF8000000
3FD02E0000
BF40BF4000
BE00BF8000
FD007F8000
BD007F4000
BD00FF0000
3F46FD0000
1FFFF40000
06FE400000
ENDCHAR
STARTCHAR Agrave
ENCODING 192
SWIDTH 615 0
DWIDTH 22 0
BBX 27 35 -3 0
BITMAP
0000000001B000
0000000003F400
0000000003F800
0000000003FD00
0000000001FF40
00000000002FC0
00000000000140
00000000000000
00000000001BF0
0000000001FFF4
000000000BFFF0
000000002F8BE0
00000000FD1FD0
00000003F42FC0
0000000BD03F80
0000002F40BF40
0000007E00FF00
000000FC01FE00
000002F402FD00
000007E003FC00
00000FD007F400
00002FEBFFFFD0
0001BFFFFFFFC0
000FFFFFFFFE40
001AF8002FD000
0003F4003FC000
000BE0007F8000
000FC0007F4000
002F8000BF0000
007F0000BF0000
00FD0000FF0000
03FC0000FF4500
1FF40000BFFD00
BFD000007FF800
7E4000001FE000
ENDCHAR
STARTCHAR Aacute
ENCODING 193
SWIDTH 615 0
DWIDTH 22 0
BBX 29 35 -3 0
BITMAP
0000000000002E00
0000000000003F40
000000000000BF40
000000000001FF00
000000000007F800
00000000001FD000
0000000000050000
0000000000000000
00000000001BF000
0000000001FFF400
000000000BFFF000
000000002F8BE000
00000000FD1FD000
00000003F42FC000
0000000BD03F8000
0000002F40BF4000
0000007E00FF0000
000000FC01FE0000
000002F402FD0000
000007E003FC0000
00000FD007F40000
00002FEBFFFFD000
0001BFFFFFFFC000
000FFFFFFFFE4000
001AF8002FD00000
0003F4003FC00000
000BE0007F800000
000FC0007F400000
002F8000BF000000
007F0000BF000000
00FD0000FF000000
03FC0000FF450000
1FF40000BFFD0000
BFD000007FF80000
7E4000001FE00000
ENDCHAR
STARTCHAR Acircumflex
ENCODING 194
SWIDTH 615 0
DWIDTH 22 0
BBX 29 35 -3 0
BITMAP
0000000000009000
000000000007F400
00000000001FF800
0000000000BFFD00
000000001BF8FF00
000000003FD07F80
0000000005000500
0000000000000000
00000000001BF000
0000000001FFF400
000000000BFFF000
000000002F8BE000
00000000FD1FD000
00000003F42FC000
0000000BD03F8000
0000002F40BF4000
0000007E00FF0000
000000FC01FE0000
000002F402FD0000
000007E003FC0000
00000FD007F40000
00002FEBFFFFD000
0001BFFFFFFFC000
000FFFFFFFFE4000
001AF8002FD00000
0003F4003FC00000
000BE0007F800000
000FC0007F400000
002F8000BF000000
007F0000BF000000
00FD0000FF000000
03FC0000FF450000
1FF40000BFFD0000
BFD000007FF80000
7E4000001FE00000
ENDCHAR
STARTCHAR Atilde
ENCODING 195
SWIDTH 615 0
DWIDTH 22 0
BBX 31 35 -3 0
BITMAP
0000000001BD0030
0000000007FF40B4
000000001FFFD2F0
000000003D2FFFD0
00000000780BFF40
000000007002F800
0000000000000000
0000000000000000
00000000001BF000
0000000001FFF400
000000000BFFF000
000000002F8BE000
00000000FD1FD000
00000003F42FC000
0000000BD03F8000
0000002F40BF4000
0000007E00FF0000
000000FC01FE0000
000002F402FD0000
000007E003FC0000
00000FD007F40000
00002FEBFFFFD000
0001BFFFFFFFC000
000FFFFFFFFE4000
001AF8002FD00000
0003F4003FC00000
000BE0007F800000
000FC0007F400000
002F8000BF000000
007F0000BF000000
00FD0000FF000000
03FC0000FF450000
1FF40000BFFD0000
BFD000007FF80000
7E4000001FE00000
ENDCHAR
STARTCHAR Adieresis
ENCODING 196
SWIDTH 615 0
DWIDTH 22 0
BBX 30 34 -3 0
BITMAP
000000001B901BD0
000000003FF03FF0
000000007FF07FF0
000000003FE03FE0
000000001F801F80
0000000000000000
0000000000000000
00000000001BF000
0000000001FFF400
000000000BFFF000
000000002F8BE000
00000000FD1FD000
00000003F42FC000
0000000BD03F8000
0000002F40BF4000
0000007E00FF0000
000000FC01FE0000
000002F402FD0000
000007E003FC0000
00000FD007F40000
00002FEBFFFFD000
0001BFFFFFFFC000
000FFFFFFFFE4000
001AF8002FD00000
0003F4003FC00000
000BE0007F800000
000FC0007F400000
002F8000BF000000
007F0000BF000000
00FD0000FF000000
03FC0000FF450000
1FF40000BFFD0000
BFD000007FF80000
7E4000001FE00000
ENDCHAR
STARTCHAR Aring
ENCODING 197
SWIDTH 615 0
DWIDTH 22 0
BBX 29 35 -3 0
BITMAP
00000000001BF800
00000000007FFE00
0000000001FD3F40
0000000003F42F40
0000000007F02F40
0000000007E02F00
0000000003E07E00
0000000002F4F800
00000000007FF000
0000000001FFF400
000000000BEBF000
000000002F4FE000
00000000FC1FD000
00000003F02FC000
0000000BC07F8000
0000002F40BF4000
0000007E00FF0000
000000FC01FE0000
000002F402FD0000
000007E003FC0000
00000FD007F40000
00002FEBFFFFD000
0001BFFFFFFFC000
000FFFFFFFFE4000
001AF8002FD00000
0003F4003FC00000
000BE0007F800000
000FC0007F400000
002F8000BF000000
007F0000BF000000
00FD0000FF000000
03FC0000FF450000
1FF40000BFFD0000
BFD000007FF80000
7E4000001FE00000
ENDCHAR
STARTCHAR AE
ENCODING 198
SWIDTH 878 0
DWIDTH 32 0
BBX 38 27 -3 0
BITMAP
00000000006FE5AFE800
0000000002FFFFFFFF40
000000000FFFFFF50BC0
000000007FD2FF8007D0
00000000FF07FD000BD0
00000003F81FF8001FD0
0000000BF02FE0007FC0
0000002FD03FD002FF40
0000007F407F800FFE00
000000FE00BF400FF800
000002FC007F4007D000
000007F4007F40000000
00000FE0003F80000000
00002FEAFFFFEBD00000
0001BFFFFFFFFFF00000
000BFFFFFFFFFE400000
000BFC0000BFE0000000
0007F40002FF80000000
000BE00007FE00000000
001FD0000BF800000000
003F80000FF400050000
00BF00001FF0001F0000
01FE00001FF0007F0000
03FC00000FF402FE0000
1FF4000007FEAFF80000
7FD0000002FFFFD00000
6E400000006FF9000000
ENDCHAR
STARTCHAR Ccedilla
ENCODING 199
SWIDTH 533 0
DWIDTH 19 0
BBX 20 35 2 -8
BITMAP
000001BF90
00001FFFF8
0000BFD07D
0002FE003E
000FF4003F
002FE000BF
00BF8000FE
01FF0002FE
03FD000BFC
0BF8007FF8
0FF400BFE0
1FE0007F80
3FD0000500
7FC0000000
7F80000000
BF40000000
FF40000000
FF00000000
FF00000000
FF00000000
FF00000000
FF40000000
BF40007400
7F8002F400
2FE06FF400
0BFFFF9000
01FFE50000
007C000000
003D000000
003E000000
00BE000000
01FD000000
0FFC000000
0FF4000000
07D0000000
ENDCHAR
STARTCHAR Egrave
ENCODING 200
SWIDTH 509 0
DWIDTH 18 0
BBX 20 35 1 0
BITMAP
000000B000
000003F400
000003FC00
000003FD00
000001FF40
0000002FC0
0000000140
0000000000
000006BF90
00006FFFFC
0002FF907E
000BFD002F
002FF4003F
007FD000BF
00FF8002FE
01FF001FFC
02FD007FF4
02FC007FD0
03FC002E40
02FC000000
01FD000000
00BF6A0000
002FFF8000
007FFE4000
02FFD00000
0BFE000000
1FF8000000
3FE0000000
7FC0000000
BF80007400
BF8001F800
7F8007F400
2FD06FE000
0BFFFF4000
01BFE40000
ENDCHAR
STARTCHAR Eacute
ENCODING 201
SWIDTH 509 0
DWIDTH 18 0
BBX 21 35 1 0
BITMAP
000000002E00
000000003F40
00000000BF40
00000001FF00
00000007F800
0000001FD000
000000050000
000000000000
000006BF9000
00006FFFFC00
0002FF907E00
000BFD002F00
002FF4003F00
007FD000BF00
00FF8002FE00
01FF001FFC00
02FD007FF400
02FC007FD000
03FC002E4000
02FC00000000
01FD00000000
00BF6A000000
002FFF800000
007FFE400000
02FFD0000000
0BFE00000000
1FF800000000
3FE000000000
7FC000000000
BF8000740000
BF8001F80000
7F8007F40000
2FD06FE00000
0BFFFF400000
01BFE4000000
ENDCHAR
STARTCHAR Ecircumflex
ENCODING 202
SWIDTH 509 0
DWIDTH 18 0
BBX 21 35 1 0
BITMAP
000000009000
00000007F400
0000001FF800
000000BFFD00
00000BF8FF00
00003FD07F80
000005000500
000000000000
000006BF9000
00006FFFFC00
0002FF907E00
000BFD002F00
002FF4003F00
007FD000BF00
00FF8002FE00
01FF001FFC00
02FD007FF400
02FC007FD000
03FC002E4000
02FC00000000
01FD00000000
00BF6A000000
002FFF800000
007FFE400000
02FFD0000000
0BFE00000000
1FF800000000
3FE000000000
7FC000000000
BF8000740000
BF8001F80000
7F8007F40000
2FD06FE00000
0BFFFF400000
01BFE4000000
ENDCHAR
STARTCHAR Edieresis
ENCODING 203
SWIDTH 509 0
DWIDTH 18 0
BBX 22 34 1 0
BITMAP
00001BD01BD0
00003FF03FF0
00007FF07FF0
00003FE03FE0
00001F801F80
000000000000
000000000000
000006BF9000
00006FFFFC00
0002FF907E00
000BFD002F00
002FF4003F00
007FD000BF00
00FF8002FE00
01FF001FFC00
02FD007FF400
02FC007FD000
03FC002E4000
02FC00000000
01FD00000000
00BF6A000000
002FFF800000
007FFE400000
02FFD0000000
0BFE00000000
1FF800000000
3FE000000000
7FC000000000
BF8000740000
BF8001F80000
7F8007F40000
2FD06FE00000
0BFFFF400000
01BFE4000000
ENDCHAR
STARTCHAR Igrave
ENCODING 204
SWIDTH 327 0
DWIDTH 12 0
BBX 15 35 -1 0
BITMAP
00002D00
0000BE00
0000FF00
0000BF80
00003FD0
00000BF4
00000050
00000000
001AFE00
003FFFC0
002E5FD0
00001FD0
00002FD0
00002FD0
00003FC0
00007F80
00007F80
0000BF40
0000FF00
0001FE00
0002FD00
0003FC00
0007F800
000BF400
000FF000
001FE000
002FD000
007F8000
00BF4000
01FE0000
02FC0000
07F40000
1FE00000
7F800000
3D000000
ENDCHAR
STARTCHAR Iacute
ENCODING 205
SWIDTH 327 0
DWIDTH 12 0
BBX 18 35 -1 0
BITMAP
0000000B80
0000000FD0
0000001FE0
0000007FC0
000000FF40
000003F800
0000014000
0000000000
001AFE0000
003FFFC000
002E5FD000
00001FD000
00002FD000
00002FD000
00003FC000
00007F8000
00007F8000
0000BF4000
0000FF0000
0001FE0000
0002FD0000
0003FC0000
0007F80000
000BF40000
000FF00000
001FE00000
002FD00000
007F800000
00BF400000
01FE000000
02FC000000
07F4000000
1FE0000000
7F80000000
3D00000000
ENDCHAR
STARTCHAR Icircumflex
ENCODING 206
SWIDTH 327 0
DWIDTH 12 0
BBX 18 35 -1 0
BITMAP
0000002800
000000FE00
000007FF00
00002FFF40
0002FE2FC0
000BF40FE0
0001400150
0000000000
001AFE0000
003FFFC000
002E5FD000
00001FD000
00002FD000
00002FD000
00003FC000
00007F8000
00007F8000
0000BF4000
0000FF0000
0001FE0000
0002FD0000
0003FC0000
0007F80000
000BF40000
000FF00000
001FE00000
002FD00000
007F800000
00BF400000
01FE000000
02FC000000
07F4000000
1FE0000000
7F80000000
3D00000000
ENDCHAR
STARTCHAR Idieresis
ENCODING 207
SWIDTH 327 0
DWIDTH 12 0
BBX 20 34 -1 0
BITMAP
0006F402F4
000FFC0FFD
000FFC0FFD
000FF80FFC
0007E007F4
0000400040
0000000000
001AFE0000
003FFFC000
002E5FD000
00001FD000
00002FD000
00002FD000
00003FC000
00007F8000
00007F8000
0000BF4000
0000FF0000
0001FE0000
0002FD0000
0003FC0000
0007F80000
000BF40000
000FF00000
001FE00000
002FD00000
007F800000
00BF400000
01FE000000
02FC000000
07F4000000
1FE0000000
7F80000000
3D00000000
ENDCHAR
STARTCHAR Eth
ENCODING 208
SWIDTH 630 0
DWIDTH 23 0
BBX 22 27 1 0
BITMAP
0016BFE90000
01FFFFFFE000
0BFFFFFFFD00
0BFF5006FF40
02F400007FC0
000050002FD0
0007FC001FE0
000BF8000FF0
001FF4000BF0
002FE0000BF0
007FC0000FF0
2FFFFFD00FE0
BFFFFFD01FE0
BFFFFF802FD0
03FD00003FC0
07F80000BF40
0BF40001FF00
0FF00003FD00
1FE0000BF800
2FD0002FE000
3FC0007FC000
7F8002FF0000
7F400BFC0000
BF407FE00000
7F46FF400000
2FFFF8000000
06FE40000000
ENDCHAR
STARTCHAR Ntilde
ENCODING 209
SWIDTH 708 0
DWIDTH 25 0
BBX 29 34 0 0
BITMAP
000000000BE40280
000000007FFE0B80
00000001FFFFFF00
00000002E0BFFD00
00000002801FE000
0000000000000000
0000000000000000
000001BD0007E400
000007FD000FFC00
00001FFD0007FE00
00007FFC0002FE00
0000FFFC0002FF00
0002F7F80001FE00
0007E3F80002FE00
000BD3F80002FD00
001F83F80003FC00
002F43FC0007F400
007F03FC000BF000
00BD03FC000FD000
00FC03FD001FC000
01F802FD002F4000
02F402FE007F0000
03F001FE00BD0000
07E001FF00F80000
0BD000FF02F40000
0FD000BF43E00000
1FC0007F87C00000
2F80007FCF800000
3F40003FEF000000
3F40001FFE000000
7F00000FFD000000
7F000007FC000000
7E000002FC000000
2D000000B8000000
ENDCHAR
STARTCHAR Ograve
ENCODING 210
SWIDTH 655 0
DWIDTH 24 0
BBX 22 35 2 0
BITMAP
0000000B4000
0000002F8000
0000003FC000
0000002FE000
0000000BF400
00000002FD00
000000001400
000000000000
000001AFE400
00001BFFFE00
00007FE06F80
0002FF400FD0
000BFC000BE0
002FF0000BF0
007FD0000BF0
00FF80000BF0
02FF00000BF0
07FD00000FF0
0BF800001FF0
0FF400001FE0
2FE000002FD0
2FD000003FC0
3FC00000BF80
7F800000FF40
BF400001FF00
BF400003FD00
BF00000BFC00
BF00001FF400
BF00003FE000
BF0000BF8000
7F0002FE0000
3F400BF80000
1FD07FE00000
07FFFE400000
00BFE4000000
ENDCHAR
STARTCHAR Oacute
ENCODING 211
SWIDTH 655 0
DWIDTH 24 0
BBX 23 35 2 0
BITMAP
0000000001E0
0000000003F8
0000000007F8
000000000FF4
000000002FD0
00000000FE00
000000005000
000000000000
000001AFE400
00001BFFFE00
00007FE06F80
0002FF400FD0
000BFC000BE0
002FF0000BF0
007FD0000BF0
00FF80000BF0
02FF00000BF0
07FD00000FF0
0BF800001FF0
0FF400001FE0
2FE000002FD0
2FD000003FC0
3FC00000BF80
7F800000FF40
BF400001FF00
BF400003FD00
BF00000BFC00
BF00001FF400
BF00003FE000
BF0000BF8000
7F0002FE0000
3F400BF80000
1FD07FE00000
07FFFE400000
00BFE4000000
ENDCHAR
STARTCHAR Ocircumflex
ENCODING 212
SWIDTH 655 0
DWIDTH 24 0
BBX 23 35 2 0
BITMAP
000000000A00
000000002F80
00000001FFC0
0000000BFFE0
0000007F9BF4
000002FD03FC
000000500054
000000000000
000001AFE400
00001BFFFE00
00007FE06F80
0002FF400FD0
000BFC000BE0
002FF0000BF0
007FD0000BF0
00FF80000BF0
02FF00000BF0
07FD00000FF0
0BF800001FF0
0FF400001FE0
2FE000002FD0
2FD000003FC0
3FC00000BF80
7F800000FF40
BF400001FF00
BF400003FD00
BF00000BFC00
BF00001FF400
BF00003FE000
BF0000BF8000
7F0002FE0000
3F400BF80000
1FD07FE00000
07FFFE400000
00BFE4000000
ENDCHAR
STARTCHAR Otilde
ENCODING 213
SWIDTH 655 0
DWIDTH 24 0
BBX 25 35 2 0
BITMAP
0000000BE00240
0000007FF80740
000001FFFE1F00
000002E1FFFD00
000003807FF800
000003401F9000
00000000000000
00000000000000
000001AFE40000
00001BFFFE0000
00007FE06F8000
0002FF400FD000
000BFC000BE000
002FF0000BF000
007FD0000BF000
00FF80000BF000
02FF00000BF000
07FD00000FF000
0BF800001FF000
0FF400001FE000
2FE000002FD000
2FD000003FC000
3FC00000BF8000
7F800000FF4000
BF400001FF0000
BF400003FD0000
BF00000BFC0000
BF00001FF40000
BF00003FE00000
BF0000BF800000
7F0002FE000000
3F400BF8000000
1FD07FE0000000
07FFFE40000000
00BFE400000000
ENDCHAR
STARTCHAR Odieresis
ENCODING 214
SWIDTH 655 0
DWIDTH 24 0
BBX 25 34 2 0
BITMAP
000000BD00BE00
000003FF42FF40
000003FF43FF40
000003FF02FF00
000001FD00FD00
00000010001000
00000000000000
000001AFE40000
00001BFFFE0000
00007FE06F8000
0002FF400FD000
000BFC000BE000
002FF0000BF000
007FD0000BF000
00FF80000BF000
02FF00000BF000
07FD00000FF000
0BF800001FF000
0FF400001FE000
2FE000002FD000
2FD000003FC000
3FC00000BF8000
7F800000FF4000
BF400001FF0000
BF400003FD0000
BF00000BFC0000
BF00001FF40000
BF00003FE00000
BF0000BF800000
7F0002FE000000
3F400BF8000000
1FD07FE0000000
07FFFE40000000
00BFE400000000
ENDCHAR
STARTCHAR multiply
ENCODING 215
SWIDTH 573 0
DWIDTH 21 0
BBX 16 14 3 5
BITMAP
3D00002D
3F4000FD
1FD003F4
07F40FD0
01FD3F40
007FFD00
001FF400
001FF400
007FFC00
01FD7F00
07F41FC0
1FD007F0
7F4001FC
7D000078
ENDCHAR
STARTCHAR Oslash
ENCODING 216
SWIDTH 655 0
DWIDTH 24 0
BBX 23 33 3 -3
BITMAP
0000000001F8
0000000007F8
000000001FE0
0000006FFF80
00000BFFFF40
00007FE4FFC0
0001FF42FFE0
000BFC07EBF0
001FF40BCBF0
007FD01F47F4
00BF803E0BF4
01FF00BC0BF4
03FD00F40FF0
0BFC02E00FF0
0FF407C01FE0
1FF00B402FE0
2FE01E003FD0
3FC03D007FC0
7FC0B800FF40
7F80F001FF00
BF42D003FE00
BF47C007FC00
BF0F400FF400
BF2E002FE000
BF7D00BF8000
7FF801FF0000
3FF00BF80000
1FE06FE00000
0FFFFF400000
2FAFE4000000
3E0000000000
7C0000000000
740000000000
ENDCHAR
STARTCHAR Ugrave
ENCODING 217
SWIDTH 624 0
DWIDTH 22 0
BBX 25 35 0 0
BITMAP
0000000B400000
0000002F800000
0000003FC00000
0000002FE00000
0000000FF40000
00000002FD0000
00000000140000
00000000000000
0002FD00001E40
0007FF00003FC0
0002FF00007F80
0000FF0000FF00
0001FE0001FE00
0002FD0003FD00
0003FC0007FC00
000BF8000FF400
000FF0002FF000
001FE0003FE000
003FD000BFD000
007F8000FFC000
00BF4002FF8000
00FE0007FF4000
02FD000BFF0000
03FC001FFE0000
07F4003FFD0000
0BF000BEFC0000
1FE001F6F80000
2FD003E3F80000
3FC00BC7F40000
3F801F47F40000
7F807D0BF00000
7FC2F40BF45000
3FFFD007FFE000
2FFF4003FFD000
0BF40001BE0000
ENDCHAR
STARTCHAR Uacute
ENCODING 218
SWIDTH 624 0
DWIDTH 22 0
BBX 25 35 0 0
BITMAP
0000000001E000
0000000003F800
0000000007F800
000000000FF000
000000003FD000
00000000FE0000
00000000500000
00000000000000
0002FD00001E40
0007FF00003FC0
0002FF00007F80
0000FF0000FF00
0001FE0001FE00
0002FD0003FD00
0003FC0007FC00
000BF8000FF400
000FF0002FF000
001FE0003FE000
003FD000BFD000
007F8000FFC000
00BF4002FF8000
00FE0007FF4000
02FD000BFF0000
03FC001FFE0000
07F4003FFD0000
0BF000BEFC0000
1FE001F6F80000
2FD003E3F80000
3FC00BC7F40000
3F801F47F40000
7F807D0BF00000
7FC2F40BF45000
3FFFD007FFE000
2FFF4003FFD000
0BF40001BE0000
ENDCHAR
STARTCHAR Ucircumflex
ENCODING 219
SWIDTH 624 0
DWIDTH 22 0
BBX 25 35 0 0
BITMAP
000000000A0000
000000002F8000
00000001FFC000
0000000BFFE000
0000007F8BF400
000002FD03F800
00000050005400
00000000000000
0002FD00001E40
0007FF00003FC0
0002FF00007F80
0000FF0000FF00
0001FE0001FE00
0002FD0003FD00
0003FC0007FC00
000BF8000FF400
000FF0002FF000
001FE0003FE000
003FD000BFD000
007F8000FFC000
00BF4002FF8000
00FE0007FF4000
02FD000BFF0000
03FC001FFE0000
07F4003FFD0000
0BF000BEFC0000
1FE001F6F80000
2FD003E3F80000
3FC00BC7F40000
3F801F47F40000
7F807D0BF00000
7FC2F40BF45000
3FFFD007FFE000
2FFF4003FFD000
0BF40001BE0000
ENDCHAR
STARTCHAR Udieresis
ENCODING 220
SWIDTH 624 0
DWIDTH 22 0
BBX 25 34 0 0
BITMAP
000000BD00BD00
000003FF42FF40
000003FF43FF40
000003FF02FF00
000001FD01FD00
00000010001000
00000000000000
0002FD00001E40
0007FF00003FC0
0002FF00007F80
0000FF0000FF00
0001FE0001FE00
0002FD0003FD00
0003FC0007FC00
000BF8000FF400
000FF0002FF000
001FE0003FE000
003FD000BFD000
007F8000FFC000
00BF4002FF8000
00FE0007FF4000
02FD000BFF0000
03FC001FFE0000
07F4003FFD0000
0BF000BEFC0000
1FE001F6F80000
2FD003E3F80000
3FC00BC7F40000
3F801F47F40000
7F807D0BF00000
7FC2F40BF45000
3FFFD007FFE000
2FFF4003FFD000
0BF40001BE0000
ENDCHAR
STARTCHAR Yacute
ENCODING 221
SWIDTH 580 0
DWIDTH 21 0
BBX 25 45 0 -10
BITMAP
00000000014000
0000000003F000
0000000007F400
000000000FF400
000000002FD000
00000000BF4000
00000001E40000
00000000000000
0002F900001E40
0007FF00003F80
0002FF00007F80
0001FE0000FF00
0001FE0002FE00
0002FD0003FC00
0007F8000BF800
000BF4000FF400
000FF0002FF000
002FE0007FE000
003FC000BFD000
007F8001FFC000
00BF4002FF8000
01FE0007FF4000
02FD000FFE0000
03F8001FFD0000
0BF4003FFC0000
0FF000BFF80000
1FE001F7F40000
2FC003EBF00000
3FC00B8FE00000
7F802F1FD00000
7F807D3F800000
7F82F47F400000
7FFFD0BF000000
2FFF41FD000000
0BE403FC000000
000007F4000000
00000FE0000000
00002FC0000000
0000BF40000000
0001FD00000000
0007F800000000
001FE000000000
00BF8000000000
0BFD0000000000
0BA00000000000
ENDCHAR
STARTCHAR Thorn
ENCODING 222
SWIDTH 527 0
DWIDTH 19 0
BBX 22 27 -2 0
BITMAP
001BFE000000
007FFFC00000
002E6FC00000
00002FC00000
00003FC00000
00003FC00000
00007F800000
0000BFFE9000
0000BFFFF900
0000FF40BF40
0001FE002FC0
0002FD001FD0
0003FC001FD0
0007F8002FD0
000BF4003FC0
000FF000BF80
001FE007FF00
002FD06FFD00
003FEFFFE000
00BFFFFE0000
00FF55400000
02FD00000000
03F800000000
0BF400000000
2FD000000000
BF4000000000
790000000000
ENDCHAR
STARTCHAR germandbls
ENCODING 223
SWIDTH 520 0
DWIDTH 19 0
BBX 22 34 -2 -5
BITMAP
0000002FE800
000001FFFF00
000007F91F80
00000FE00FD0
00002FC00FD0
00007F400FD0
0000BF001FD0
0000FE002FC0
0001FD007F80
0003FC01FF00
0007F803FD00
0007F40BF400
000BF02FD000
000FE07F4000
001FD0BE0000
002FD0FD0000
003FC1FD0000
003F80FE0000
007F40FF4000
00BF40BFC000
00FF003FE000
00FE001FF400
01FD000BFC00
02FC1902FD00
03FC3E00FD00
07F87F00FC00
0BF47F96F800
0FF02FFFE000
1FE006FE4000
2FD000000000
3FC000000000
7F4000000000
BE0000000000
140000000000
ENDCHAR
STARTCHAR agrave
ENCODING 224
SWIDTH 541 0
DWIDTH 20 0
BBX 19 28 1 0
BITMAP
00000BC000
00002FD000
00003FC000
00002FC000
00001FC000
00000FD000
000007E000
000001F000
0000005000
0000000000
0000BF82E0
000BFFEBF4
002FD0BFF0
00BF007FD0
02FC007FC0
07F400BF40
0FE000FF00
2FD001FE00
3FC003FC00
7F8007F800
BF400FF400
BF402FF000
BF007FF000
BF00FBF000
BF47EBF990
7FFF87FFC0
2FFE03FF40
07F400B900
ENDCHAR
STARTCHAR aacute
ENCODING 225
SWIDTH 541 0
DWIDTH 20 0
BBX 19 28 1 0
BITMAP
0000002E00
0000003F40
0000007F80
000000BF40
000001FE00
000007F800
00000FE000
00003F4000
0000140000
0000000000
0000BF82E0
000BFFEBF4
002FD0BFF0
00BF007FD0
02FC007FC0
07F400BF40
0FE000FF00
2FD001FE00
3FC003FC00
7F8007F800
BF400FF400
BF402FF000
BF007FF000
BF00FBF000
BF47EBF990
7FFF87FFC0
2FFE03FF40
07F400B900
ENDCHAR
STARTCHAR acircumflex
ENCODING 226
SWIDTH 541 0
DWIDTH 20 0
BBX 19 28 1 0
BITMAP
0000000500
0000002F40
000000BF80
000007FFC0
00001FDFD0
0001BF4FE0
000BF807F0
000B9002F0
0000000000
0000000000
0000BF82E0
000BFFEBF4
002FD0BFF0
00BF007FD0
02FC007FC0
07F400BF40
0FE000FF00
2FD001FE00
3FC003FC00
7F8007F800
BF400FF400
BF402FF000
BF007FF000
BF00FBF000
BF47EBF990
7FFF87FFC0
2FFE03FF40
07F400B900
ENDCHAR
STARTCHAR atilde
ENCODING 227
SWIDTH 541 0
DWIDTH 20 0
BBX 20 27 1 0
BITMAP
00002F800A
0000FFF01E
0003FFF87D
000787FFF8
000B01FFE0
0009007E40
0000000000
0000000000
0000000000
0000BF82E0
000BFFEBF4
002FD0BFF0
00BF007FD0
02FC007FC0
07F400BF40
0FE000FF00
2FD001FE00
3FC003FC00
7F8007F800
BF400FF400
BF402FF000
BF007FF000
BF00FBF000
BF47EBF990
7FFF87FFC0
2FFE03FF40
07F400B900
ENDCHAR
STARTCHAR adieresis
ENCODING 228
SWIDTH 541 0
DWIDTH 20 0
BBX 20 27 1 0
BITMAP
0002F802F8
000BFD0BFE
000BFD0BFE
000BFC0BFD
0002F402F4
0000400040
0000000000
0000000000
0000000000
0000BF82E0
000BFFEBF4
002FD0BFF0
00BF007FD0
02FC007FC0
07F400BF40
0FE000FF00
2FD001FE00
3FC003FC00
7F8007F800
BF400FF400
BF402FF000
BF007FF000
BF00FBF000
BF47EBF990
7FFF87FFC0
2FFE03FF40
07F400B900
ENDCHAR
STARTCHAR aring
ENCODING 229
SWIDTH 541 0
DWIDTH 20 0
BBX 19 28 1 0
BITMAP
000002FE40
00001FFFD0
00007F4BE0
0000BD07E0
0000FC0BE0
0000FD1FC0
00007FFF40
00001BF800
0000000000
0000000000
0000BF82E0
000BFFEBF4
002FD0BFF0
00BF007FD0
02FC007FC0
07F400BF40
0FE000FF00
2FD001FE00
3FC003FC00
7F8007F800
BF400FF400
BF402FF000
BF007FF000
BF00FBF000
BF47EBF990
7FFF87FFC0
2FFE03FF40
07F400B900
ENDCHAR
STARTCHAR ae
ENCODING 230
SWIDTH 769 0
DWIDTH 28 0
BBX 26 18 1 0
BITMAP
0000BF82E6FE40
000BFFEBFFFFD0
002FD0FFFD1FE0
00BF407FF40FF0
02FD007FE00FF0
07F400BFC01FF0
0FF000FF403FE0
2FD001FF00BFD0
3FC002FE02FF80
7F8007FD2FFD00
BF400BFFFFE000
BF401FFFE90000
BF002FFC000000
BF00BFFC000100
BF41F6FD001F00
7F87D1FF41BF00
2FFF407FFFF800
07F8000BFE9000
ENDCHAR
STARTCHAR ccedilla
ENCODING 231
SWIDTH 465 0
DWIDTH 17 0
BBX 16 26 1 -8
BITMAP
0001AF90
000BFFF8
007FD0FC
01FF00BD
03FD00FD
0BF402FD
1FE007FC
2FD00FF4
7FC00BE0
7F800000
BF400000
BF400000
BF000000
BF400140
BF400B80
3FD06F40
1FFFFD00
06FF9000
00B80000
007D0000
007E0000
00BE0000
01FD0000
1BFC0000
1FF40000
0BD00000
ENDCHAR
STARTCHAR egrave
ENCODING 232
SWIDTH 471 0
DWIDTH 17 0
BBX 16 28 1 0
BITMAP
00006E00
0000FE00
0001FE00
0000FE00
0000FE00
00007F00
00002F00
00000B80
00000140
00000000
00006F90
0007FFF4
002FD1FC
00BF00FD
02FD01FD
07F802FD
0FF403FC
1FE00FF8
3FD07FE0
7FC6FF80
7FFFF800
BFEA4000
BF400000
7F400040
3F8002D0
2FD06FC0
0BFFFF40
01BFA400
ENDCHAR
STARTCHAR eacute
ENCODING 233
SWIDTH 471 0
DWIDTH 17 0
BBX 16 28 1 0
BITMAP
000000F4
000001FC
000002FD
000007FC
00000BF4
00002FD0
00007F40
0001F800
00014000
00000000
00006F90
0007FFF4
002FD1FC
00BF00FD
02FD01FD
07F802FD
0FF403FC
1FE00FF8
3FD07FE0
7FC6FF80
7FFFF800
BFEA4000
BF400000
7F400040
3F8002D0
2FD06FC0
0BFFFF40
01BFA400
ENDCHAR
STARTCHAR ecircumflex
ENCODING 234
SWIDTH 471 0
DWIDTH 17 0
BBX 17 28 1 0
BITMAP
0000002000
000001FC00
000007FD00
00001FFE00
0000BEBE00
0007F87F00
007FD03F80
007E001F80
0000000000
0000000000
00006F9000
0007FFF400
002FD1FC00
00BF00FD00
02FD01FD00
07F802FD00
0FF403FC00
1FE00FF800
3FD07FE000
7FC6FF8000
7FFFF80000
BFEA400000
BF40000000
7F40004000
3F8002D000
2FD06FC000
0BFFFF4000
01BFA40000
ENDCHAR
STARTCHAR edieresis
ENCODING 235
SWIDTH 471 0
DWIDTH 17 0
BBX 19 27 1 0
BITMAP
001BD01BD0
003FF03FF0
007FF03FF4
003FE03FE0
001F801F80
0000000000
0000000000
0000000000
0000000000
00006F9000
0007FFF800
002FD1FC00
00BF00FD00
02FC01FD00
07F802FD00
0FF007F800
1FE02FF400
3FD1BFD000
7FEFFD0000
7FFE500000
BF40000000
BF40000000
7F8001C000
3FC007D000
2FE06FC000
0BFFFE0000
01BFA40000
ENDCHAR
STARTCHAR igrave
ENCODING 236
SWIDTH 286 0
DWIDTH 10 0
BBX 9 28 1 0
BITMAP
002F00
00BF00
00FF00
00FF00
00BF00
003F00
001F40
000BC0
000140
000000
01FE00
03FF00
01FF00
00FE00
01FD00
02FC00
03F800
07F000
0FE000
1FD000
2F8000
3F4000
7F0000
BE0000
FE0000
FFF800
BFF400
2F9000
ENDCHAR
STARTCHAR iacute
ENCODING 237
SWIDTH 286 0
DWIDTH 10 0
BBX 12 28 1 0
BITMAP
0000B8
0000FD
0001FD
0003FD
000BF8
001FE0
007F80
00F900
005000
000000
01FE00
03FF00
01FF00
00FE00
01FD00
02FC00
03F800
07F000
0FE000
1FD000
2F8000
3F4000
7F0000
BE0000
FE0000
FFF800
BFF400
2F9000
ENDCHAR
STARTCHAR icircumflex
ENCODING 238
SWIDTH 286 0
DWIDTH 10 0
BBX 13 28 1 0
BITMAP
00002400
0000BD00
0002FE00
001FFE00
00BFBF00
07FC3F40
2FE02FC0
2E400BC0
00000000
00000000
01FE0000
03FF0000
01FF0000
00FE0000
01FD0000
02FC0000
03F80000
07F00000
0FE00000
1FD00000
2F800000
3F400000
7F000000
BE000000
FE000000
FFF80000
BFF40000
2F900000
ENDCHAR
STARTCHAR idieresis
ENCODING 239
SWIDTH 286 0
DWIDTH 10 0
BBX 15 27 1 0
BITMAP
0BE00BE0
2FF42FF4
3FF43FF4
2FF02FF0
0FD00FD0
01000100
00000000
00000000
00000000
01FE0000
03FF0000
01FF0000
00FE0000
01FD0000
02FC0000
03F80000
07F00000
0FE00000
1FD00000
2F800000
3F400000
7F000000
BE000000
FE000000
FFF80000
BFF40000
2F900000
ENDCHAR
STARTCHAR eth
ENCODING 240
SWIDTH 524 0
DWIDTH 19 0
BBX 22 30 1 0
BITMAP
000000140000
0000007D0000
0000002F0000
0000000F4000
0000000BEF80
0000001FFFD0
000001BFFA40
000007FBE000
00001F43F000
00001403F000
00000007F000
00000007F000
0000AF87F000
0007FFFBE000
002FD0BFE000
00BF007FD000
02FD003FD000
07F8003FC000
0FF0007F8000
1FE000FF4000
3FC001FE0000
7F8002FD0000
7F8007FC0000
BF400BF40000
BF401FE00000
BF403FC00000
7F40BF000000
3F86FC000000
1FFFE0000000
06FA40000000
ENDCHAR
STARTCHAR ntilde
ENCODING 241
SWIDTH 561 0
DWIDTH 20 0
BBX 21 27 0 0
BITMAP
00000BE00280
00003FFC0780
0000FFFE1F40
0001E1FFFE00
0002C07FF800
0002401F9000
000000000000
000000000000
000000000000
007E001F9000
00FF80BFF400
007FC2FFF800
003F8BD7F800
007F5F07F800
00BF7C0BF400
00FEF40FF000
01FFD02FD000
02FF803FC000
03FE00BF8000
07FC00FF0000
0FF401FE0000
1FE002FD0000
2FD002FC0000
7F8002FC1000
BF4002FFF000
FE0001FFE000
6D00007F4000
ENDCHAR
STARTCHAR ograve
ENCODING 242
SWIDTH 514 0
DWIDTH 19 0
BBX 17 28 1 0
BITMAP
000007D000
00001FD000
00002FD000
00001FD000
00000FD000
00000BE000
000003F000
000001F400
0000001000
0000000000
0001BF9000
000BFFF800
007FD1FD00
01FF40BF00
03FD00BF00
0BF800BF40
1FF400BF40
2FE000FF00
3FD001FF00
7FC002FE00
BF8003FD00
BF400BF800
BF401FF400
BF002FE000
7F40BF8000
3F86FE0000
1FFFF40000
02FE400000
ENDCHAR
STARTCHAR oacute
ENCODING 243
SWIDTH 514 0
DWIDTH 19 0
BBX 17 28 1 0
BITMAP
0000001F00
0000002F80
0000003FC0
000000BF80
000000FF00
000002FD00
00000BE000
00002F8000
0000140000
0000000000
0001BF9000
000BFFF800
007FD1FD00
01FF40BF00
03FD00BF00
0BF800BF40
1FF400BF40
2FE000FF00
3FD001FF00
7FC002FE00
BF8003FD00
BF400BF800
BF401FF400
BF002FE000
7F40BF8000
3F86FE0000
1FFFF40000
02FE400000
ENDCHAR
STARTCHAR ocircumflex
ENCODING 244
SWIDTH 514 0
DWIDTH 19 0
BBX 19 28 1 0
BITMAP
0000000500
0000001F80
000000BFC0
000002FFD0
00001FEFE0
0000BF4BF0
000BF907F4
0007D001F4
0000000000
0000000000
0001BF9000
000BFFF800
007FD1FD00
01FF40BF00
03FD00BF00
0BF800BF40
1FF400BF40
2FE000FF00
3FD001FF00
7FC002FE00
BF8003FD00
BF400BF800
BF401FF400
BF002FE000
7F40BF8000
3F86FE0000
1FFFF40000
02FE400000
ENDCHAR
STARTCHAR otilde
ENCODING 245
SWIDTH 514 0
DWIDTH 19 0
BBX 20 27 1 0
BITMAP
00001B9007
0000BFF40F
0002FFFD2E
0007D2FFFC
000B40FFF4
0006002F80
0000000000
0000000000
0000000000
0001BF9000
000BFFF800
007FD1FD00
01FF40BF00
03FD00BF00
0BF800BF40
1FF400BF40
2FE000FF00
3FD001FF00
7FC002FE00
BF8003FD00
BF400BF800
BF401FF400
BF002FE000
7F40BF8000
3F86FE0000
1FFFF40000
02FE400000
ENDCHAR
STARTCHAR odieresis
ENCODING 246
SWIDTH 514 0
DWIDTH 19 0
BBX 20 27 1 0
BITMAP
0001F801F9
0007FE07FE
000BFE07FF
0007FD07FE
0002F802F8
0000000000
0000000000
0000000000
0000000000
0001BF9000
000BFFF800
007FD1FD00
01FF40BF00
03FD00BF00
0BF800BF40
1FF400BF40
2FE000FF00
3FD001FF00
7FC002FE00
BF8003FD00
BF400BF800
BF401FF400
BF002FE000
7F40BF8000
3F86FE0000
1FFFF40000
02FE400000
ENDCHAR
STARTCHAR divide
ENCODING 247
SWIDTH 617 0
DWIDTH 22 0
BBX 18 18 3 4
BITMAP
0001500000
0007FC0000
000BFD0000
0007FC0000
0002F40000
0000000000
0000000000
0000000000
BFFFFFFFD0
FFFFFFFF90
0000000000
0000000000
0000000000
0007E40000
000FFC0000
000FF80000
000BF40000
0001900000
ENDCHAR
STARTCHAR oslash
ENCODING 248
SWIDTH 514 0
DWIDTH 19 0
BBX 18 24 1 -3
BITMAP
00000007E0
0000001FE0
0000007FC0
0001BFFF00
000BFFFD00
007FD2FD00
01FF47FF00
03FD0BBF00
0BF81D7F40
1FF038BF40
2FE0B0FF00
3FC1D0FF00
7F82C2FE00
BF4743FD00
BF4E07F800
BF2C0FF400
BF782FE000
7FB0BF8000
3FD2FE0000
1FFFF40000
1FFE400000
2F40000000
3E00000000
2C00000000
ENDCHAR
STARTCHAR ugrave
ENCODING 249
SWIDTH 553 0
DWIDTH 20 0
BBX 19 28 1 0
BITMAP
000002F400
00000BF400
00000BF400
00000BF400
000007F400
000003F400
000001F800
0000007C00
0000001400
0000000000
01BD0001E4
03FF0007F8
01FF000BF4
00FF001FE0
01FE003FD0
02FD00BF80
03FC00FF40
0BF802FF00
0FF007FD00
1FE00FFC00
3FD02FF800
7F80BAF400
BF41F3F000
FF07D7F000
FE1F4BF040
FFFD0BFFC0
BFF407FF40
2F8001F900
ENDCHAR
STARTCHAR uacute
ENCODING 250
SWIDTH 553 0
DWIDTH 20 0
BBX 19 28 1 0
BITMAP
0000000780
0000000FE0
0000001FE0
0000002FD0
0000007F80
000000FE00
000003F800
00000FD000
0000050000
0000000000
01BD0001E4
03FF0007F8
01FF000BF4
00FF001FE0
01FE003FD0
02FD00BF80
03FC00FF40
0BF802FF00
0FF007FD00
1FE00FFC00
3FD02FF800
7F80BAF400
BF41F3F000
FF07D7F000
FE1F4BF040
FFFD0BFFC0
BFF407FF40
2F8001F900
ENDCHAR
STARTCHAR ucircumflex
ENCODING 251
SWIDTH 553 0
DWIDTH 20 0
BBX 20 28 1 0
BITMAP
0000000140
0000000BE0
0000002FE0
000000BFF0
000007F7F4
00006FD2F8
0002FE01FC
0002E400BD
0000000000
0000000000
01BD0001E4
03FF0007F8
01FF000BF4
00FF001FE0
01FE003FD0
02FD00BF80
03FC00FF40
0BF802FF00
0FF007FD00
1FE00FFC00
3FD02FF800
7F80BAF400
BF41F3F000
FF07D7F000
FE1F4BF040
FFFD0BFFC0
BFF407FF40
2F8001F900
ENDCHAR
STARTCHAR udieresis
ENCODING 252
SWIDTH 553 0
DWIDTH 20 0
BBX 21 27 1 0
BITMAP
0000BE00BE00
0002FF81FF80
0002FF82FF80
0002FF41FF40
0000BD00BD00
000010001000
000000000000
000000000000
000000000000
01BD0001E400
03FF0007F800
01FF000BF400
00FF001FE000
01FE003FD000
02FD00BF8000
03FC00FF4000
0BF802FF0000
0FF007FD0000
1FE00FFC0000
3FD02FF80000
7F80BAF40000
BF41F3F00000
FF07D7F00000
FE1F4BF04000
FFFD0BFFC000
BFF407FF4000
2F8001F90000
ENDCHAR
STARTCHAR yacute
ENCODING 253
SWIDTH 549 0
DWIDTH 20 0
BBX 19 38 1 -10
BITMAP
0000001E00
0000002F80
0000007F80
000000BF40
000001FE00
000003FC00
00000BE000
00002F4000
0000140000
0000000000
01BE0001F4
02FF4003F8
00FF400BF4
00FF001FF0
00FE002FE0
01FD007FD0
03FC00BFC0
07F801FF80
0BF403FF40
1FE00BFF00
2FD01FFE00
3FC07EFD00
7F40F6FC00
BF03E3F800
FF1F87F000
FFFE0BE000
BFF80FD000
2F901FC000
00003F4000
00007F0000
0000FD0000
0002F80000
000BF00000
001FD00000
00BF400000
06FE000000
2FF4000000
0A80000000
ENDCHAR
STARTCHAR thorn
ENCODING 254
SWIDTH 552 0
DWIDTH 20 0
BBX 22 39 -3 -10
BITMAP
000000B40000
000001FC0000
000001FC0000
000002FC0000
000003F80000
000007F40000
000007F00000
00000BE00000
00000FD00000
00001FC00000
00002F800000
00003F46F900
00007F2FFF40
0000BEF93FC0
0000FFE02FD0
0001FF801FD0
0002FF001FE0
0003FD002FD0
0007F8002FD0
000BF4003FC0
000FE0007F80
001FD000FF40
002FC001FF00
003F8003FD00
007F800BF400
007FC02FE000
00BFE5FF4000
00FEFFFD0000
01FC6F900000
03F800000000
07F400000000
0BF000000000
0FE000000000
1FD000000000
3FC000000000
7F4000000000
BF0000000000
FE0000000000
B80000000000
ENDCHAR
STARTCHAR ydieresis
ENCODING 255
SWIDTH 549 0
DWIDTH 20 0
BBX 20 37 1 -10
BITMAP
0002F801F8
0007FE07FE
000BFE0BFE
0007FD07FD
0002F402F8
0000400000
0000000000
0000000000
0000000000
01BE0001F4
02FF4003F8
00FF400BF4
00FF001FF0
00FE002FE0
01FD007FD0
03FC00BFC0
07F801FF80
0BF403FF40
1FE00BFF00
2FD01FFE00
3FC07EFD00
7F40F6FC00
BF03E3F800
FF1F87F000
FFFE0BE000
BFF80FD000
2F901FC000
00003F4000
00007F0000
0000FD0000
0002F80000
000BF00000
001FD00000
00BF400000
06FE000000
2FF4000000
0A80000000
ENDCHAR
STARTCHAR Amacron
ENCODING 256
SWIDTH 615 0
DWIDTH 22 0
BBX 30 33 -3 0
BITMAP
000000000BFFFFD0
000000003FFFFFD0
000000003FFFFF40
0000000000000000
0000000000000000
0000000000000000
00000000001BF000
0000000001FFF400
000000000BFFF000
000000002F8BE000
00000000FD1FD000
00000003F42FC000
0000000BD03F8000
0000002F40BF4000
0000007E00FF0000
000000FC01FE0000
000002F402FD0000
000007E003FC0000
00000FD007F40000
00002FEBFFFFD000
0001BFFFFFFFC000
000FFFFFFFFE4000
001AF8002FD00000
0003F4003FC00000
000BE0007F800000
000FC0007F400000
002F8000BF000000
007F0000BF000000
00FD0000FF000000
03FC0000FF450000
1FF40000BFFD0000
BFD000007FF80000
7E4000001FE00000
ENDCHAR
STARTCHAR amacron
ENCODING 257
SWIDTH 543 0
DWIDTH 20 0
BBX 19 24 1 0
BITMAP
0002FFFFF8
000BFFFFF4
000BFFFFE0
0000000000
0000000000
0000000000
0000BF82E0
0007FFEBF4
002FD0BFF0
00BF007FD0
02FC007FC0
07F400BF40
0FF000FF00
2FD001FE00
3FC003FC00
7F8007F800
BF400FF400
BF402FF000
BF007FF000
BF00FBF000
BF47EBF990
7FFFC7FFC0
2FFE03FF40
07F400B900
ENDCHAR
STARTCHAR Abreve
ENCODING 258
SWIDTH 615 0
DWIDTH 22 0
BBX 30 35 -3 0
BITMAP
0000000001E000A0
0000000003F002E0
0000000007F81BD0
0000000003FFFF40
0000000002FFFD00
00000000006F9000
0000000000000000
0000000000000000
00000000001BF000
0000000001FFF400
000000000BFFF000
000000002F8BE000
00000000FD1FD000
00000003F42FC000
0000000BD03F8000
0000002F40BF4000
0000007E00FF0000
000000FC01FE0000
000002F402FD0000
000007E003FC0000
00000FD007F40000
00002FEBFFFFD000
0001BFFFFFFFC000
000FFFFFFFFE4000
001AF8002FD00000
0003F4003FC00000
000BE0007F800000
000FC0007F400000
002F8000BF000000
007F0000BF000000
00FD0000FF000000
03FC0000FF450000
1FF40000BFFD0000
BFD000007FF80000
7E4000001FE00000
ENDCHAR
STARTCHAR abreve
ENCODING 259
SWIDTH 543 0
DWIDTH 20 0
BBX 19 27 1 0
BITMAP
00002C0018
0000BC003C
0000FD00B8
0000FF47F0
0000BFFFD0
00003FFF40
00000BE400
0000000000
0000000000
0000BF82E0
0007FFEBF4
002FD0BFF0
00BF007FD0
02FC007FC0
07F400BF40
0FF000FF00
2FD001FE00
3FC003FC00
7F8007F800
BF400FF400
BF402FF000
BF007FF000
BF00FBF000
BF47EBF990
7FFFC7FFC0
2FFE03FF40
07F400B900
ENDCHAR
STARTCHAR Aogonek
ENCODING 260
SWIDTH 615 0
DWIDTH 22 0
BBX 27 36 -3 -9
BITMAP
00000000001BF0
0000000001FFF4
000000000BFFF0
000000002F8BE0
00000000FD1FD0
00000003F42FC0
0000000BD03F80
0000002F40BF40
0000007E00FF00
000000FC01FE00
000002F402FD00
000007E003FC00
00000FD007F400
00002FEBFFFFD0
0001FFFFFFFFC0
000FFFFFFFFE40
001AF8002FD000
0003F4003FC000
000BE0007F8000
000FC0007F4000
002F8000BF0000
007F0000BF0000
00FD0000FF0000
03FC0000FF4500
1FF40000BFFD00
BFD000007FFC00
7E4000001FE000
000000002F4000
00000000BD0000
00000002F40000
00000007E00000
0000000BE00000
0000000FE14000
0000001FFF4000
0000000FFE0000
00000006E40000
ENDCHAR
STARTCHAR aogonek
ENCODING 261
SWIDTH 541 0
DWIDTH 20 0
BBX 19 27 1 -9
BITMAP
0000BF82E0
000BFFEBF4
002FD0BFF0
00BF007FD0
02FC007FC0
07F400BF40
0FE000FF00
2FD001FE00
3FC003FC00
7F8007F800
BF400FF400
BF402FF000
BF007FF000
BF00FBF000
BF47EBF990
7FFF87FFD0
2FFE03FF80
07F401FD00
000001F400
000007D000
00001F8000
00002F4000
00007F0000
0000BF1400
0000BFF800
0000BFF000
00002E4000
ENDCHAR
STARTCHAR Cacute
ENCODING 262
SWIDTH 533 0
DWIDTH 19 0
BBX 24 35 1 0
BITMAP
0000000000B4
0000000001FC
0000000002FD
0000000007F8
000000001FE0
000000007F40
000000005400
000000000000
0000006FE400
000007FFFD00
00002FE42F40
0000FF801F80
0003FD001F80
000FF4002F80
002FE0007F80
007FC000FF40
00FF4003FF00
02FE001FFD00
03FD002FF800
0BF8001FE000
0FF400054000
1FF000000000
2FE000000000
2FD000000000
3FC000000000
3FC000000000
7FC000000000
7FC000000000
7FC000000000
3FC000000000
3FD0001D0000
1FE000BD0000
0BF81BFC0000
02FFFFE40000
006FF9400000
ENDCHAR
STARTCHAR cacute
ENCODING 263
SWIDTH 468 0
DWIDTH 17 0
BBX 19 28 1 0
BITMAP
00000002D0
00000007F4
0000000BF4
0000000FF0
0000002FD0
0000007F80
000001FD00
000007E400
0000014000
0000000000
0000AFD000
000BFFF800
007FD0FD00
01FF40BD00
03FD00FD00
0BF801FD00
1FF007FC00
2FD00FF400
3FC007E000
7F80000000
BF40000000
BF40000000
BF40000000
BF40018000
7F80078000
3FD06F4000
1FFFFD0000
02BF900000
ENDCHAR
STARTCHAR Ccircumflex
ENCODING 264
SWIDTH 533 0
DWIDTH 19 0
BBX 24 35 1 0
BITMAP
000000000640
000000001FD0
00000000BFE0
00000006FFF0
0000006FE3F8
000000FE41FD
000000540014
000000000000
0000006FE400
000007FFFD00
00002FE42F40
0000FF801F80
0003FD001F80
000FF4002F80
002FE0007F80
007FC000FF40
00FF4003FF00
02FE001FFD00
03FD002FF800
0BF8001FE000
0FF400054000
1FF000000000
2FE000000000
2FD000000000
3FC000000000
3FC000000000
7FC000000000
7FC000000000
7FC000000000
3FC000000000
3FD0001D0000
1FE000BD0000
0BF81BFC0000
02FFFFE40000
006FF9400000
ENDCHAR
STARTCHAR ccircumflex
ENCODING 265
SWIDTH 468 0
DWIDTH 17 0
BBX 18 28 1 0
BITMAP
0000000500
0000002F40
000000BF80
000007FFC0
00001FDFD0
0001BF4FE0
000BF807F0
000B9002F0
0000000000
0000000000
0000AFD000
000BFFF800
007FD0FD00
01FF40BD00
03FD00FD00
0BF801FD00
1FF007FC00
2FD00FF400
3FC007E000
7F80000000
BF40000000
BF40000000
BF40000000
BF40018000
7F80078000
3FD06F4000
1FFFFD0000
02BF900000
ENDCHAR
STARTCHAR Cdotaccent
ENCODING 266
SWIDTH 533 0
DWIDTH 19 0
BBX 21 35 1 0
BITMAP
000000005400
00000007FD00
0000000BFE00
0000000BFD00
00000007FC00
00000001A000
000000000000
000000000000
0000006FE400
000007FFFD00
00002FE42F40
0000FF801F80
0003FD001F80
000FF4002F80
002FE0007F80
007FC000FF40
00FF4003FF00
02FE001FFD00
03FD002FF800
0BF8001FE000
0FF400054000
1FF000000000
2FE000000000
2FD000000000
3FC000000000
3FC000000000
7FC000000000
7FC000000000
7FC000000000
3FC000000000
3FD0001D0000
1FE000BD0000
0BF81BFC0000
02FFFFE40000
006FF9400000
ENDCHAR
STARTCHAR cdotaccent
ENCODING 267
SWIDTH 468 0
DWIDTH 17 0
BBX 16 27 1 0
BITMAP
000002F8
00000BFE
00000BFE
00000BFD
000002F4
00000040
00000000
00000000
00000000
0000AFD0
000BFFF8
007FD0FD
01FF40BD
03FD00FD
0BF801FD
1FF007FC
2FD00FF4
3FC007E0
7F800000
BF400000
BF400000
BF400000
BF400180
7F800780
3FD06F40
1FFFFD00
02BF9000
ENDCHAR
STARTCHAR Ccaron
ENCODING 268
SWIDTH 533 0
DWIDTH 19 0
BBX 25 35 1 0
BITMAP
00000005000100
0000007F800B80
0000002FE07F80
0000000FF6FE00
00000007FFE400
00000002F90000
00000000500000
00000000000000
0000006FE40000
000007FFFD0000
00002FE42F4000
0000FF801F8000
0003FD001F8000
000FF4002F8000
002FE0007F8000
007FC000FF4000
00FF4003FF0000
02FE001FFD0000
03FD002FF80000
0BF8001FE00000
0FF40005400000
1FF00000000000
2FE00000000000
2FD00000000000
3FC00000000000
3FC00000000000
7FC00000000000
7FC00000000000
7FC00000000000
3FC00000000000
3FD0001D000000
1FE000BD000000
0BF81BFC000000
02FFFFE4000000
006FF940000000
ENDCHAR
STARTCHAR ccaron
ENCODING 269
SWIDTH 468 0
DWIDTH 17 0
BBX 21 27 1 0
BITMAP
000029000740
00007F401F80
00002F80BF40
00001FC7FD00
00000FEFE000
00000FFE0000
000007D00000
000000000000
000000000000
0000AFD00000
000BFFF80000
007FD0FD0000
01FF40BD0000
03FD00FD0000
0BF801FD0000
1FF007FC0000
2FD00FF40000
3FC007E00000
7F8000000000
BF4000000000
BF4000000000
BF4000000000
BF4001800000
7F8007800000
3FD06F400000
1FFFFD000000
02BF90000000
ENDCHAR
STARTCHAR Dcaron
ENCODING 270
SWIDTH 630 0
DWIDTH 23 0
BBX 23 35 1 0
BITMAP
000000500014
000003FD007C
000001FF06F8
000000BFAFF4
0000003FFE40
0000002FD000
000000050000
000000000000
0006BFF90000
01BFFFFFE400
07FFFFFFFE00
07FF9002FF80
01F800007FD0
000050001FE0
0003FD000FF0
000BFC000BF4
000FF4000BF4
002FF0000BF4
003FD0000BF4
00BF80000BF0
00FF40000FE0
01FF00001FE0
03FD00003FC0
07FC00007F80
0BF80000FF40
0FF40002FE00
1FF00007FC00
2FE0001FF000
2FD0007FD000
3FC001FF4000
7F800BFD0000
7F406FE00000
3F46FF800000
1FFFF8000000
06FE40000000
ENDCHAR
STARTCHAR dcaron
ENCODING 271
SWIDTH 557 0
DWIDTH 20 0
BBX 29 30 1 0
BITMAP
0000000001501500
0000000007F47F40
000000000BF0BF40
000000001FE07F40
000000002FD07F00
000000003FC07E00
000000007F40BD00
00000000BF01F400
00000000FE03D000
00000001FD064000
00000002FC000000
00000003F8000000
00006F97F4000000
0006FFFFF0000000
001FE47FE0000000
007F403FD0000000
01FD002FC0000000
03F8003F80000000
0BF4007F40000000
1FE000BF00000000
2FD001FF00000000
3FC002FE00000000
7F8007FD00000000
7F400FFC00000000
7F402FFC00000000
7F40BFF800000000
7F82F6F810000000
3FFFE2FFF0000000
1FFF81FFD0000000
06F9007E40000000
ENDCHAR
STARTCHAR Dcroat
ENCODING 272
SWIDTH 630 0
DWIDTH 23 0
BBX 22 27 1 0
BITMAP
0016BFE90000
01FFFFFFE000
07FFFFFFFD00
0BFF5006FF40
02F400007FC0
000050002FD0
0003FC001FE0
000BF8000FF0
001FF4000BF0
003FE0000BF0
007FC0000FF0
2FFFFFD00FE0
BFFFFFD01FE0
BFFFFF802FD0
03FC00003FC0
0BF80000BF40
0FF40001FF00
1FF00003FD00
2FE0000BF800
2FD0002FE000
3FC0007FC000
7F8002FF0000
7F400BFC0000
BF407FE00000
7F46FF400000
2FFFF8000000
06FE40000000
ENDCHAR
STARTCHAR dcroat
ENCODING 273
SWIDTH 557 0
DWIDTH 20 0
BBX 23 30 1 0
BITMAP
000000000050
0000000007F4
000000000BF0
000000001FE0
000000556FE4
000002FFFFFC
000007FFFFE4
00000000BF00
00000000FE00
00000001FD00
00000002FC00
00000003F800
00006F97F400
0006FFFFF000
001FE47FE000
007F403FD000
01FD002FC000
03F8003F8000
0BF4007F4000
1FE000BF0000
2FD001FF0000
3FC002FE0000
7F8007FD0000
7F400FFC0000
7F402FFC0000
7F40BFF80000
7F82F6F81000
3FFFE2FFF000
1FFF81FFD000
06F9007E4000
ENDCHAR
STARTCHAR Emacron
ENCODING 274
SWIDTH 509 0
DWIDTH 18 0
BBX 22 33 1 0
BITMAP
00001FFFFFD0
00003FFFFFC0
00003FFFFF40
000000000000
000000000000
000000000000
000006BF9000
00006FFFFC00
0002FF907E00
000BFD002F00
002FF4003F00
007FD000BF00
00FF8002FE00
01FF001FFC00
02FD007FF400
02FC007FD000
03FC002E4000
02FC00000000
01FD00000000
00BF6A000000
002FFF800000
007FFE400000
02FFD0000000
0BFE00000000
1FF800000000
3FE000000000
7FC000000000
BF8000740000
BF8001F80000
7F8007F40000
2FD06FE00000
0BFFFF400000
01BFE4000000
ENDCHAR
STARTCHAR emacron
ENCODING 275
SWIDTH 471 0
DWIDTH 17 0
BBX 18 24 1 0
BITMAP
001FFFFFD0
003FFFFFC0
003FFFFF40
0000000000
0000000000
0000000000
00006F9000
0007FFF400
002FD1FC00
00BF00FD00
02FD01FD00
07F802FD00
0FF403FC00
1FE00FF800
3FD07FE000
7FC6FF8000
7FFFF80000
BFEA400000
BF40000000
7F40004000
3F8002D000
2FD06FC000
0BFFFF4000
01BFA40000
ENDCHAR
STARTCHAR Ebreve
ENCODING 276
SWIDTH 509 0
DWIDTH 18 0
BBX 22 35 1 0
BITMAP
000001E00090
000007E002D0
000007F41FC0
000007FFFF40
000002FFFD00
0000006F9000
000000000000
000000000000
000006BF9000
00006FFFFC00
0002FF907E00
000BFD002F00
002FF4003F00
007FD000BF00
00FF8002FE00
01FF001FFC00
02FD007FF400
02FC007FD000
03FC002E4000
02FC00000000
01FD00000000
00BF6A000000
002FFF800000
007FFE400000
02FFD0000000
0BFE00000000
1FF800000000
3FE000000000
7FC000000000
BF8000740000
BF8001F80000
7F8007F40000
2FD06FE00000
0BFFFF400000
01BFE4000000
ENDCHAR
STARTCHAR ebreve
ENCODING 277
SWIDTH 471 0
DWIDTH 17 0
BBX 18 27 1 0
BITMAP
0001E00090
0003E001E0
0007F007D0
0007F82F80
0003FFFE00
0001FFF800
00006F9000
0000000000
0000000000
00006F9000
0007FFF400
002FD1FC00
00BF00FD00
02FD01FD00
07F802FD00
0FF403FC00
1FE00FF800
3FD07FE000
7FC6FF8000
7FFFF80000
BFEA400000
BF40000000
7F40004000
3F8002D000
2FD06FC000
0BFFFF4000
01BFA40000
ENDCHAR
STARTCHAR Edotaccent
ENCODING 278
SWIDTH 509 0
DWIDTH 18 0
BBX 20 35 1 0
BITMAP
0000001500
000000FF40
000002FF80
000002FF80
000000FF00
0000006800
0000000000
0000000000
000006BF90
00006FFFFC
0002FF907E
000BFD002F
002FF4003F
007FD000BF
00FF8002FE
01FF001FFC
02FD007FF4
02FC007FD0
03FC002E40
02FC000000
01FD000000
00BF6A0000
002FFF8000
007FFE4000
02FFD00000
0BFE000000
1FF8000000
3FE0000000
7FC0000000
BF80007400
BF8001F800
7F8007F400
2FD06FE000
0BFFFF4000
01BFE40000
ENDCHAR
STARTCHAR edotaccent
ENCODING 279
SWIDTH 471 0
DWIDTH 17 0
BBX 16 27 1 0
BITMAP
00001BD0
00003FF0
00003FF4
00003FE0
00001F80
00000000
00000000
00000000
00000000
00006F90
0007FFF4
002FD1FC
00BF00FD
02FD01FD
07F802FD
0FF403FC
1FE00FF8
3FD07FE0
7FC6FF80
7FFFF800
BFEA4000
BF400000
7F400040
3F8002D0
2FD06FC0
0BFFFF40
01BFA400
ENDCHAR
STARTCHAR Eogonek
ENCODING 280
SWIDTH 509 0
DWIDTH 18 0
BBX 20 36 1 -9
BITMAP
000006BF90
00006FFFFC
0002FF907E
000BFD002F
002FF4003F
007FD000BF
00FF8002FE
01FF001FFC
02FD007FF4
02FC007FD0
03FC002E40
02FC000000
01FD000000
00BF6A0000
002FFF8000
007FFE4000
02FFD00000
0BFE000000
1FF8000000
3FE0000000
7FC0000000
7F80007400
BF8001F800
7F8007F400
2FD06FE000
0BFFFF8000
01BFF80000
000BD00000
002F400000
00BD000000
01F8000000
02F8000000
03F8400000
07FFC00000
03FF400000
01B9000000
ENDCHAR
STARTCHAR eogonek
ENCODING 281
SWIDTH 471 0
DWIDTH 17 0
BBX 16 27 1 -9
BITMAP
00006F90
0007FFF8
002FD1FC
00BF00FD
02FD00FD
07F801FD
0FF403FC
1FE00FF8
3FD07FE0
7FC6FF80
7FFFF900
7FEA4000
7F400000
7F400040
3F8002D0
2FD06FD0
0BFFFF40
01BFFD00
0007E000
001F8000
007E0000
00FD0000
01FC0000
02FC5000
02FFE000
02FFC000
00B90000
ENDCHAR
STARTCHAR Ecaron
ENCODING 282
SWIDTH 509 0
DWIDTH 18 0
BBX 22 35 1 0
BITMAP
000001400050
00000FF401E0
000007FC1BE0
000002FEBF80
000000FFF900
000000BF4000
000000140000
000000000000
000006BF9000
00006FFFFC00
0002FF907E00
000BFD002F00
002FF4003F00
007FD000BF00
00FF8002FE00
01FF001FFC00
02FD007FF400
02FC007FD000
03FC002E4000
02FC00000000
01FD00000000
00BF6A000000
002FFF800000
007FFE400000
02FFD0000000
0BFE00000000
1FF800000000
3FE000000000
7FC000000000
BF8000740000
BF8001F80000
7F8007F40000
2FD06FE00000
0BFFFF400000
01BFE4000000
ENDCHAR
STARTCHAR ecaron
ENCODING 283
SWIDTH 471 0
DWIDTH 17 0
BBX 20 27 1 0
BITMAP
0001A0001C
0002F800BD
0000FD07F8
0000BE2FE0
00007FFF40
00007FF400
00003E4000
0000000000
0000000000
00006F9000
0007FFF400
002FD1FC00
00BF00FD00
02FD01FD00
07F802FD00
0FF403FC00
1FE00FF800
3FD07FE000
7FC6FF8000
7FFFF80000
BFEA400000
BF40000000
7F40004000
3F8002D000
2FD06FC000
0BFFFF4000
01BFA40000
ENDCHAR
STARTCHAR Gcircumflex
ENCODING 284
SWIDTH 598 0
DWIDTH 22 0
BBX 24 35 1 0
BITMAP
000000000640
000000001FD0
00000000BFE0
00000007FFF0
0000006FE7F8
000000FE41FD
000000540054
000000000000
0000006FE400
000007FFFE00
00002FF41F40
0000BF800F80
0003FE000FC0
000BF8002FC0
002FE0007F80
007FC001FF40
00FF4007FF00
02FE001FFD00
03FD001FF400
0BFC000BD000
0FF400000000
1FF000000000
2FE000540600
2FD002FFFF40
3FD007FFFF00
3FC002FFFD00
3FC0007FE400
7FC0003F0000
3FC0003E0000
3FC0007D0000
2FD000B80000
1FE002F40000
0BF81BD00000
02FFFE400000
006FE4000000
ENDCHAR
STARTCHAR gcircumflex
ENCODING 285
SWIDTH 526 0
DWIDTH 19 0
BBX 19 38 1 -10
BITMAP
0000000500
0000001F80
000000BFC0
000002FFC0
00001FEFD0
0000BF4BE0
000BF807F4
00079001F4
0000000000
0000000000
0000AF8000
0007FFF2E0
002FD1BFF0
00BF403FE0
02FD002FD0
07F8003FC0
0FF0007F80
2FE000BF40
3FD001FF00
7FC002FE00
7F8007FD00
BF400BFC00
BF401FF800
BF403FF400
7F40FFF000
3F87EBE000
1FFF8FD000
06F91FC000
00002F8000
00007F4000
0000BE0000
0001FD0000
0003F80000
000BF00000
002FD00000
01FF400000
1FFD000000
1FD0000000
ENDCHAR
STARTCHAR Gbreve
ENCODING 286
SWIDTH 598 0
DWIDTH 22 0
BBX 25 35 1 0
BITMAP
0000000B400700
0000001F800F40
0000002FD07E00
0000002FFFFC00
0000000FFFE000
00000002FE4000
00000000000000
00000000000000
0000006FE40000
000007FFFE0000
00002FF41F4000
0000BF800F8000
0003FE000FC000
000BF8002FC000
002FE0007F8000
007FC001FF4000
00FF4007FF0000
02FE001FFD0000
03FD001FF40000
0BFC000BD00000
0FF40000000000
1FF00000000000
2FE00054060000
2FD002FFFF4000
3FD007FFFF0000
3FC002FFFD0000
3FC0007FE40000
7FC0003F000000
3FC0003E000000
3FC0007D000000
2FD000B8000000
1FE002F4000000
0BF81BD0000000
02FFFE40000000
006FE400000000
ENDCHAR
STARTCHAR gbreve
ENCODING 287
SWIDTH 526 0
DWIDTH 19 0
BBX 20 37 1 -10
BITMAP
00002D001C
00007D002D
0000BE00BC
0000BF46F4
00007FFFE0
00002FFF40
000006E800
0000000000
0000000000
0000AF8000
0007FFF2E0
002FD1BFF0
00BF403FE0
02FD002FD0
07F8003FC0
0FF0007F80
2FE000BF40
3FD001FF00
7FC002FE00
7F8007FD00
BF400BFC00
BF401FF800
BF403FF400
7F40FFF000
3F87EBE000
1FFF8FD000
06F91FC000
00002F8000
00007F4000
0000BE0000
0001FD0000
0003F80000
000BF00000
002FD00000
01FF400000
1FFD000000
1FD0000000
ENDCHAR
STARTCHAR Gdotaccent
ENCODING 288
SWIDTH 598 0
DWIDTH 22 0
BBX 21 35 1 0
BITMAP
000000005000
00000007FD00
0000000BFE00
0000000BFD00
00000007F800
000000019000
000000000000
000000000000
0000006FE400
000007FFFE00
00002FF41F40
0000BF800F80
0003FE000FC0
000BF8002FC0
002FE0007F80
007FC001FF40
00FF4007FF00
02FE001FFD00
03FD001FF400
0BFC000BD000
0FF400000000
1FF000000000
2FE000540600
2FD002FFFF40
3FD007FFFF00
3FC002FFFD00
3FC0007FE400
7FC0003F0000
3FC0003E0000
3FC0007D0000
2FD000B80000
1FE002F40000
0BF81BD00000
02FFFE400000
006FE4000000
ENDCHAR
STARTCHAR gdotaccent
ENCODING 289
SWIDTH 526 0
DWIDTH 19 0
BBX 18 37 1 -10
BITMAP
000001F800
000007FE00
000007FE00
000007FD00
000002F800
0000000000
0000000000
0000000000
0000000000
0000AF8000
0007FFF2E0
002FD1BFF0
00BF403FE0
02FD002FD0
07F8003FC0
0FF0007F80
2FE000BF40
3FD001FF00
7FC002FE00
7F8007FD00
BF400BFC00
BF401FF800
BF403FF400
7F40FFF000
3F87EBE000
1FFF8FD000
06F91FC000
00002F8000
00007F4000
0000BE0000
0001FD0000
0003F80000
000BF00000
002FD00000
01FF400000
1FFD000000
1FD0000000
ENDCHAR
STARTCHAR Gcommaaccent
ENCODING 290
SWIDTH 598 0
DWIDTH 22 0
BBX 21 37 1 -10
BITMAP
0000006FE400
000007FFFE00
00002FF41F40
0000BF800F80
0003FE000FC0
000BF8001FC0
002FE0003FC0
007FC000BF80
00FF4002FF40
02FE000BFE00
03FD002FFC00
0BFC001FF400
0FF400068000
1FF000000000
2FE000000000
2FD000540600
3FD003FFFF40
3FC00BFFFF00
3FC001BFFD00
7FC0003FE400
3FC0003F0000
3FC0007E0000
2FD000BD0000
1FE002F40000
0BF81BE00000
02FFFF400000
006FE4000000
000000000000
001000000000
02FC00000000
03FD00000000
02FD00000000
01FC00000000
01F800000000
03F000000000
0BD000000000
1E0000000000
ENDCHAR
STARTCHAR gcommaaccent
ENCODING 291
SWIDTH 526 0
DWIDTH 19 0
BBX 18 38 1 -10
BITMAP
0000000B40
0000003E00
000000FC00
000002F800
000003F800
000003FD00
000002F800
0000000000
0000000000
0000000000
0000AF8000
0007FFF2E0
002FD1BFF0
00BF403FE0
02FD002FD0
07F8003FC0
0FF0007F80
2FE000BF40
3FD001FF00
7FC002FE00
7F8007FD00
BF400BFC00
BF401FF800
BF403FF400
7F40FFF000
3F87EBE000
1FFF8FD000
06F91FC000
00002F8000
00007F4000
0000BE0000
0001FD0000
0003F80000
000BF00000
002FD00000
01FF400000
1FFD000000
1FD0000000
ENDCHAR
STARTCHAR Hcircumflex
ENCODING 292
SWIDTH 668 0
DWIDTH 24 0
BBX 27 35 -1 0
BITMAP
00000000064000
000000001FD000
00000000BFE000
00000006FFF000
0000006FE3F800
000000FE41FD00
00000054001400
00000000000000
001BFE000003D0
00BFFF800007F4
007E3FC0000BF4
00003FC0000FF0
00003F80000FF0
00007F80001FE0
0000BF40002FD0
0000FF40003FC0
0000FF00007F80
0001FE0000BF40
0002FD0000FF00
0003FD0001FE00
001BFEAFFFFF80
00BFFFFFFFFF80
007FF4001BFE00
001FE0000BF000
002FD0000FE000
007FC0001FC000
00BF40003F8000
00FF00007F4000
02FD0000BF0000
03FC0000FE0000
0BF40001FD0000
1FE00001FD1400
7F800001FFF400
FE000001FFE000
B40000007E4000
ENDCHAR
STARTCHAR hcircumflex
ENCODING 293
SWIDTH 555 0
DWIDTH 20 0
BBX 19 35 0 0
BITMAP
0000009000
000003F000
00001FF400
00007FF800
0002FEFC00
001FE1FD00
01FF40BE00
00F8002E00
0000B80000
0001FD0000
0001FE0000
0002FD0000
0002FD0000
0003FC0000
0007F80000
0007F40000
000BF00000
000FE02F90
001FD0BFF0
002FC2FFF4
003F8B8BF4
007F6E0BF4
00BE7C0FF0
00FEF01FE0
01FFD03FD0
02FF407F80
07FE00BF40
0BFC01FE00
0FF402FD00
1FE002FC00
3FC003FC00
7F8003FC20
BF4003FFF0
FE0002FFD0
7D0000BE40
ENDCHAR
STARTCHAR Hbar
ENCODING 294
SWIDTH 668 0
DWIDTH 24 0
BBX 29 27 -1 0
BITMAP
001BFE000003D000
00BFFF800007F400
007E3FC0000BF400
00003FC0000BF000
00003FC0000FF000
00007F80001FE000
0005BFEBFFFFFF80
01BFFFFFFFFFFF80
02FFFFFFFFFFFE00
0055FE0000BF0000
0002FD0000FF0000
0003FD0001FD0000
0007FEAFFFFF8000
006FFFFFFFFF8000
00BFF4000BF90000
001FE0000BE00000
002FD0000FD00000
003FC0002FC00000
007F40003F800000
00FF00007F400000
01FD0000BF000000
03FC0000FE000000
0BF40001FD000000
1FE00001FD140000
7F800001FFF40000
FE000001FFE00000
B40000007E400000
ENDCHAR
STARTCHAR hbar
ENCODING 295
SWIDTH 555 0
DWIDTH 20 0
BBX 19 30 0 0
BITMAP
0000140000
00007E0000
0000BF0000
0000BF0000
0000FF0000
006FFFFF80
00BFFFFE00
0002FC0000
0003F80000
0007F40000
000BF40000
000BF00000
000FE01F90
001FD0BFF0
002FC2FFF4
003F8B97F4
007F1E0BF4
00BE780FF0
00FEF01FE0
01FFD03FD0
02FF407F80
03FE00BF40
0BFC01FE00
0FF402FD00
1FE002FC00
3FC003FC00
7F8003FC20
BF4003FFF0
FE0002FFD0
6D0000BE40
ENDCHAR
STARTCHAR Itilde
ENCODING 296
SWIDTH 327 0
DWIDTH 12 0
BBX 20 34 -1 0
BITMAP
00006F800D
0002FFF47D
000BFFFFF8
000F47FFE0
000D00BE40
0000000000
0000000000
001AFE0000
003FFFC000
002E5FD000
00001FD000
00002FD000
00002FD000
00003FC000
00007F8000
00007F8000
0000BF4000
0000FF0000
0001FE0000
0002FD0000
0003FC0000
0007F80000
000BF40000
000FF00000
001FE00000
002FD00000
007F800000
00BF400000
01FE000000
02FC000000
07F4000000
1FE0000000
7F80000000
3D00000000
ENDCHAR
STARTCHAR itilde
ENCODING 297
SWIDTH 286 0
DWIDTH 10 0
BBX 15 27 1 0
BITMAP
00BE0028
07FF8078
0FFFE1F4
2E1FFFE0
3C07FF80
2401F900
00000000
00000000
00000000
01FE0000
03FF0000
01FF0000
00FE0000
01FD0000
02FC0000
03F80000
07F00000
0FE00000
1FD00000
2F800000
3F400000
7F000000
BE000000
FE000000
FFF80000
BFF40000
2F900000
ENDCHAR
STARTCHAR Imacron
ENCODING 298
SWIDTH 327 0
DWIDTH 12 0
BBX 19 33 -1 0
BITMAP
0002FFFFF4
000FFFFFF4
000FFFFFD0
0000000000
0000000000
0000000000
001AFE0000
003FFFC000
002E5FD000
00001FD000
00002FD000
00002FD000
00003FC000
00007F8000
00007F8000
0000BF4000
0000FF0000
0001FE0000
0002FD0000
0003FC0000
0007F80000
000BF40000
000FF00000
001FE00000
002FD00000
007F800000
00BF400000
01FE000000
02FC000000
07F4000000
1FE0000000
7F80000000
3D00000000
ENDCHAR
STARTCHAR imacron
ENCODING 299
SWIDTH 286 0
DWIDTH 10 0
BBX 14 24 1 0
BITMAP
1FFFFFD0
3FFFFFC0
7FFFFE40
00000000
00000000
00000000
01FE0000
03FF0000
01FF0000
00FE0000
01FD0000
02FC0000
03F80000
07F00000
0FE00000
1FD00000
2F800000
3F400000
7F000000
BE000000
FE000000
FFF80000
BFF40000
2F900000
ENDCHAR
STARTCHAR Ibreve
ENCODING 300
SWIDTH 327 0
DWIDTH 12 0
BBX 19 35 -1 0
BITMAP
0000780024
0000FC00B8
0001FE06F4
0000FFFFD0
0000BFFF40
00001BE400
0000000000
0000000000
001AFE0000
003FFFC000
002E5FD000
00001FD000
00002FD000
00002FD000
00003FC000
00007F8000
00007F8000
0000BF4000
0000FF0000
0001FE0000
0002FD0000
0003FC0000
0007F80000
000BF40000
000FF00000
001FE00000
002FD00000
007F800000
00BF400000
01FE000000
02FC000000
07F4000000
1FE0000000
7F80000000
3D00000000
ENDCHAR
STARTCHAR ibreve
ENCODING 301
SWIDTH 286 0
DWIDTH 10 0
BBX 14 27 1 0
BITMAP
00A00060
02F000E0
03F403E0
03F81FC0
02FFFF40
01FFFD00
002F9000
00000000
00000000
01FE0000
03FF0000
01FF0000
00FE0000
01FD0000
02FC0000
03F80000
07F00000
0FE00000
1FD00000
2F800000
3F400000
7F000000
BE000000
FE000000
FFF80000
BFF40000
2F900000
ENDCHAR
STARTCHAR Iogonek
ENCODING 302
SWIDTH 327 0
DWIDTH 12 0
BBX 18 35 -5 -8
BITMAP
00001AFE00
00003FFFC0
00002E5FD0
0000001FD0
0000002FD0
0000003FD0
0000003FC0
0000007F80
000000BF80
000000BF40
000000FF00
000001FE00
000002FD00
000003FC00
000007F800
00000BF400
00000FF000
00002FE000
00003FC000
00007F8000
0000FF0000
0002FD0000
0007F80000
000FF00000
002FD00000
007F400000
00B8000000
07E0000000
1F80000000
3F00000000
7E00000000
FE14000000
FFF4000000
FFE0000000
7F40000000
ENDCHAR
STARTCHAR iogonek
ENCODING 303
SWIDTH 297 0
DWIDTH 11 0
BBX 13 36 -1 -9
BITMAP
00007E40
0001FFC0
0001FFC0
0001FF80
00007E00
00000000
00000000
00000000
00000000
001BE000
002FF400
000FF400
000BF000
000FE000
001FD000
002FC000
003F8000
007F0000
00FE0000
01FD0000
02F80000
03F40000
07F40000
0BF00000
0BFE8000
07FF8000
02FE0000
01F80000
07E00000
0F800000
2F400000
7F000000
BF140000
FFF80000
BFE00000
2E400000
ENDCHAR
STARTCHAR Idotaccent
ENCODING 304
SWIDTH 327 0
DWIDTH 12 0
BBX 14 35 -1 0
BITMAP
00000540
00002FE0
00007FF0
00007FE0
00003FD0
00000A40
00000000
00000000
001AFE00
003FFFC0
002E5FD0
00001FD0
00002FD0
00002FD0
00003FC0
00007F80
00007F80
0000BF40
0000FF00
0001FE00
0002FD00
0003FC00
0007F800
000BF400
000FF000
001FE000
002FD000
007F8000
00BF4000
01FE0000
02FC0000
07F40000
1FE00000
7F800000
3D000000
ENDCHAR
STARTCHAR dotlessi
ENCODING 305
SWIDTH 286 0
DWIDTH 10 0
BBX 8 18 1 0
BITMAP
01FE
03FF
01FF
00FE
01FD
02FC
03F8
07F0
0FE0
1FD0
2F80
3F40
7F00
BE00
FE00
FFF8
BFF4
2F90
ENDCHAR
STARTCHAR IJ
ENCODING 306
SWIDTH 720 0
DWIDTH 26 0
BBX 28 37 -1 -10
BITMAP
001AFE0001BFE4
003FFFC02FFFFD
002E5FD1FFE4FF
00001FD3FF40FF
00002FD7FC01FF
00002FD1A001FE
00003FC00002FE
00007F800003FD
00007F800007FC
0000BF40000BFC
0000FF00000BF8
0001FE00000FF4
0002FD00001FF0
0003FC00002FE0
0007F800003FD0
000BF400007FC0
000FF00000BF80
001FE00001FF40
002FD00002FF00
007F800003FD00
00BF400007FC00
01FE00000FF800
02FC00001FF000
07F400003FE000
1FE000007FC000
7F800000FF8000
3D000001FF0000
00000003FD0000
0000000BF80000
0000001FF00000
0000003FD00000
000000BF800000
000002FE000000
00000BF8000000
00007FE0000000
0002FF40000000
0007E400000000
ENDCHAR
STARTCHAR ij
ENCODING 307
SWIDTH 567 0
DWIDTH 20 0
BBX 20 37 1 -10
BITMAP
000BE001F9
002FF807FF
002FF807FF
002FF407FE
000BD002F8
0001000000
0000000000
0000000000
0000000000
01FE001FE0
03FF003FF0
01FF001FF0
00FE001FF0
01FD001FE0
02FC001FE0
03F8002FD0
07F0002FC0
0FE0003FC0
1FD0003F80
2F80007F40
3F4000BF00
7F0000FE00
BE0001FD00
FE0002FC00
FFF803F800
BFF407F400
2F900FE000
00001FD000
00002F8000
00007F4000
0000FE0000
0001FC0000
0007F40000
000FE00000
007F800000
02FD000000
02E4000000
ENDCHAR
STARTCHAR Jcircumflex
ENCODING 308
SWIDTH 393 0
DWIDTH 14 0
BBX 25 45 -6 -10
BITMAP
00000000004000
0000000001F400
000000000BF800
000000002FFD00
00000002FEFE00
0000001FF47F40
0000001F401F80
00000000000000
0000006BF90000
000007FFFF8000
00003FF93FD000
0000FFD03FD000
0000FF403FC000
00006D007FC000
000000007F8000
00000000BF8000
00000000FF4000
00000001FF0000
00000002FE0000
00000003FE0000
00000007FD0000
0000000BFC0000
0000000FF80000
0000001FF40000
0000002FF00000
0000003FD00000
0000007FC00000
000000BF800000
000001FF400000
000002FE000000
000007FD000000
00000BF8000000
00001FF4000000
00002FE0000000
00007FD0000000
0000BF80000000
0001FF00000000
0003FD00000000
000BF800000000
002FE000000000
00BF8000000000
02FE0000000000
0BF80000000000
BFD00000000000
BE000000000000
ENDCHAR
STARTCHAR jcircumflex
ENCODING 309
SWIDTH 282 0
DWIDTH 10 0
BBX 20 37 -6 -10
BITMAP
00000003D0
0000001FE0
0000007FF0
000002FFF4
00001BE2F8
0001BF82FC
0003FD00FD
0000500014
0000000000
00000BF400
00001FF800
00000BF800
000007F800
000007F800
00000BF400
00000BF000
00000FF000
00001FE000
00001FD000
00002FC000
00003F8000
00007F4000
0000BF0000
0000FE0000
0001FD0000
0002FC0000
0007F80000
000BF00000
000FE00000
002FC00000
007F400000
00BE000000
01FD000000
07F4000000
1FD0000000
BF40000000
B800000000
ENDCHAR
STARTCHAR Kcommaaccent
ENCODING 310
SWIDTH 616 0
DWIDTH 22 0
BBX 26 37 -2 -10
BITMAP
001AF900007E00
007FFF80003FC0
003E6FD0002FD0
00042FD0003FD0
00003FC0003FD0
00003FC0007FC0
00007FC000BF40
00007F8002FE00
0000BF4007FC00
0000FF001FF000
0001FF007F8000
0002FE02FE0000
0003FD0BF40000
0003FC7F800000
0007F9FD000000
000FFFF4000000
001FFBFC000000
002FE2FF000000
003FC0FF800000
007F807FD00000
00FF402FF00000
01FE001FF80000
03FC000BFE0000
0BF40003FF8000
2FE00001FFFE00
7F8000007FFE00
7D0000001BE400
00000000000000
00005000000000
0002FC00000000
0003FD00000000
0002FD00000000
0001FC00000000
0001F800000000
0003F000000000
000BC000000000
001E0000000000
ENDCHAR
STARTCHAR kcommaaccent
ENCODING 311
SWIDTH 497 0
DWIDTH 18 0
BBX 18 39 0 -10
BITMAP
0000140000
00007E0000
0000BF0000
0000FF0000
0000FE0000
0001FD0000
0002FD0000
0002FC0000
0003F80000
0007F40000
000BF00000
000FE01F90
000FD02FF0
001FC00FF0
002F801FF0
003F403FE0
007F00FF80
00BD07FE00
01FC6FE400
02FFFE4000
03FFF00000
07FFF40000
0BF7F80000
1FE2FD0000
2FC1FF0000
7F80BFD140
BF007FFF80
FE001FFF40
7C0006F800
0000000000
0010000000
01FD000000
02FE000000
01FE000000
00FD000000
00FC000000
02F4000000
07D0000000
0E40000000
ENDCHAR
STARTCHAR kgreenlandic
ENCODING 312
SWIDTH 497 0
DWIDTH 18 0
BBX 19 18 0 0
BITMAP
007E001FD0
00FF801FF0
007F800FF4
007F800FF0
007F402FE0
00BF00BFC0
00FE07FE00
01FD6FF400
02FFFF4000
03FFF40000
0BFFF40000
0FFAF80000
1FF1FD0000
2FD0FF4000
7FC07FD180
BF402FFFC0
FF000FFF40
6D0002F900
ENDCHAR
STARTCHAR Lacute
ENCODING 313
SWIDTH 517 0
DWIDTH 19 0
BBX 23 35 -1 0
BITMAP
0000000001E0
0000000002F8
0000000003F8
000000000BF4
000000002FD0
00000000BE40
000000005000
000000000000
0000000BF800
000000BFFE00
000002FD1F80
00000BF40BC0
00001FE00BD0
00003FC00FD0
00007F801FC0
0000FF003FC0
0001FE00FF40
0003FD03FF00
0007FC1FFD00
000BF83FF800
000FF02FD000
001FE0054000
002FD0000000
003FC0000000
00BF80000000
00FF00000000
01FE00000000
02FC00000000
03F800000000
0BF000000000
0FD005540000
2F96FFFF8000
BFFFFFFFD000
BFFFFABFE000
2F940005E000
ENDCHAR
STARTCHAR lacute
ENCODING 314
SWIDTH 279 0
DWIDTH 10 0
BBX 15 35 1 0
BITMAP
000000F4
000001FC
000003FC
00000BF8
00001FE0
00007E40
00005400
00000000
0003D000
0007F000
000BF000
000BF000
000FE000
001FD000
002FC000
003F8000
007F4000
00BF0000
00FE0000
01FD0000
02FC0000
03F80000
07F40000
0BF00000
0FE00000
1FD00000
2FC00000
3F800000
7F400000
BF000000
BF000000
FF180000
BFFC0000
7FF40000
1F900000
ENDCHAR
STARTCHAR Lcommaaccent
ENCODING 315
SWIDTH 517 0
DWIDTH 19 0
BBX 22 37 -1 -10
BITMAP
0000000BF800
000000BFFE00
000002FD1F80
00000BF40BC0
00001FE00BD0
00003FC00FD0
00007F801FC0
0000FF003FC0
0001FE00FF40
0003FD03FF00
0007FC1FFD00
000BF83FF800
000FF02FD000
001FE0054000
002FD0000000
003FC0000000
00BF80000000
00FF00000000
01FE00000000
02FC00000000
03F800000000
0BF000000000
0FD005540000
2F96FFFF8000
BFFFFFFFD000
BFFFFABFE000
2F940005E000
000000000000
001000000000
01FD00000000
02FE00000000
01FE00000000
00FD00000000
00FC00000000
02F400000000
07D000000000
0E4000000000
ENDCHAR
STARTCHAR lcommaaccent
ENCODING 316
SWIDTH 279 0
DWIDTH 10 0
BBX 12 39 0 -10
BITMAP
000050
0000FD
0001FE
0001FD
0002FD
0003FC
0003F8
0007F4
000BF0
000FE0
001FD0
002FC0
003F80
007F40
00BF00
00FE00
01FD00
02FC00
03F800
07F400
0BF000
0FE000
1FD000
2FC000
2FC000
3FC000
2FFF00
1FFE00
07E400
000000
010000
1FC000
3FE000
1FD000
0FD000
1F8000
3F0000
BD0000
E00000
ENDCHAR
STARTCHAR Lcaron
ENCODING 317
SWIDTH 517 0
DWIDTH 19 0
BBX 28 34 -1 0
BITMAP
0000000000007E
000000000000FF
000000000000BF
0000000000007F
0000000000007E
000000000000BD
000000000001F8
0000000BF803E0
000000BFFE0B80
000002FD1F8000
00000BF40BC000
00001FE00BD000
00003FC00FD000
00007F801FC000
0000FF003FC000
0001FE00FF4000
0003FD03FF0000
0007FC1FFD0000
000BF83FF80000
000FF02FD00000
001FE005400000
002FD000000000
003FC000000000
00BF8000000000
00FF0000000000
01FE0000000000
02FC0000000000
03F80000000000
0BF00000000000
0FD00554000000
2F96FFFF800000
BFFFFFFFD00000
BFFFFABFE00000
2F940005E00000
ENDCHAR
STARTCHAR lcaron
ENCODING 318
SWIDTH 467 0
DWIDTH 17 0
BBX 19 30 1 0
BITMAP
0001400050
0003F403F8
0007F807F8
0007F403F8
000BF402F8
000BF003F0
000FE007E0
001FE00F80
002FD02E00
002FC02400
003F800000
007F400000
00BF000000
00FE000000
01FD000000
02FC000000
03F8000000
07F4000000
0BF0000000
0FD0000000
1FD0000000
2FC0000000
3F80000000
7F40000000
BF00000000
BF00000000
FF04000000
BFFC000000
7FF4000000
1F90000000
ENDCHAR
STARTCHAR Ldot
ENCODING 319
SWIDTH 668 0
DWIDTH 24 0
BBX 26 27 -1 0
BITMAP
0000000BF80000
000000BFFE0000
000002FD1F8000
00000BF40BC000
00001FE00BD000
00003FC00FD000
00007F801FC000
0000FF003FC000
0001FE00FF4000
0003FD03FF0000
0007FC1FFD0000
000BF83FF80000
000FF02FD00000
001FE005401F80
002FD00000BFD0
003FC00000BFE0
00BF800000BFD0
00FF0000003F80
01FE0000000400
02FC0000000000
03F80000000000
0BF00000000000
0FD00554000000
2F96FFFF800000
BFFFFFFFD00000
BFFFFABFE00000
2F940005E00000
ENDCHAR
STARTCHAR ldot
ENCODING 320
SWIDTH 489 0
DWIDTH 18 0
BBX 17 30 1 0
BITMAP
0001400000
0003F40000
0007F80000
0007F40000
000BF40000
000BF00000
000FE00000
001FE00000
002FD00000
002FC00000
003F800000
007F400000
00BF000000
00FE000000
01FD000000
02FC01F900
03F807FF00
07F407FF40
0BF007FF00
0FD002FD00
1FD0005000
2FC0000000
3F80000000
7F40000000
BF00000000
BF00000000
FF04000000
BFFC000000
7FF4000000
1F90000000
ENDCHAR
STARTCHAR Lslash
ENCODING 321
SWIDTH 517 0
DWIDTH 19 0
BBX 22 27 -1 0
BITMAP
0000001BF800
000000BFFE00
000002FD1F80
00000BF40BC0
00001FE00BD0
00003FC00FD0
00007F801FC0
0000FF007F80
0001FE01FF40
0003FD07FE00
0007F82FFD00
000BF43FF400
000FF01FD000
001FE0010000
002FFF400000
01BFFFD00000
1BFFFFD00000
7FFF00000000
2AFD00000000
02FC00000000
03F400000000
0BF000000000
0FD015A50000
2F5AFFFF8000
BFFFFFFFD000
BFFFFABFE000
2F940001E000
ENDCHAR
STARTCHAR lslash
ENCODING 322
SWIDTH 279 0
DWIDTH 10 0
BBX 16 30 1 0
BITMAP
00140000
007E4000
007FFFFD
007FFFF8
001BFE90
0007F400
000BF000
000FE000
001FD000
002FC000
003F8000
007F4000
00BF0000
00FE0000
01FD0000
02FC0000
03F80000
07F40000
0BF00000
0FE00000
1FD00000
2FC00000
3F800000
7F400000
BF000000
BF000000
FF040000
BFFC0000
7FF40000
1F900000
ENDCHAR
STARTCHAR Nacute
ENCODING 323
SWIDTH 708 0
DWIDTH 25 0
BBX 28 35 0 0
BITMAP
000000000001E4
000000000002FC
000000000003FC
00000000000BF4
00000000002FD0
0000000000BE40
00000000005400
00000000000000
000001BD0007E4
000007FD000FFC
00001FFD0007FE
00007FFC0002FE
0000FFFC0002FF
0002F7F80001FE
0007E3F80002FE
000BD3F80002FD
001F83F80003FC
002F43FC0007F4
007F03FC000BF0
00BD03FC000FD0
00FC03FD001FC0
01F802FD002F40
02F402FE007F00
03F001FE00BD00
07E001FF00F800
0BD000FF02F400
0FD000BF43E000
1FC0007F87C000
2F80007FCF8000
3F40003FEF0000
3F40001FFE0000
7F00000FFD0000
7F000007FC0000
7E000002FC0000
2D000000B80000
ENDCHAR
STARTCHAR nacute
ENCODING 324
SWIDTH 561 0
DWIDTH 20 0
BBX 19 28 0 0
BITMAP
00000001E0
00000002F8
00000003F8
0000000BF8
0000001FF0
0000003FC0
000000BE00
000002F400
0000014000
0000000000
007E001F90
00FF80BFF4
007FC2FFF8
003F8BD7F8
007F5F07F8
00BF7C0BF4
00FEF40FF0
01FFD02FD0
02FF803FC0
03FE00BF80
07FC00FF00
0FF401FE00
1FE002FD00
2FD002FC00
7F8002FC10
BF4002FFF0
FE0001FFE0
6D00007F40
ENDCHAR
STARTCHAR Ncommaaccent
ENCODING 325
SWIDTH 708 0
DWIDTH 25 0
BBX 28 37 0 -10
BITMAP
000001BD0007E4
000007FD000FFC
00001FFD0007FE
00007FFC0002FE
0000FFFC0002FF
0002F7F80001FE
0007E3F80002FE
000BD3F80002FD
001F83F80003FC
002F43FC0007F4
007F03FC000BF0
00BD03FC000FD0
00FC03FD001FC0
01F802FD002F40
02F402FE007F00
03F001FE00BD00
07E001FF00F800
0BD000FF02F400
0FD000BF43E000
1FC0007F87C000
2F80007FCF8000
3F40003FEF0000
3F40001FFE0000
7F00000FFD0000
7F000007FC0000
7E000002FC0000
2D000000B80000
00000000000000
00000000000000
00002F80000000
00007FC0000000
00003FC0000000
00002F80000000
00002F40000000
00007E00000000
0000F800000000
0002D000000000
ENDCHAR
STARTCHAR ncommaaccent
ENCODING 326
SWIDTH 561 0
DWIDTH 20 0
BBX 19 28 0 -10
BITMAP
007E001F90
00FF80BFF4
007FC2FFF8
003F8BD7F8
007F5F07F8
00BF7C0BF4
00FEF40FF0
01FFD02FD0
02FF803FC0
03FE00BF80
07FC00FF00
0FF401FE00
1FE002FD00
2FD002FC00
7F8002FC10
BF4002FFF0
FE0001FFE0
6D00007F40
0000000000
0014000000
00BE000000
01FF400000
00BF400000
007F000000
00BD000000
00F8000000
03E0000000
0740000000
ENDCHAR
STARTCHAR Ncaron
ENCODING 327
SWIDTH 708 0
DWIDTH 25 0
BBX 29 35 0 0
BITMAP
0000000015000100
00000000BF801F40
000000003FD0BF40
000000001FF7FD00
000000000BFFD000
0000000007F90000
0000000001400000
0000000000000000
000001BD0007E400
000007FD000FFC00
00001FFD0007FE00
00007FFC0002FE00
0000FFFC0002FF00
0002F7F80001FE00
0007E3F80002FE00
000BD3F80002FD00
001F83F80003FC00
002F43FC0007F400
007F03FC000BF000
00BD03FC000FD000
00FC03FD001FC000
01F802FD002F4000
02F402FE007F0000
03F001FE00BD0000
07E001FF00F80000
0BD000FF02F40000
0FD000BF43E00000
1FC0007F87C00000
2F80007FCF800000
3F40003FEF000000
3F40001FFE000000
7F00000FFD000000
7F000007FC000000
7E000002FC000000
2D000000B8000000
ENDCHAR
STARTCHAR ncaron
ENCODING 328
SWIDTH 561 0
DWIDTH 20 0
BBX 22 27 0 0
BITMAP
00000A4000D0
00001FD007E0
00000BE02FD0
000007F1FF40
000003FBF800
000002FF8000
000001F40000
000000000000
000000000000
007E001F9000
00FF80BFF400
007FC2FFF800
003F8BD7F800
007F5F07F800
00BF7C0BF400
00FEF40FF000
01FFD02FD000
02FF803FC000
03FE00BF8000
07FC00FF0000
0FF401FE0000
1FE002FD0000
2FD002FC0000
7F8002FC1000
BF4002FFF000
FE0001FFE000
6D00007F4000
ENDCHAR
STARTCHAR Eng
ENCODING 330
SWIDTH 698 0
DWIDTH 25 0
BBX 28 37 0 -10
BITMAP
000001B80007E0
00000BFC001FF8
00002FFC000BFD
0000BFF80003FD
0001FFF40003FE
0003F7F40002FD
0007E7F40002FD
000FC7F40003FC
002F87F40003FC
003F07F40007F8
007E07F80007F4
00FD07F8000BF0
01FC07F8000FE0
02F403FC001FD0
03F003FC002FC0
07E003FD003F80
0BD002FE007F40
0FD001FF00BE00
1FC001FF00FD00
2F8000FF41FC00
3F4000BF82F400
7F00007FD7F000
7F00002FEBD000
BE00001FFF8000
BE00000BFF4000
7D000003FE0000
2C000007FC0000
0000000FF40000
0000002FE00000
0000007F800000
000001FF000000
000003FC000000
00000FF4000000
00007FD0000000
0001FE00000000
001FF800000000
001F9000000000
ENDCHAR
STARTCHAR eng
ENCODING 331
SWIDTH 561 0
DWIDTH 20 0
BBX 19 28 0 -10
BITMAP
007E001F90
00FF80BFF4
007FC2FFF8
003F8BD7F8
007F5F03F8
00BF7C07F4
00FEF407F4
01FFD00BF0
02FF800FE0
03FE001FD0
07FC002FC0
0FF4003F80
1FE000BF40
2FD000FF00
7F8001FD00
BF4002FC00
FE0007F800
6D000BF000
00001FE000
00003FC000
00007F4000
0000FF0000
0002FD0000
0007F40000
001FE00000
007F800000
02FE000000
02E4000000
ENDCHAR
STARTCHAR Omacron
ENCODING 332
SWIDTH 655 0
DWIDTH 24 0
BBX 24 33 2 0
BITMAP
000000BFFFFD
000002FFFFFD
000003FFFFF4
000000000000
000000000000
000000000000
000001AFE400
00001BFFFE00
00007FE06F80
0002FF400FD0
000BFC000BE0
002FF0000BF0
007FD0000BF0
00FF80000BF0
02FF00000BF0
07FD00000FF0
0BF800001FF0
0FF400001FE0
2FE000002FD0
2FD000003FC0
3FC00000BF80
7F800000FF40
BF400001FF00
BF400003FD00
BF00000BFC00
BF00001FF400
BF00003FE000
BF0000BF8000
7F0002FE0000
3F400BF80000
1FD07FE00000
07FFFE400000
00BFE4000000
ENDCHAR
STARTCHAR omacron
ENCODING 333
SWIDTH 514 0
DWIDTH 19 0
BBX 19 24 1 0
BITMAP
0001FFFFFC
0007FFFFF8
0007FFFFE0
0000000000
0000000000
0000000000
0001BF9000
000BFFF800
007FD1FD00
01FF40BF00
03FD00BF00
0BF800BF40
1FF400BF40
2FE000FF00
3FD001FF00
7FC002FE00
BF8003FD00
BF400BF800
BF401FF400
BF002FE000
7F40BF8000
3F86FE0000
1FFFF40000
02FE400000
ENDCHAR
STARTCHAR Obreve
ENCODING 334
SWIDTH 655 0
DWIDTH 24 0
BBX 24 35 2 0
BITMAP
0000001E000A
0000003F001E
0000007F81BD
0000003FFFF8
0000001FFFD0
00000006FA00
000000000000
000000000000
000001AFE400
00001BFFFE00
00007FE06F80
0002FF400FD0
000BFC000BE0
002FF0000BF0
007FD0000BF0
00FF80000BF0
02FF00000BF0
07FD00000FF0
0BF800001FF0
0FF400001FE0
2FE000002FD0
2FD000003FC0
3FC00000BF80
7F800000FF40
BF400001FF00
BF400003FD00
BF00000BFC00
BF00001FF400
BF00003FE000
BF0000BF8000
7F0002FE0000
3F400BF80000
1FD07FE00000
07FFFE400000
00BFE4000000
ENDCHAR
STARTCHAR obreve
ENCODING 335
SWIDTH 514 0
DWIDTH 19 0
BBX 20 27 1 0
BITMAP
00002D000C
00007D002D
0000BE00BC
0000BF46F4
00007FFFE0
00002FFF40
000006E800
0000000000
0000000000
0001BF9000
000BFFF800
007FD1FD00
01FF40BF00
03FD00BF00
0BF800BF40
1FF400BF40
2FE000FF00
3FD001FF00
7FC002FE00
BF8003FD00
BF400BF800
BF401FF400
BF002FE000
7F40BF8000
3F86FE0000
1FFFF40000
02FE400000
ENDCHAR
STARTCHAR Ohungarumlaut
ENCODING 336
SWIDTH 655 0
DWIDTH 24 0
BBX 25 35 2 0
BITMAP
00000001900900
00000002F01F40
00000003F02F40
0000000BE07F00
0000001FC0BD00
0000007F02F400
000000B8078000
00000000000000
000001AFE40000
00001BFFFE0000
00007FE06F8000
0002FF400FD000
000BFC000BE000
002FF0000BF000
007FD0000BF000
00FF80000BF000
02FF00000BF000
07FD00000FF000
0BF800001FF000
0FF400001FE000
2FE000002FD000
2FD000003FC000
3FC00000BF8000
7F800000FF4000
BF400001FF0000
BF400003FD0000
BF00000BFC0000
BF00001FF40000
BF00003FE00000
BF0000BF800000
7F0002FE000000
3F400BF8000000
1FD07FE0000000
07FFFE40000000
00BFE400000000
ENDCHAR
STARTCHAR ohungarumlaut
ENCODING 337
SWIDTH 514 0
DWIDTH 19 0
BBX 20 28 1 0
BITMAP
000003C02D
000007D03E
00000FD0BE
00001FC0FD
00003F42F8
0000BE07E0
0002F81F80
000BD07E00
0005005000
0000000000
0001BF9000
000BFFF800
007FD1FD00
01FF40BF00
03FD00BF00
0BF800BF40
1FF400BF40
2FE000FF00
3FD001FF00
7FC002FE00
BF8003FD00
BF400BF800
BF401FF400
BF002FE000
7F40BF8000
3F86FE0000
1FFFF40000
02FE400000
ENDCHAR
STARTCHAR OE
ENCODING 338
SWIDTH 900 0
DWIDTH 32 0
BBX 33 27 4 0
BITMAP
000001AFE401BFE400
00001FFFFE6FFFFF00
0000BFD07FFFE41F80
0003FE001FFF400FC0
000FF8000FFC000FC0
002FE0002FF4002F80
00BFC0003FD000BF40
01FF4000BF8007FF00
03FE0000BF401FFD00
07FC0000FF002FF400
0FF40000FE000B9000
1FF00000BE00000000
2FE000007F00000000
3FC000003FEA800000
7F8000000BFFD00000
BF4000001FFF900000
FF000000BFF4000000
FF000002FF80000000
FE000007FE00000000
FE00000FF800000000
FE00002FF000040000
FE0000BFE0001D0000
BE0002FFD0007D0000
7F400BFFE002FD0000
2FD07FEFF41FF40000
0BFFFF47FFFFD00000
01BFE4006FF9000000
ENDCHAR
STARTCHAR oe
ENCODING 339
SWIDTH 777 0
DWIDTH 28 0
BBX 26 18 2 0
BITMAP
0001BF9002FE40
001BFFF42FFFD0
007FD1FDBE4BE0
01FF00FFF807F0
07FD00FFF007F0
0BF800FFD00BF0
1FF000FFC01FE0
3FD001FF407FD0
7FC002FF01FF80
BF8003FE1BFD00
BF4007FFFFE000
FF000BFFE90000
FF001FFC000000
BF003FFC000100
BF00BFFD001F00
3F87FFFF41BE00
1FFFF87FFFF800
06FE801BFE9000
ENDCHAR
STARTCHAR Racute
ENCODING 340
SWIDTH 623 0
DWIDTH 22 0
BBX 24 36 -1 -1
BITMAP
0000000002E0
0000000003F4
000000000BF4
000000001FF0
000000007F80
00000000FD00
000000005000
000000000000
00001AFFE400
0006FFFFFF80
002FFE501BE0
003FE00002F8
001F464001FC
00001FC001FD
00003FC001FE
00007F8001FD
0000FF4003FD
0001FF0007FC
0002FE001FF4
0003FD007FE0
0007FC02FF80
000BF41FFE00
000FFAFFE400
001FFFFE4000
002FDBF40000
007FC2FC0000
00BF41FE0000
00FF00BF4000
02FE007F8000
03FC002FD000
0BF4001FF000
1FE0000BF800
3FC00007FE00
FF400001FFF4
B80000007FE0
000000000500
ENDCHAR
STARTCHAR racute
ENCODING 341
SWIDTH 407 0
DWIDTH 15 0
BBX 17 28 0 0
BITMAP
0000001E00
0000002F80
0000007F80
000000BF40
000001FE00
000003F800
00000FE000
00002F4000
0000140000
0000000000
00BE007E00
01FF42FF00
00BF4BFF40
007F5FFF00
00BF3D2D00
00BEB40000
00FDE00000
01FE800000
02FF000000
03FE000000
07FC000000
0BF4000000
0FF0000000
1FD0000000
3FC0000000
7F80000000
7F40000000
1E00000000
ENDCHAR
STARTCHAR Rcommaaccent
ENCODING 342
SWIDTH 623 0
DWIDTH 22 0
BBX 24 37 -1 -10
BITMAP
00001AFFE400
0006FFFFFF80
002FFE501BE0
003FE00002F8
001F464001FC
00001FC001FD
00003FC001FE
00007F8001FD
0000FF4003FD
0001FF0007FC
0002FE001FF4
0003FD007FE0
0007FC02FF80
000BF41FFE00
000FFAFFE400
001FFFFE4000
002FDBF40000
007FC2FC0000
00BF41FE0000
00FF00BF4000
02FE007F8000
03FC002FD000
0BF4001FF000
1FE0000BF800
3FC00007FE00
FF400001FFF4
B80000007FE0
000000000500
000140000000
001FD0000000
002FE0000000
000FE0000000
000BE0000000
000FC0000000
002F40000000
007D00000000
00A400000000
ENDCHAR
STARTCHAR rcommaaccent
ENCODING 343
SWIDTH 407 0
DWIDTH 15 0
BBX 19 28 -2 -10
BITMAP
000BE007D0
001FF42FF0
000BF4BFF4
000BF5FFF0
000BF3D2D0
000BEB4000
000FDE0000
001FE80000
002FF00000
003FE00000
007FC00000
00BF400000
00FF000000
01FD000000
03FC000000
07F8000000
07F4000000
01E0000000
0000000000
0100000000
1FC0000000
3FD0000000
1FD0000000
0FD0000000
1F80000000
3F00000000
BD00000000
E000000000
ENDCHAR
STARTCHAR Rcaron
ENCODING 344
SWIDTH 623 0
DWIDTH 22 0
BBX 24 36 -1 -1
BITMAP
000000140005
000000FF401F
0000007FC1BE
0000002FEBFC
0000000FFF90
0000000BF400
000000014000
000000000000
00001AFFE400
0006FFFFFF80
002FFE501BE0
003FE00002F8
001F464001FC
00001FC001FD
00003FC001FE
00007F8001FD
0000FF4003FD
0001FF0007FC
0002FE001FF4
0003FD007FE0
0007FC02FF80
000BF41FFE00
000FFAFFE400
001FFFFE4000
002FDBF40000
007FC2FC0000
00BF41FE0000
00FF00BF4000
02FE007F8000
03FC002FD000
0BF4001FF000
1FE0000BF800
3FC00007FE00
FF400001FFF4
B80000007FE0
000000000500
ENDCHAR
STARTCHAR rcaron
ENCODING 345
SWIDTH 407 0
DWIDTH 15 0
BBX 20 27 0 0
BITMAP
0001A4001D
0001FC007D
0000FE02FC
0000BE1FE0
00007FBF40
00003FF400
00002E4000
0000000000
0000000000
00BE007E00
01FF42FF00
00BF4BFF40
007F5FFF00
00BF3D2D00
00BEB40000
00FDE00000
01FE800000
02FF000000
03FE000000
07FC000000
0BF4000000
0FF0000000
1FD0000000
3FC0000000
7F80000000
7F40000000
1E00000000
ENDCHAR
STARTCHAR Sacute
ENCODING 346
SWIDTH 474 0
DWIDTH 17 0
BBX 21 35 1 0
BITMAP
000000002E00
000000003F40
00000000BF40
00000001FF00
00000007F800
0000001FD000
000000050000
000000000000
00001BF90000
0001FFFF8000
000BF90BE000
002FD002F400
007F4002F800
00FF0002F800
01FD0003F800
02FD0007F800
03FC000FF400
03FC007FF000
03FD00FFD000
03FE00FF8000
02FF40690000
01FF80000000
00FFD0000000
007FF4000000
002FF8000000
000BFD000000
0003FE000000
0401FF000000
7D00BF000000
BD007F000000
FD007E000000
FE00BD000000
BF42F4000000
3FFFD0000000
0BFA00000000
ENDCHAR
STARTCHAR sacute
ENCODING 347
SWIDTH 423 0
DWIDTH 15 0
BBX 17 28 0 0
BITMAP
0000001F40
0000002F80
0000003FC0
0000007F80
000000FF00
000002FD00
00000BF400
00002F8000
0000140000
0000000000
0006FF9000
002FFFF400
007F47FC00
00FD01FD00
01FD01FC00
01FD01F400
01FF004000
00FF800000
00BFD00000
003FF00000
001FF80000
000BFC0000
1903FD0000
3E01FD0000
BE01FC0000
7F97F80000
2FFFD00000
06FE000000
ENDCHAR
STARTCHAR Scircumflex
ENCODING 348
SWIDTH 474 0
DWIDTH 17 0
BBX 21 35 1 0
BITMAP
000000009000
00000007F400
0000001FF800
000000BFFD00
00000BF8FF00
00003FD07F80
000005000500
000000000000
00001BF90000
0001FFFF8000
000BF90BE000
002FD002F400
007F4002F800
00FF0002F800
01FD0003F800
02FD0007F800
03FC000FF400
03FC007FF000
03FD00FFD000
03FE00FF8000
02FF40690000
01FF80000000
00FFD0000000
007FF4000000
002FF8000000
000BFD000000
0003FE000000
0401FF000000
7D00BF000000
BD007F000000
FD007E000000
FE00BD000000
BF42F4000000
3FFFD0000000
0BFA00000000
ENDCHAR
STARTCHAR scircumflex
ENCODING 349
SWIDTH 423 0
DWIDTH 15 0
BBX 18 28 0 0
BITMAP
0000001800
0000007F00
000001FF40
00000BFF40
00002FAF80
0002FE1FC0
001FF40FD0
001F8007E0
0000000000
0000000000
0006FF9000
002FFFF400
007F47FC00
00FD01FD00
01FD01FC00
01FD01F400
01FF004000
00FF800000
00BFD00000
003FF00000
001FF80000
000BFC0000
1903FD0000
3E01FD0000
BE01FC0000
7F97F80000
2FFFD00000
06FE000000
ENDCHAR
STARTCHAR Scedilla
ENCODING 350
SWIDTH 474 0
DWIDTH 17 0
BBX 19 35 1 -8
BITMAP
00001BF900
0001FFFF80
000BF90BE0
002FD002F4
007F4002F8
00FF0002F8
01FD0003F8
02FD0007F8
03FC001FF4
03FD007FE0
03FD01FFC0
02FE00BF40
02FF401400
01FF800000
00BFE00000
003FF40000
001FFC0000
0007FD0000
0002FE0000
2D00FF0000
BD007F0000
FD007F0000
FD007E0000
FF41FD0000
BFFFF40000
2FFFD00000
06F9000000
00F4000000
00B8000000
00FC000000
02F8000000
1BF8000000
3FF0000000
2FD0000000
0500000000
ENDCHAR
STARTCHAR scedilla
ENCODING 351
SWIDTH 423 0
DWIDTH 15 0
BBX 16 26 0 -8
BITMAP
0002FF90
001FFFF4
007F47FC
00FD01FD
01FD01FC
02FD01F4
01FF0040
00FF8000
00BFD000
003FF000
001FF800
000BFC00
1D03FD00
7E01FD00
BE01FC00
7F87F800
2FFFE000
07FE4000
01F00000
00F40000
01F80000
02F80000
07F40000
3FF00000
3FE00000
1F400000
ENDCHAR
STARTCHAR Scaron
ENCODING 352
SWIDTH 474 0
DWIDTH 17 0
BBX 22 35 1 0
BITMAP
000001400050
00000FF001E0
00000BFC1BE0
000002FDBFC0
000001FFF900
000000BF8000
000000140000
000000000000
00001BF90000
0001FFFF8000
000BF90BE000
002FD002F400
007F4002F800
00FF0002F800
01FD0003F800
02FD0007F800
03FC000FF400
03FC007FF000
03FD00FFD000
03FE00FF8000
02FF40690000
01FF80000000
00FFD0000000
007FF4000000
002FF8000000
000BFD000000
0003FE000000
0401FF000000
7D00BF000000
BD007F000000
FD007E000000
FE00BD000000
BF42F4000000
3FFFD0000000
0BFA00000000
ENDCHAR
STARTCHAR scaron
ENCODING 353
SWIDTH 423 0
DWIDTH 15 0
BBX 20 27 0 0
BITMAP
000068000A
0000BE002F
00007F41FE
00003F4BF8
00002FBF90
00001FF900
00000F9000
0000000000
0000000000
0006FF9000
002FFFF400
007F47FC00
00FD01FD00
01FD01FC00
01FD01F400
01FF004000
00FF800000
00BFD00000
003FF00000
001FF80000
000BFC0000
1903FD0000
3E01FD0000
BE01FC0000
7F97F80000
2FFFD00000
06FE000000
ENDCHAR
STARTCHAR Tcommaaccent
ENCODING 354
SWIDTH 471 0
DWIDTH 17 0
BBX 21 37 2 -10
BITMAP
02FFA4000180
1FFFFFA40780
3FFFFFFFFF40
7FD01FFFFE00
BF402FEBF800
BE003FC00000
7D007F800000
1800BF400000
0000FF000000
0001FF000000
0002FE000000
0003FD000000
0007FC000000
000BF8000000
000FF4000000
001FF0000000
001FE0000000
002FD0000000
003FC0000000
007F40000000
00FF00000000
01FD00000000
03FC00000000
07F400000000
1FE000000000
7F8000000000
7D0000000000
000000000000
010000000000
1FD000000000
3FE000000000
1FE000000000
0FD000000000
1FC000000000
2F4000000000
BD0000000000
E00000000000
ENDCHAR
STARTCHAR tcommaaccent
ENCODING 355
SWIDTH 358 0
DWIDTH 13 0
BBX 14 32 0 -10
BITMAP
0000B800
0002FC00
0007F800
000FF000
02FFFFF0
06FFFF90
007F4000
00BF0000
00FE0000
01FD0000
02FC0000
03F80000
07F40000
0BF00000
0BE00000
0FE00000
0FD00000
0FD01800
0FE0BC00
0FFFF400
07FFD000
01FE4000
00000000
01400000
1FD00000
2FF00000
0FF00000
0BE00000
0FC00000
2F400000
7D000000
A4000000
ENDCHAR
STARTCHAR Tcaron
ENCODING 356
SWIDTH 471 0
DWIDTH 17 0
BBX 22 35 2 0
BITMAP
000001400050
00000FF002E0
00000BFC1BE0
000002FEBF80
000001FFF900
000000BF4000
000000140000
000000000000
02FFEA500680
1FFFFFFFFF80
3FFFFFFFFF00
BFD01FFBF800
BF002FD00000
7D003FC00000
18007F800000
0000BF400000
0000FF000000
0001FE000000
0002FD000000
0003FC000000
0007F8000000
000BF4000000
000FF4000000
001FF0000000
002FD0000000
002FC0000000
003F80000000
00BF40000000
00FF00000000
01FD00000000
03F800000000
07F400000000
1FE000000000
7F8000000000
7D0000000000
ENDCHAR
STARTCHAR tcaron
ENCODING 357
SWIDTH 497 0
DWIDTH 18 0
BBX 19 30 3 0
BITMAP
0000000150
00000007F4
0000000BF4
00000007F4
00000003F4
00000007E0
0000000BD0
0007801F40
000FE03D00
002FD06400
003FC00000
00BF400000
2FFFFF8000
2FFFF90000
03FC000000
07F4000000
0BF0000000
0FE0000000
1FD0000000
2FC0000000
3F80000000
3F80000000
7F40000000
7F00000000
BF00000000
BE00900000
BF06D00000
7FFFC00000
3FFE000000
0BE4000000
ENDCHAR
STARTCHAR Tbar
ENCODING 358
SWIDTH 471 0
DWIDTH 17 0
BBX 21 27 2 0
BITMAP
02FFEA500680
1FFFFFFFFF80
3FFFFFFFFF00
BFD01FFBF800
BF002FD00000
7D003FC00000
18007F800000
0000BF400000
0000FF000000
0001FE000000
0002FD000000
0003FC000000
2FFFFFE00000
7FFFFFD00000
6BFFFE400000
000FF0000000
001FE0000000
002FD0000000
003F80000000
007F40000000
00BF00000000
01FE00000000
02FC00000000
07F400000000
1FE000000000
7F8000000000
7D0000000000
ENDCHAR
STARTCHAR tbar
ENCODING 359
SWIDTH 358 0
DWIDTH 13 0
BBX 14 23 0 0
BITMAP
0000B800
0002FC00
0003FC00
000BF400
000FF000
02FFFFF0
06FFFF90
007F4000
00BF0000
00FE0000
01FD0000
1FFFFFD0
7FFFFF40
07F40000
0BF00000
0BE00000
0FE00000
0FD00000
0FD01800
0FE0BC00
0FFFF400
07FFD000
01FE4000
ENDCHAR
STARTCHAR Utilde
ENCODING 360
SWIDTH 624 0
DWIDTH 22 0
BBX 25 35 0 0
BITMAP
0000000BE00240
0000007FF80740
000001FFFE1F00
000002E1FFFD00
000003807FF400
000003401F9000
00000000000000
00000000000000
0002FD00001E40
0007FF00003FC0
0002FF00007F80
0000FF0000FF00
0001FE0001FE00
0002FD0003FD00
0003FC0007FC00
000BF8000FF400
000FF0002FF000
001FE0003FE000
003FD000BFD000
007F8000FFC000
00BF4002FF8000
00FE0007FF4000
02FD000BFF0000
03FC001FFE0000
07F4003FFD0000
0BF000BEFC0000
1FE001F6F80000
2FD003E3F80000
3FC00BC7F40000
3F801F47F40000
7F807D0BF00000
7FC2F40BF45000
3FFFD007FFE000
2FFF4003FFD000
0BF40001BE0000
ENDCHAR
STARTCHAR utilde
ENCODING 361
SWIDTH 553 0
DWIDTH 20 0
BBX 21 27 1 0
BITMAP
000007E00280
00002FFC0380
0000BFFE1F40
0001F4FFFE00
0002C07FF800
0002801BD000
000000000000
000000000000
000000000000
01BD0001E400
03FF0007F800
01FF000BF400
00FF001FE000
01FE003FD000
02FD00BF8000
03FC00FF4000
0BF802FF0000
0FF007FD0000
1FE00FFC0000
3FD02FF80000
7F80BAF40000
BF41F3F00000
FF07D7F00000
FE1F4BF04000
FFFD0BFFC000
BFF407FF4000
2F8001F90000
ENDCHAR
STARTCHAR Umacron
ENCODING 362
SWIDTH 624 0
DWIDTH 22 0
BBX 25 33 0 0
BITMAP
000000BFFFFD00
000002FFFFFD00
000003FFFFF400
00000000000000
00000000000000
00000000000000
0002FD00001E40
0007FF00003FC0
0002FF00007F80
0000FF0000FF00
0001FE0001FE00
0002FD0003FD00
0003FC0007FC00
000BF8000FF400
000FF0002FF000
001FE0003FE000
003FD000BFD000
007F8000FFC000
00BF4002FF8000
00FE0007FF4000
02FD000BFF0000
03FC001FFE0000
07F4003FFD0000
0BF000BEFC0000
1FE001F6F80000
2FD003E3F80000
3FC00BC7F40000
3F801F47F40000
7F807D0BF00000
7FC2F40BF45000
3FFFD007FFE000
2FFF4003FFD000
0BF40001BE0000
ENDCHAR
STARTCHAR umacron
ENCODING 363
SWIDTH 553 0
DWIDTH 20 0
BBX 20 24 1 0
BITMAP
0000BFFFFE
0002FFFFFE
0002FFFFF8
0000000000
0000000000
0000000000
01BD0001E4
03FF0007F8
01FF000BF4
00FF001FE0
01FE003FD0
02FD00BF80
03FC00FF40
0BF802FF00
0FF007FD00
1FE00FFC00
3FD02FF800
7F80BAF400
BF41F3F000
FF07D7F000
FE1F4BF040
FFFD0BFFC0
BFF407FF40
2F8001F900
ENDCHAR
STARTCHAR Ubreve
ENCODING 364
SWIDTH 624 0
DWIDTH 22 0
BBX 25 35 0 0
BITMAP
0000001E000A00
0000003F002E00
0000007F81BD00
0000003FFFF400
0000001FFFD000
00000006FA0000
00000000000000
00000000000000
0002FD00001E40
0007FF00003FC0
0002FF00007F80
0000FF0000FF00
0001FE0001FE00
0002FD0003FD00
0003FC0007FC00
000BF8000FF400
000FF0002FF000
001FE0003FE000
003FD000BFD000
007F8000FFC000
00BF4002FF8000
00FE0007FF4000
02FD000BFF0000
03FC001FFE0000
07F4003FFD0000
0BF000BEFC0000
1FE001F6F80000
2FD003E3F80000
3FC00BC7F40000
3F801F47F40000
7F807D0BF00000
7FC2F40BF45000
3FFFD007FFE000
2FFF4003FFD000
0BF40001BE0000
ENDCHAR
STARTCHAR ubreve
ENCODING 365
SWIDTH 553 0
DWIDTH 20 0
BBX 20 27 1 0
BITMAP
00000B0006
00002F400F
00003F402E
00003FD1FD
00002FFFF4
00000FFFD0
000002B900
0000000000
0000000000
01BD0001E4
03FF0007F8
01FF000BF4
00FF001FE0
01FE003FD0
02FD00BF80
03FC00FF40
0BF802FF00
0FF007FD00
1FE00FFC00
3FD02FF800
7F80BAF400
BF41F3F000
FF07D7F000
FE1F4BF040
FFFD0BFFC0
BFF407FF40
2F8001F900
ENDCHAR
STARTCHAR Uring
ENCODING 366
SWIDTH 624 0
DWIDTH 22 0
BBX 25 35 0 0
BITMAP
00000000BF9000
00000007FFF000
0000000FD2F800
0000002F81F800
0000003F41F800
0000003F02F400
0000003F03E000
0000001F4B8000
0002FD06F91E40
0007FF00003FC0
0002FF00007F80
0000FF0000FF00
0001FE0001FE00
0002FD0003FD00
0003FC0007FC00
000BF8000FF400
000FF0002FF000
001FE0003FE000
003FD000BFD000
007F8000FFC000
00BF4002FF8000
00FE0007FF4000
02FD000BFF0000
03FC001FFE0000
07F4003FFD0000
0BF000BEFC0000
1FE001F6F80000
2FD003E3F80000
3FC00BC7F40000
3F801F07F40000
7F807D0BF00000
7FC2F40BF45000
3FFFD007FFE000
2FFF4003FFD000
0BF40001BE0000
ENDCHAR
STARTCHAR uring
ENCODING 367
SWIDTH 553 0
DWIDTH 20 0
BBX 19 28 1 0
BITMAP
000000BF90
000007FFF4
00000FD1F8
00002F81FC
00002F41F8
00002F87F4
00001FFFD0
000006FE00
0000000000
0000000000
01BD0001E4
03FF0007F8
01FF000BF4
00FF001FE0
01FE003FD0
02FD00BF80
03FC00FF40
0BF802FF00
0FF007FD00
1FE00FFC00
3FD02FF800
7F80BAF400
BF41F3F000
FF07D7F000
FE1F4BF040
FFFD0BFFC0
BFF407FF40
2F8001F900
ENDCHAR
STARTCHAR Uhungarumlaut
ENCODING 368
SWIDTH 624 0
DWIDTH 22 0
BBX 25 35 0 0
BITMAP
00000001900900
00000003F02F40
00000003F02F40
0000000BE07F00
0000001FC0FD00
0000007E02F400
000000F80B8000
00000000000000
0002FD00001E40
0007FF00003FC0
0002FF00007F80
0000FF0000FF00
0001FE0001FE00
0002FD0003FD00
0003FC0007FC00
000BF8000FF400
000FF0002FF000
001FE0003FE000
003FD000BFD000
007F8000FFC000
00BF4002FF8000
00FE0007FF4000
02FD000BFF0000
03FC001FFE0000
07F4003FFD0000
0BF000BEFC0000
1FE001F6F80000
2FD003E3F80000
3FC00BC7F40000
3F801F47F40000
7F807D0BF00000
7FC2F40BF45000
3FFFD007FFE000
2FFF4003FFD000
0BF40001BE0000
ENDCHAR
STARTCHAR uhungarumlaut
ENCODING 369
SWIDTH 553 0
DWIDTH 20 0
BBX 21 28 1 0
BITMAP
000001E00F40
000002F41F80
000003F42F80
00000BE07F00
00001FC0FD00
00003F42F800
0000BD0BE000
0002E42F4000
000140140000
000000000000
01BD0001E400
03FF0007F800
01FF000BF400
00FF001FE000
01FE003FD000
02FD00BF8000
03FC00FF4000
0BF802FF0000
0FF007FD0000
1FE00FFC0000
3FD02FF80000
7F80BAF40000
BF41F3F00000
FF07D7F00000
FE1F4BF04000
FFFD0BFFC000
BFF407FF4000
2F8001F90000
ENDCHAR
STARTCHAR Uogonek
ENCODING 370
SWIDTH 684 0
DWIDTH 25 0
BBX 25 36 1 -9
BITMAP
0001FD00001F40
0007FF00002FC0
0001FF40007F80
0000FF0000BF40
0001FE0001FE00
0002FD0003FD00
0003FC0007FC00
0007F8000FF800
000FF4001FF400
001FE0003FE000
002FD0007FD000
007F8000FFC000
00BF4002FF8000
00FF0003FF4000
02FD000BFF0000
03FC001FFE0000
07F8003FFD0000
0BF000BEFC0000
0FE000F6FC0000
1FD002E3F80000
2FC00BC7F40000
3FC01F47F40000
3F807D07F40000
7FC2F407F85000
3FFFD007FFE000
2FFF4003FFD000
07F80001BF4000
00000000F80000
00000003E00000
0000000FC00000
0000002F800000
0000003F400000
0000007F480000
0000007FFC0000
0000007FF40000
0000002F800000
ENDCHAR
STARTCHAR uogonek
ENCODING 371
SWIDTH 553 0
DWIDTH 20 0
BBX 19 27 1 -9
BITMAP
01BD0001E4
03FF0007F8
01FF000BF4
00FF001FE0
01FE003FD0
02FD00BF80
03FC00FF40
0BF802FF00
0FF007FD00
1FE00FFC00
3FD02FF800
7F80BAF400
BF41F3F000
FF07D7F000
FE1F4BF040
FFFD0BFFC0
BFF407FF40
2F8001FE00
000001F400
000007D000
00001F8000
00003F0000
00007F0000
0000BF1400
0000FFF400
0000BFE000
00002E4000
ENDCHAR
STARTCHAR Wcircumflex
ENCODING 372
SWIDTH 941 0
DWIDTH 34 0
BBX 34 35 2 0
BITMAP
00000000000A000000
00000000002F800000
0000000001FFC00000
000000000BFFE00000
000000007FDBF40000
00000002FE03FC0000
000000005000540000
000000000000000000
01BF80000000001F40
1FFFF000000000BFD0
3FFFF800000000BFE0
2F91FC000000003FE0
0503FC000000002FF0
0007FC0000A4002FF0
000FF40007FC001FF0
002FF0002FF4001FE0
003FE000BFE0001FE0
00BFC003FF80002FD0
00FF800BFF40002FD0
01FF002FFE00003FC0
03FE00BFFD00007F80
07FC01FFF80000BF40
0BF807FBF40000FF00
0FF00FEBF00001FD00
1FE02F8FF00002FC00
2FD07E0FE00007F400
3FC0FC1FD0000FE000
7F82F41FD0001FC000
7F47D02FD0007F4000
7F0F802FC000FD0000
7F2F001FC002F40000
7F7D001FD00BD00000
3FF8000FE07F400000
1FE00007FFF8000000
0BC00001BE80000000
ENDCHAR
STARTCHAR wcircumflex
ENCODING 373
SWIDTH 750 0
DWIDTH 27 0
BBX 26 28 1 0
BITMAP
00000000140000
000000007E0000
00000002FF0000
0000000BFF4000
0000007FBF4000
000002FD2F8000
00002FE41FD000
00001F4007D000
00000000000000
00000000000000
02F90000002F40
07FF0006407FC0
02FF002FD03FD0
00FE003FC01FD0
00FE00BF401FD0
01FD00FF001FD0
02FC02FE001FC0
03F407FC001FC0
07F00FF8002F80
0FE02FF4003F00
1FD07FF0007E00
2FC1FBE000FC00
3F47DBE002F400
7F1F4BE007E000
BF7E0BF42F8000
BFF807FEFE0000
BFD002FFF40000
2E0000BE800000
ENDCHAR
STARTCHAR Ycircumflex
ENCODING 374
SWIDTH 580 0
DWIDTH 21 0
BBX 25 45 0 -10
BITMAP
00000000040000
000000002F4000
00000000BF8000
00000007FFC000
0000002FEFE000
000002FE4BF400
000002E402F400
00000000000000
0002F900001E40
0007FF00003F80
0002FF00007F80
0001FE0000FF00
0001FE0002FE00
0002FD0003FC00
0007F8000BF800
000BF4000FF400
000FF0002FF000
002FE0007FE000
003FC000BFD000
007F8001FFC000
00BF4002FF8000
01FE0007FF4000
02FD000FFE0000
03F8001FFD0000
0BF4003FFC0000
0FF000BFF80000
1FE001F7F40000
2FC003EBF00000
3FC00B8FE00000
7F802F1FD00000
7F807D3F800000
7F82F47F400000
7FFFD0BF000000
2FFF41FD000000
0BE403FC000000
000007F4000000
00000FE0000000
00002FC0000000
0000BF40000000
0001FD00000000
0007F800000000
001FE000000000
00BF8000000000
0BFD0000000000
0BA00000000000
ENDCHAR
STARTCHAR ycircumflex
ENCODING 375
SWIDTH 549 0
DWIDTH 20 0
BBX 19 38 1 -10
BITMAP
0000000500
0000002F80
000000BFC0
000002FFC0
00001FEFD0
0000BF4BE0
000BF807F0
000B9002F4
0000000000
0000000000
01BE0001F4
02FF4003F8
00FF400BF4
00FF001FF0
00FE002FE0
01FD007FD0
03FC00BFC0
07F801FF80
0BF403FF40
1FE00BFF00
2FD01FFE00
3FC07EFD00
7F40F6FC00
BF03E3F800
FF1F87F000
FFFE0BE000
BFF80FD000
2F901FC000
00003F4000
00007F0000
0000FD0000
0002F80000
000BF00000
001FD00000
00BF400000
06FE000000
2FF4000000
0A80000000
ENDCHAR
STARTCHAR Ydieresis
ENCODING 376
SWIDTH 580 0
DWIDTH 21 0
BBX 25 44 0 -10
BITMAP
000001B901BD00
000003FF03FF00
000007FF07FF00
000003FE03FE00
000001F801F800
00000000000000
00000000000000
0002F900001E40
0007FF00003F80
0002FF00007F80
0001FE0000FF00
0001FE0002FE00
0002FD0003FC00
0007F8000BF800
000BF4000FF400
000FF0002FF000
002FE0007FE000
003FC000BFD000
007F8001FFC000
00BF4002FF8000
01FE0007FF4000
02FD000FFE0000
03F8001FFD0000
0BF4003FFC0000
0FF000BFF80000
1FE001F7F40000
2FC003EBF00000
3FC00B8FE00000
7F802F1FD00000
7F807D3F800000
7F82F47F400000
7FFFD0BF000000
2FFF41FD000000
0BE403FC000000
000007F4000000
00000FE0000000
00002FC0000000
0000BF40000000
0001FD00000000
0007F800000000
001FE000000000
00BF8000000000
0BFD0000000000
0BA00000000000
ENDCHAR
STARTCHAR Zacute
ENCODING 377
SWIDTH 501 0
DWIDTH 18 0
BBX 23 35 -1 0
BITMAP
000000000F40
000000001FC0
000000003FC0
00000000BF80
00000002FE00
00000007E400
000000054000
000000000000
001E4005AF80
001FFFFFFFE0
001FFFFFEBF4
000FFFFE5FF4
0002FE907FE0
00000001FFC0
00000007FF40
0000000FFD00
0000003FF400
000000FFD000
000002FF4000
00000BFD0000
00002FF40000
0000BFD00000
0001FF400000
0007FD000000
001FF4000000
003FD0000000
00BF40000000
02FD00000000
07F800000000
0FE000000000
2FC06AFE0000
7F6FFFFFC000
7FFFFFFFE000
7FFE5007E000
2F900000A000
ENDCHAR
STARTCHAR zacute
ENCODING 378
SWIDTH 430 0
DWIDTH 15 0
BBX 18 28 0 0
BITMAP
0000000B80
0000000FD0
0000001FD0
0000003FC0
000000BF40
000001FE00
000007F400
00001F9000
0000050000
0000000000
00B9002E00
00BFFFFF40
007FFFFF40
001A95FF00
000007FD00
00002FF400
0000BFD000
0002FF4000
000FF80000
007FE00000
01FF800000
03FD000000
0BF4000000
2FD0000000
7F9ABA0000
BFFFFF8000
BFFEBFC000
2E4006C000
ENDCHAR
STARTCHAR Zdotaccent
ENCODING 379
SWIDTH 501 0
DWIDTH 18 0
BBX 23 35 -1 0
BITMAP
000000150000
0000007FC000
000000FFD000
000000FFD000
0000007F8000
000000190000
000000000000
000000000000
001E4005AF80
001FFFFFFFE0
001FFFFFEBF4
000FFFFE5FF4
0002FE907FE0
00000001FFC0
00000007FF40
0000000FFD00
0000003FF400
000000FFD000
000002FF4000
00000BFD0000
00002FF40000
0000BFD00000
0001FF400000
0007FD000000
001FF4000000
003FD0000000
00BF40000000
02FD00000000
07F800000000
0FE000000000
2FC06AFE0000
7F6FFFFFC000
7FFFFFFFE000
7FFE5007E000
2F900000A000
ENDCHAR
STARTCHAR zdotaccent
ENCODING 380
SWIDTH 430 0
DWIDTH 15 0
BBX 17 27 0 0
BITMAP
00001BD000
00003FF000
00007FF000
00003FE000
00001F8000
0000000000
0000000000
0000000000
0000000000
00B9002E00
00BFFFFF40
007FFFFF40
001A95FF00
000007FD00
00002FF400
0000BFD000
0002FF4000
000FF80000
007FE00000
01FF800000
03FD000000
0BF4000000
2FD0000000
7F9ABA0000
BFFFFF8000
BFFEBFC000
2E4006C000
ENDCHAR
STARTCHAR Zcaron
ENCODING 381
SWIDTH 501 0
DWIDTH 18 0
BBX 23 35 -1 0
BITMAP
000000500010
000007F800B4
000002FE07F4
000000FF7FE0
000000BFFE00
0000003F9000
000000040000
000000000000
001E4005AF80
001FFFFFFFE0
001FFFFFEBF4
000FFFFE5FF4
0002FE907FE0
00000001FFC0
00000007FF40
0000000FFD00
0000003FF400
000000FFD000
000002FF4000
00000BFD0000
00002FF40000
0000BFD00000
0001FF400000
0007FD000000
001FF4000000
003FD0000000
00BF40000000
02FD00000000
07F800000000
0FE000000000
2FC06AFE0000
7F6FFFFFC000
7FFFFFFFE000
7FFE5007E000
2F900000A000
ENDCHAR
STARTCHAR zcaron
ENCODING 382
SWIDTH 430 0
DWIDTH 15 0
BBX 19 27 0 0
BITMAP
0001A00028
0002F800BC
0001FD07F8
0000FE2FE0
0000BEFF40
00007FF400
00003E4000
0000000000
0000000000
00B9002E00
00BFFFFF40
007FFFFF40
001A95FF00
000007FD00
00002FF400
0000BFD000
0002FF4000
000FF80000
007FE00000
01FF800000
03FD000000
0BF4000000
2FD0000000
7F9ABA0000
BFFFFF8000
BFFEBFC000
2E4006C000
ENDCHAR
STARTCHAR florin
ENCODING 402
SWIDTH 466 0
DWIDTH 17 0
BBX 28 39 -7 -10
BITMAP
00000000001BE0
0000000000BFFC
0000000002FD2D
0000000007F01F
000000000FD02F
000000002F803F
000000007F00BF
00000000BE02FE
00000000FD0BFC
00000002FC07F4
00000003F80150
00000007F40000
0000000BF00000
0000000FFF9000
0000006FFFF400
000006FFFFF800
00000FFFFFF800
00000FFF800000
000000BF400000
000000BF000000
000000FE000000
000001FE000000
000002FD000000
000002FC000000
000003F8000000
000007F8000000
00000BF4000000
00000FF0000000
00000FE0000000
00001FD0000000
00002FC0000000
00003F80000000
00007F40000000
1900FE00000000
7E01FD00000000
BE03F800000000
BF5FF000000000
3FFFC000000000
06FE0000000000
ENDCHAR
STARTCHAR AEacute
ENCODING 508
SWIDTH 878 0
DWIDTH 32 0
BBX 38 35 -3 0
BITMAP
000000000000003D0000
000000000000007F0000
00000000000000FF0000
00000000000002FE0000
0000000000000BF80000
0000000000001F900000
00000000000015000000
00000000000000000000
00000000006FE5AFE800
0000000002FFFFFFFF40
000000000FFFFFF50BC0
000000007FD2FF8007D0
00000000FF07FD000BD0
00000003F81FF8001FD0
0000000BF02FE0007FC0
0000002FD03FD002FF40
0000007F407F800FFE00
000000FE00BF400FF800
000002FC007F4007D000
000007F4007F40000000
00000FE0003F80000000
00002FEAFFFFEBD00000
0001BFFFFFFFFFF00000
000BFFFFFFFFFE400000
000BFC0000BFE0000000
0007F40002FF80000000
000BE00007FE00000000
001FD0000BF800000000
003F80000FF400050000
00BF00001FF0001F0000
01FE00001FF0007F0000
03FC00000FF402FE0000
1FF4000007FEAFF80000
7FD0000002FFFFD00000
6E400000006FF9000000
ENDCHAR
STARTCHAR aeacute
ENCODING 509
SWIDTH 770 0
DWIDTH 28 0
BBX 26 28 1 0
BITMAP
000000002E0000
000000007F4000
00000000BF4000
00000000FF0000
00000002FD0000
00000007F80000
0000001FD00000
0000007E400000
00000014000000
00000000000000
0000BF82E6FE40
0007FFFBFFFFD0
002FD0BFFD1FE0
00BF407FF40FF0
02FD007FE00FF0
07F400BFC01FF0
0FF000FF402FE0
2FD001FF00BFD0
3FC002FE02FF80
7F8003FD1FFE00
BF400BFFFFE400
BF401FFFE90000
BF002FFD000000
BF407FFD000100
BF41F6FD001F00
7F87D0FF41BF00
2FFF407FFFF800
07F8000BFE9000
ENDCHAR
STARTCHAR Scommaaccent
ENCODING 536
SWIDTH 474 0
DWIDTH 17 0
BBX 19 37 1 -10
BITMAP
00001BF900
0001FFFF80
000BF90BE0
002FD002F4
007F4002F8
00FF0002F8
01FD0003F8
02FD0007F8
03FC000FF4
03FC007FF0
03FD00FFD0
03FE00FF80
02FF406900
01FF800000
00FFD00000
007FF40000
002FF80000
000BFD0000
0003FE0000
0401FF0000
7D00BF0000
BD007F0000
FD007E0000
FE00BD0000
BF42F40000
3FFFD00000
0BFA000000
0000000000
0050000000
07F4000000
0BF8000000
07F8000000
02F8000000
03F0000000
0BD0000000
1F40000000
2900000000
ENDCHAR
STARTCHAR scommaaccent
ENCODING 537
SWIDTH 423 0
DWIDTH 15 0
BBX 16 28 0 -10
BITMAP
0006FF90
002FFFF4
007F47FC
00FD01FD
01FD01FC
01FD01F4
01FF0040
00FF8000
00BFD000
003FF000
001FF800
000BFC00
1903FD00
3E01FD00
BE01FC00
7F97F800
2FFFD000
06FE0000
00000000
00400000
07F40000
0FF80000
07F80000
03F40000
07E00000
0BC00000
2F400000
38000000
ENDCHAR
STARTCHAR dotlessj
ENCODING 567
SWIDTH 277 0
DWIDTH 10 0
BBX 15 28 -6 -10
BITMAP
00000BF4
00001FF8
00000BF8
00000BF8
00000BF4
00000BF4
00000FF0
00000FE0
00001FE0
00002FD0
00003FC0
00007F80
0000BF40
0000BF00
0000FE00
0002FD00
0003FC00
0007F400
000BF000
001FD000
002FC000
007F4000
00FE0000
02FC0000
07F40000
1FD00000
BF400000
F4000000
ENDCHAR
STARTCHAR circumflex
ENCODING 710
SWIDTH 354 0
DWIDTH 13 0
BBX 13 8 0 20
BITMAP
00006000
0001FC00
0007FD00
002FFD00
01BEBE00
0BF87F00
7FD03F40
7D001F80
ENDCHAR
STARTCHAR caron
ENCODING 711
SWIDTH 381 0
DWIDTH 14 0
BBX 13 7 1 20
BITMAP
29000340
7F401F80
2F80BF40
1FC7FD00
0FEFD000
0BFD0000
07900000
ENDCHAR
STARTCHAR breve
ENCODING 728
SWIDTH 344 0
DWIDTH 12 0
BBX 12 6 1 21
BITMAP
1E0009
7E002D
7F41FC
7FFFF4
2FFFD0
06F900
ENDCHAR
STARTCHAR dotaccent
ENCODING 729
SWIDTH 217 0
DWIDTH 8 0
BBX 6 5 2 22
BITMAP
1F80
7FE0
BFE0
7FD0
2F80
ENDCHAR
STARTCHAR ring
ENCODING 730
SWIDTH 402 0
DWIDTH 14 0
BBX 11 9 4 19
BITMAP
01BF80
07FFE0
1FD3F4
3F42F4
3F02F4
7E03F0
3F4BE0
2FFF80
07F900
ENDCHAR
STARTCHAR ogonek
ENCODING 731
SWIDTH 311 0
DWIDTH 11 0
BBX 10 11 1 -9
BITMAP
000150
001B80
007D00
02F400
0BD000
1F8000
3F4000
7F4400
7FFC00
7FF400
2F9000
ENDCHAR
STARTCHAR tilde
ENCODING 732
SWIDTH 397 0
DWIDTH 14 0
BBX 14 5 2 22
BITMAP
02F900A0
1FFF82E0
7FFFFFD0
B82FFF40
A006F800
ENDCHAR
STARTCHAR hungarumlaut
ENCODING 733
SWIDTH 392 0
DWIDTH 14 0
BBX 14 9 1 20
BITMAP
00140140
00BC07D0
00FC0BD0
01FC0FD0
03F42F80
0BE07F00
2F81FC00
7E07E000
E40B4000
ENDCHAR
STARTCHAR pi
ENCODING 960
SWIDTH 640 0
DWIDTH 23 0
BBX 25 18 -1 0
BITMAP
000AFFFFFFFF40
007FFFFFFFFF00
01FFFFFFFFFE00
01903E5AFF9000
00007D00FE0000
0000FC01FD0000
0001F802FC0000
0002F003F80000
0007E007F40000
000BD00BF00000
001FC00FE00000
003F801FD00000
00BF001FD00000
02FE002FC00000
0BFC002FD14000
7FF4001FFF4000
7FE0000FFE0000
2F400006F40000
ENDCHAR
STARTCHAR uni1E02
ENCODING 7682
SWIDTH 551 0
DWIDTH 20 0
BBX 21 35 1 0
BITMAP
000000150000
000000BF8000
000000FFC000
000000FFC000
000000BF4000
000000290000
000000000000
000000000000
0005AFFE4000
00BFFFFFF400
07FFE406FD00
0FFD0000BF00
07E140007F40
0007F4007F80
000FF8007F80
002FF0007F40
007FD000FF40
00FFC001FE00
01FF4007FD00
02FE001FF400
07FD00BFE000
0BF85BFF4000
0FFFFFF90000
1FFFFFF40000
1FF906FD0000
2FC000BF0000
3F80007F4000
3F40007F4000
7F00007F4000
7F0000FF0000
7F0002FD0000
7F001BF80000
3F95BFE00000
1FFFFE400000
06FE90000000
ENDCHAR
STARTCHAR uni1E03
ENCODING 7683
SWIDTH 525 0
DWIDTH 19 0
BBX 19 30 1 0
BITMAP
0001400000
0007E00000
000BF00000
000FF007E4
000FE01FF8
001FD01FFC
002FD01FF8
002FC00BE0
003F800000
007F400000
00BF000000
00FE000000
01FC1BE400
02F8BFFD00
03F6E0FF00
07FB80BF40
0BFE00BF80
0FFC00BF80
1FF400BF80
2FE000BF40
3FD000FF40
3F8001FF00
7F4002FE00
7F0007FC00
BE000BF400
BE002FE000
7E00BF8000
3F57FE0000
1FFFF40000
02FE400000
ENDCHAR
STARTCHAR uni1E0A
ENCODING 7690
SWIDTH 630 0
DWIDTH 23 0
BBX 23 35 1 0
BITMAP
000000054000
0000003FD000
0000007FE000
0000007FE000
0000003FD000
0000000A0000
000000000000
000000000000
0006BFF90000
01BFFFFFE400
07FFFFFFFE00
07FF9002FF80
01F800007FD0
000050001FE0
0003FD000FF0
000BFC000BF4
000FF4000BF4
002FF0000BF4
003FD0000BF4
00BF80000BF0
00FF40000FE0
01FF00001FE0
03FD00003FC0
07FC00007F80
0BF80000FF40
0FF40002FE00
1FF00007FC00
2FE0001FF000
2FD0007FD000
3FC001FF4000
7F800BFD0000
7F406FE00000
3F46FF800000
1FFFF8000000
06FE40000000
ENDCHAR
STARTCHAR uni1E0B
ENCODING 7691
SWIDTH 557 0
DWIDTH 20 0
BBX 23 30 1 0
BITMAP
000000000150
0000000007F4
000000000BF0
0006F4001FE0
000FFC002FD0
001FFC003FC0
000FF8007F40
0007E000BF00
00000000FE00
00000001FD00
00000002FC00
00000003F800
00006F97F400
0006FFFFF000
001FE47FE000
007F403FD000
01FD002FC000
03F8003F8000
0BF4007F4000
1FE000BF0000
2FD001FF0000
3FC002FE0000
7F8007FD0000
7F400FFC0000
7F402FFC0000
7F40BFF80000
7F82F6F81000
3FFFE2FFF000
1FFF81FFD000
06F9007E4000
ENDCHAR
STARTCHAR uni1E1E
ENCODING 7710
SWIDTH 518 0
DWIDTH 19 0
BBX 22 35 1 0
BITMAP
000000054000
0000002FF000
0000003FF400
0000003FF000
0000002FE000
000000064000
000000000000
000000000000
01BFEA5401D0
0BFFFFFFFFC0
1FFFFFFFFF80
3FE40BEBF900
3F801FD00000
2F002F800000
09007F800000
0000BF400000
0000FF000000
0001FE000000
0002FD000000
0003FC000000
0007FEFE0000
006FFFFF8000
01FFFFFF8000
01FFE0000000
002FD0000000
003FC0000000
00BF80000000
00FF00000000
01FE00000000
03FC00000000
07F800000000
0FF000000000
2FD000000000
BF4000000000
B80000000000
ENDCHAR
STARTCHAR uni1E1F
ENCODING 7711
SWIDTH 393 0
DWIDTH 14 0
BBX 21 40 -1 -5
BITMAP
000000150000
000000FF4000
000002FF8000
000002FF8000
000000FF0000
000000680000
0000001BE400
000000FFFD00
000003F83F00
00000BF03F40
00000FD07F40
00002FC0FF00
00003F82FE00
00007F42FD00
0000BF005000
0000FE000000
0000FE000000
0001FD000000
0002FC000000
0003FFF90000
006FFFFF4000
02FFFFFF4000
03FFE0000000
001FD0000000
002FC0000000
003F80000000
007F80000000
00BF40000000
00FF00000000
01FE00000000
01FD00000000
02FC00000000
03F800000000
0BF400000000
0FF000000000
1FE000000000
2FD000000000
7F8000000000
BF4000000000
7D0000000000
ENDCHAR
STARTCHAR uni1E40
ENCODING 7744
SWIDTH 931 0
DWIDTH 34 0
BBX 38 35 -4 0
BITMAP
00000000000000150000
00000000000000BF8000
00000000000001FFC000
00000000000001FF8000
00000000000000FF4000
00000000000000290000
00000000000000000000
00000000000000000000
0000000000BE40001BD0
0000000007FF8000BFE0
000000002FFF4003FFD0
00000000BDFF000FEFC0
00000002F5FE002F6F80
00000007E2FC00BE3F40
0000000FC3F801FCBF00
0000002F47F402F4FE00
0000007E0BF007E1FD00
000000FC0FE00FC2FC00
000002F41FD02F43F800
000007F02FD03F07F400
00000BD03FC0BD0BF000
00001F803F80FC0FE000
00003F407F42F41FD000
00007E00BF43E02FD000
0000FD00BF0BD03FC000
0002F800FF0F807F8000
0007F000FE2F407F4000
000BE000FE3E00BF4000
001FC000FEBD00BF0000
003F4001FEF800FF0000
00BE0001FFF000FF0000
02FC0000FFD000BF4600
0BF40000FF8000BFFF00
BFE00000BF00003FFD00
7E4000007D00001BE400
ENDCHAR
STARTCHAR uni1E41
ENCODING 7745
SWIDTH 814 0
DWIDTH 29 0
BBX 28 27 0 0
BITMAP
000000007E0000
00000001FF8000
00000002FF8000
00000001FF4000
00000000BE0000
00000000000000
00000000000000
00000000000000
00000000000000
007E401B9002F4
00FFC0BFF01FFD
007FC2FFF07FFE
003F8BD3F1F4FF
007F5F43E3D0FE
00BF7D07EB42FD
00FEF40BEE03FC
01FED00FFC0BF8
02FF802FF40FF0
03FE003FD01FE0
07FC00BF803FC0
0FF400FF007F80
1FE001FE007F40
2FD003FC00BF00
7F8007F800BF44
BF400BF000BFFC
FE000BE0003FF8
6D0006D0001F90
ENDCHAR
STARTCHAR uni1E56
ENCODING 7766
SWIDTH 553 0
DWIDTH 20 0
BBX 24 35 -1 0
BITMAP
000000001500
00000000BF80
00000001FFC0
00000001FF80
00000000FF40
000000002900
000000000000
000000000000
00001AFFA400
0006FFFFFF40
002FFF901FE0
003FF40007F4
003F800002FC
00191F4002FD
00003FC002FD
00007F8002FD
0000FF4003FC
0001FE000BF8
0002FD001FF4
0003FC007FE0
0007F802FF80
000BF41FFE00
001FF6FFF400
002FFFFE4000
003FFF940000
007F80000000
00BF40000000
01FF00000000
02FD00000000
03FC00000000
0BF400000000
1FE000000000
7F8000000000
FE0000000000
B80000000000
ENDCHAR
STARTCHAR uni1E57
ENCODING 7767
SWIDTH 550 0
DWIDTH 20 0
BBX 22 37 -3 -10
BITMAP
0000000BE000
0000002FF400
0000002FF800
0000002FF400
0000000BD000
000000010000
000000000000
000000000000
000000000000
0006F406F900
000FFC2FFF40
0003FDF93FC0
0002FFE02FD0
0003FF801FD0
0007FF001FD0
0007FD002FD0
000BF8002FD0
000FF4003FC0
001FE0007F80
001FD000FF40
002FC001FE00
003F8003FD00
007F800BF400
00BFC02FE000
00BFE5FF4000
00FEFFFD0000
01FC6F900000
02F800000000
03F800000000
07F400000000
0BF000000000
0FE000000000
1FD000000000
2FC000000000
7F8000000000
7F0000000000
2D0000000000
ENDCHAR
STARTCHAR uni1E60
ENCODING 7776
SWIDTH 474 0
DWIDTH 17 0
BBX 19 35 1 0
BITMAP
0000001500
000000FF40
000002FF80
000002FF80
000000FF00
0000006800
0000000000
0000000000
00001BF900
0001FFFF80
000BF90BE0
002FD002F4
007F4002F8
00FF0002F8
01FD0003F8
02FD0007F8
03FC000FF4
03FC007FF0
03FD00FFD0
03FE00FF80
02FF406900
01FF800000
00FFD00000
007FF40000
002FF80000
000BFD0000
0003FE0000
0401FF0000
7D00BF0000
BD007F0000
FD007E0000
FE00BD0000
BF42F40000
3FFFD00000
0BFA000000
ENDCHAR
STARTCHAR uni1E61
ENCODING 7777
SWIDTH 423 0
DWIDTH 15 0
BBX 16 27 0 0
BITMAP
000006F4
00000FFC
00001FFC
00000FF8
000007E0
00000000
00000000
00000000
00000000
0006FF90
002FFFF4
007F47FC
00FD01FD
01FD01FC
01FD01F4
01FF0040
00FF8000
00BFD000
003FF000
001FF800
000BFC00
1903FD00
3E01FD00
BE01FC00
7F97F800
2FFFD000
06FE0000
ENDCHAR
STARTCHAR uni1E6A
ENCODING 7786
SWIDTH 430 0
DWIDTH 15 0
BBX 21 35 1 0
BITMAP
000000150000
000000BF8000
000001FFC000
000001FF8000
000000FF4000
000000290000
000000000000
000000000000
01BFEA540680
1FFFFFFFFF80
3FFFFFFFFF40
7FD01FFBF900
7F001FD00000
7E003FC00000
18007F800000
0000BF400000
0000FF000000
0001FE000000
0002FE000000
0003FD000000
0007FC000000
0007F8000000
000BF4000000
000FF0000000
001FE0000000
002FD0000000
003FC0000000
007F40000000
00BF00000000
01FE00000000
02FC00000000
07F400000000
1FE000000000
7F8000000000
7D0000000000
ENDCHAR
STARTCHAR uni1E6B
ENCODING 7787
SWIDTH 358 0
DWIDTH 13 0
BBX 13 28 2 0
BITMAP
0000BE00
0002FF80
0002FF80
0002FF40
0000BD00
00029000
000BF000
000FE000
002FD000
003F8000
1FFFFFC0
1BFFFA40
02FD0000
03FC0000
07F80000
0BF40000
0FF00000
0FE00000
1FD00000
2FC00000
3F800000
3F800000
7F400000
7F406000
7F82F000
3FFFD000
2FFF4000
07F80000
ENDCHAR
STARTCHAR Wgrave
ENCODING 7808
SWIDTH 941 0
DWIDTH 34 0
BBX 34 35 2 0
BITMAP
000000000B40000000
000000002F80000000
000000003FC0000000
000000002FE0000000
000000000BF8000000
0000000002FD000000
000000000015000000
000000000000000000
01BF80000000001F40
1FFFF000000000BFD0
3FFFF800000000BFE0
1F91FC000000003FE0
0103FC000000002FF0
0007F80001A4002FF0
000FF4000BFC001FF0
002FF0002FF4001FE0
003FD000FFD0002FE0
00BFC007FF80002FD0
00FF400FFF00002FD0
01FF003FFE00003FC0
03FD00BFFC00007F80
07FC02FFF80000BF40
0BF407FBF40000FF00
0FF01FDBF00001FD00
1FE03F4FF00003FC00
2FC0BE1FE00007F400
3F81F81FD0000FE000
7F43F01FD0002FC000
7F4BD02FD000BF4000
7F1F802FC001FD0000
7F2E001FD007F40000
7FBD001FD02FD00000
3FF4000FFAFF400000
1FE00007FFF8000000
0BC00001BE80000000
ENDCHAR
STARTCHAR wgrave
ENCODING 7809
SWIDTH 750 0
DWIDTH 27 0
BBX 26 28 1 0
BITMAP
0000001F400000
0000007F400000
000000BF400000
0000007F400000
0000003F400000
0000002F800000
0000000FC00000
00000007D00000
00000000400000
00000000000000
02F90000002F40
07FF0006407FC0
02FF002FD03FD0
00FE003FC01FD0
00FE00BF401FD0
01FD00FF001FD0
02FC02FE001FC0
03F407FC001FC0
07F00FF8002F80
0FE02FF4003F00
1FD07FF0007E00
2FC1FBE000FC00
3F47DBE002F400
7F1F4BE007E000
BF7E0BF42F8000
BFF807FEFE0000
BFD002FFF40000
2E0000BE800000
ENDCHAR
STARTCHAR Wacute
ENCODING 7810
SWIDTH 941 0
DWIDTH 34 0
BBX 34 35 2 0
BITMAP
000000000001E00000
000000000003F80000
000000000007F80000
00000000000FF40000
00000000002FD00000
0000000000BE000000
000000000050000000
000000000000000000
01BF80000000001F40
1FFFF000000000BFD0
3FFFF800000000BFE0
2F91FC000000003FE0
0503FC000000002FF0
0007FC0000A4002FF0
000FF40007FC001FF0
002FF0002FF4001FE0
003FE000BFE0001FE0
00BFC003FF80002FD0
00FF800BFF40002FD0
01FF002FFE00003FC0
03FE00BFFD00007F80
07FC01FFF80000BF40
0BF807FBF40000FF00
0FF00FEBF00001FD00
1FE02F8FF00002FC00
2FD07E0FE00007F400
3FC0FC1FD0000FE000
7F82F41FD0001FC000
7F47D02FD0007F4000
7F0F802FC000FD0000
7F2F001FC002F40000
7F7D001FD00BD00000
3FF8000FE07F400000
1FE00007FFF8000000
0BC00001BE80000000
ENDCHAR
STARTCHAR wacute
ENCODING 7811
SWIDTH 750 0
DWIDTH 27 0
BBX 26 28 1 0
BITMAP
000000007C0000
00000000BE0000
00000000FF0000
00000002FE0000
00000003FC0000
0000000BF40000
0000002F800000
000000BE000000
00000050000000
00000000000000
02F90000002F40
07FF0006407FC0
02FF002FD03FD0
00FE003FC01FD0
00FE00BF401FD0
01FD00FF001FD0
02FC02FE001FC0
03F407FC001FC0
07F00FF8002F80
0FE02FF4003F00
1FD07FF0007E00
2FC1FBE000FC00
3F47DBE002F400
7F1F4BE007E000
BF7E0BF42F8000
BFF807FEFE0000
BFD002FFF40000
2E0000BE800000
ENDCHAR
STARTCHAR Wdieresis
ENCODING 7812
SWIDTH 941 0
DWIDTH 34 0
BBX 34 34 2 0
BITMAP
00000000BD00BE0000
00000002FF42FF4000
00000003FF43FF4000
00000002FF02FF0000
00000001FD00FD0000
000000001000100000
000000000000000000
01BF80000000001F40
1FFFF000000000BFD0
3FFFF800000000BFE0
1F91FC000000003FE0
0103FC000000002FF0
0007F80001A4002FF0
000FF4000BFC001FF0
002FF0002FF4001FE0
003FD000FFD0002FE0
00BFC007FF80002FD0
00FF400FFF00002FD0
01FF003FFE00003FC0
03FD00BFFC00007F80
07FC02FFF80000BF40
0BF407FBF40000FF00
0FF01FDBF00001FD00
1FE03F4FF00003FC00
2FC0BE1FE00007F400
3F81F81FD0000FE000
7F43F01FD0002FC000
7F4BD02FD000BF4000
7F1F802FC001FD0000
7F2E001FD007F40000
7FBD001FD02FD00000
3FF4000FFAFF400000
1FE00007FFF8000000
0BC00001BE80000000
ENDCHAR
STARTCHAR wdieresis
ENCODING 7813
SWIDTH 750 0
DWIDTH 27 0
BBX 26 27 1 0
BITMAP
000007E007E400
00001FF81FF800
00002FF81FFC00
00001FF41FF800
00000BE00BE000
00000000000000
00000000000000
00000000000000
00000000000000
02F90000002F40
07FF0006407FC0
02FF002FD03FD0
00FE003FC01FD0
00FE00BF401FD0
01FD00FF001FD0
02FC02FE001FC0
03F407FC001FC0
07F00FF8002F80
0FE02FF4003F00
1FD07FF0007E00
2FC1FBE000FC00
3F47DBE002F400
7F1F4BE007E000
BF7E0BF42F8000
BFF807FEFE0000
BFD002FFF40000
2E0000BE800000
ENDCHAR
STARTCHAR Ygrave
ENCODING 7922
SWIDTH 580 0
DWIDTH 21 0
BBX 25 45 0 -10
BITMAP
00000005000000
0000002F400000
0000003F800000
0000003FC00000
0000002FE00000
0000000BF80000
00000001BC0000
00000000000000
0002F900001E40
0007FF00003F80
0002FF00007F80
0001FE0000FF00
0001FE0002FE00
0002FD0003FC00
0007F8000BF800
000BF4000FF400
000FF0002FF000
002FE0007FE000
003FC000BFD000
007F8001FFC000
00BF4002FF8000
01FE0007FF4000
02FD000FFE0000
03F8001FFD0000
0BF4003FFC0000
0FF000BFF80000
1FE001F7F40000
2FC003EBF00000
3FC00B8FE00000
7F802F1FD00000
7F807D3F800000
7F82F47F400000
7FFFD0BF000000
2FFF41FD000000
0BE403FC000000
000007F4000000
00000FE0000000
00002FC0000000
0000BF40000000
0001FD00000000
0007F800000000
001FE000000000
00BF8000000000
0BFD0000000000
0BA00000000000
ENDCHAR
STARTCHAR ygrave
ENCODING 7923
SWIDTH 549 0
DWIDTH 20 0
BBX 19 38 1 -10
BITMAP
000007D000
00001FD000
00002FD000
00002FD000
00001FD000
00000BD000
000007E000
000001F400
0000001000
0000000000
01BE0001F4
02FF4003F8
00FF400BF4
00FF001FF0
00FE002FE0
01FD007FD0
03FC00BFC0
07F801FF80
0BF403FF40
1FE00BFF00
2FD01FFE00
3FC07EFD00
7F40F6FC00
BF03E3F800
FF1F87F000
FFFE0BE000
BFF80FD000
2F901FC000
00003F4000
00007F0000
0000FD0000
0002F80000
000BF00000
001FD00000
00BF400000
06FE000000
2FF4000000
0A80000000
ENDCHAR
STARTCHAR endash
ENCODING 8211
SWIDTH 751 0
DWIDTH 27 0
BBX 22 3 3 9
BITMAP
2FFFFFFFFFD0
BFFFFFFFFFD0
BFFFFFFFFF80
ENDCHAR
STARTCHAR emdash
ENCODING 8212
SWIDTH 1066 0
DWIDTH 38 0
BBX 33 3 3 9
BITMAP
2FFFFFFFFFFFFFFFC0
7FFFFFFFFFFFFFFFC0
BFFFFFFFFFFFFFFF00
ENDCHAR
STARTCHAR quoteleft
ENCODING 8216
SWIDTH 268 0
DWIDTH 10 0
BBX 6 9 5 20
BITMAP
01B0
0BD0
2F40
7E00
BE00
FE00
FF40
BF80
7E00
ENDCHAR
STARTCHAR quoteright
ENCODING 8217
SWIDTH 268 0
DWIDTH 10 0
BBX 7 9 5 20
BITMAP
07D0
1FF0
0FF4
07F4
07F0
07E0
0FC0
3F00
B800
ENDCHAR
STARTCHAR quotesinglbase
ENCODING 8218
SWIDTH 268 0
DWIDTH 10 0
BBX 7 9 0 -4
BITMAP
0BD0
1FF0
0FF4
0BF4
07F0
0BE0
0FC0
3F00
B800
ENDCHAR
STARTCHAR quotedblleft
ENCODING 8220
SWIDTH 485 0
DWIDTH 17 0
BBX 14 9 5 20
BITMAP
00B802E0
03F00FC0
0FC03F00
2F40BD00
7F01FC00
BF02FC00
BF42FD00
BF82FE00
7E01F800
ENDCHAR
STARTCHAR quotedblright
ENCODING 8221
SWIDTH 480 0
DWIDTH 17 0
BBX 14 9 5 21
BITMAP
02F40BD0
07FC1FF0
07FC1FF0
03FC0FF0
03F80BE0
03F00FC0
0BD02F40
2F40BD00
B802E000
ENDCHAR
STARTCHAR quotedblbase
ENCODING 8222
SWIDTH 463 0
DWIDTH 17 0
BBX 14 9 0 -4
BITMAP
0BD02F40
1FF07FC0
0FF43FD0
0BF41FD0
07F01FC0
0BE01F80
0FC03F00
3F00FC00
B802E000
ENDCHAR
STARTCHAR dagger
ENCODING 8224
SWIDTH 488 0
DWIDTH 18 0
BBX 15 27 3 0
BITMAP
0001F800
0002FE00
0003FE00
0003FE00
0007FD00
000BFC00
2A5FFEBC
3FFFFFF8
1BFFFF90
002FE000
002FD000
003FC000
007F8000
00BF4000
00FF0000
00FE0000
01FD0000
02FC0000
03F40000
07F00000
0BE00000
0FC00000
1F800000
3F000000
7D000000
B8000000
A0000000
ENDCHAR
STARTCHAR daggerdbl
ENCODING 8225
SWIDTH 488 0
DWIDTH 18 0
BBX 16 27 2 0
BITMAP
00007E00
0000BF80
0000FF80
0000FF80
0001FF40
0002FF00
0A56FFAF
0FFFFFFF
06FFFFF8
000BFC00
000BF800
000FF400
001FF000
002FD000
003FC000
557FEBC0
7FFFFF80
1BFFF900
00FD0000
01FC0000
02F80000
03F00000
07E00000
0BC00000
1F400000
2E000000
28000000
ENDCHAR
STARTCHAR bullet
ENCODING 8226
SWIDTH 437 0
DWIDTH 16 0
BBX 9 9 4 7
BITMAP
07F800
2FFF00
BFFF40
FFFF80
FFFF80
FFFF40
7FFE00
1FF800
014000
ENDCHAR
STARTCHAR ellipsis
ENCODING 8230
SWIDTH 810 0
DWIDTH 29 0
BBX 25 6 1 -1
BITMAP
6F8007E400BE40
FFD00FFD01FFC0
FFE01FFD02FFC0
FFD01FFC02FF80
7F800BF400BF00
05000140001400
ENDCHAR
STARTCHAR perthousand
ENCODING 8240
SWIDTH 1184 0
DWIDTH 43 0
BBX 38 27 2 0
BITMAP
001FE40000B800000000
01FFFD0002F400000000
07F8BE000BE000000000
0FE07F001FC000000000
2FD07F403F4000000000
3F807F00BE0000000000
7F40BF01FC0000000000
7F41FE03F40000000000
7F02FC0BE00000000000
3F4BF41FC00000000000
1FFFD03F400000000000
06FE00BE000000000000
000001FC000000000000
000003F4000000000000
00000BE0000000000000
00001FC01BF80002FE00
00003F40BFFE001FFFC0
0000BE02FD2F407F4BE0
0001FC07F42F81FE07F0
0003F40FE02FC2FC07F0
000BE01FD02F83F80BF0
001FC02FC03F87F40FE0
003F402FC0BF47F01FD0
00BE002F81FE07F03F80
01FC001FC7FC03F4BF00
03F4000BFFE001FFFC00
07900001BE40006F9000
ENDCHAR
STARTCHAR guilsinglleft
ENCODING 8249
SWIDTH 413 0
DWIDTH 15 0
BBX 11 14 2 4
BITMAP
00001C
0001BC
000BF4
007FD0
06FE00
2FF400
7FD000
7F8000
2FE000
0BF400
02FD00
00BF40
002FC0
000B80
ENDCHAR
STARTCHAR guilsinglright
ENCODING 8250
SWIDTH 416 0
DWIDTH 15 0
BBX 11 14 2 4
BITMAP
0B8000
0FF000
07FC00
01FF00
007FC0
001FE0
000BF8
000BF8
007FE0
01FF40
0BF800
2F8000
BD0000
E00000
ENDCHAR
STARTCHAR fraction
ENCODING 8260
SWIDTH 580 0
DWIDTH 21 0
BBX 19 29 1 0
BITMAP
000000007C
00000001FC
00000003F4
0000000BE0
0000001FD0
0000002F80
0000007F00
000000FD00
000002F800
000003F400
00000BE000
00001FC000
00003F4000
00007F0000
0000FD0000
0002F80000
0007F00000
000BE00000
001FC00000
003F400000
00BE000000
01FC000000
02F8000000
07F0000000
0FD0000000
2F80000000
3F40000000
BE00000000
B800000000
ENDCHAR
STARTCHAR Euro
ENCODING 8364
SWIDTH 622 0
DWIDTH 22 0
BBX 22 27 2 0
BITMAP
00000006FD00
0000007FFF80
000002FE47D0
00001FF403E0
00007FD007F0
0000FF400BF0
0002FE001FE0
0007FC007FD0
000FF401FFC0
002FE001FF40
003FD0007D00
00BFC0000000
0BFFFFF40000
1BFFFF900000
02FE00000000
02FD00000000
03FD00000000
7FFFFFC00000
AFFFFA000000
07FC00000000
07FC00000000
03FC00000000
03FD00024000
01FE001F8000
00BF81BF8000
002FFFFE0000
0006FF900000
ENDCHAR
STARTCHAR trademark
ENCODING 8482
SWIDTH 1084 0
DWIDTH 39 0
BBX 29 15 6 13
BITMAP
0554000005000140
7FFFFEA07F802FC0
FFFFFFE1FF80BFC0
A97FAA43FF41FFC0
007E0007EF43EF80
00FD000F7F0BAF80
01FC001F3F0F2F40
02F4003E3E2E3F40
03F0007C7E3C3F00
07F000F87EB87F00
0BE001F47EF07F00
0BE003E07FE07F00
0BE00BC07FC07F00
07F41F403F407F40
02F83D001E002F40
ENDCHAR
STARTCHAR Omega
ENCODING 8486
SWIDTH 839 0
DWIDTH 30 0
BBX 28 28 1 0
BITMAP
00000055000000
00001BFFF90000
0001FFFBFF8000
000BF9006FF400
003FD00007FD00
00BF400001FF40
02FE0000007FC0
03FC0000002FD0
0BF80000001FF0
0FF40000000FF4
0FF40000000FF4
1FF00000000BF8
1FF00000000BF8
1FF00000000BF8
1FF00000000BF8
0FF40000000BF8
0FF40000000FF4
0BF80000001FF0
07FC0000002FE0
02FE0000003FC0
01FF000000BF80
007F800001FE00
002FC00002FC00
000BE00007F004
3D01F8001F806D
7FE5BD003F5BFE
3FFFFF40BFFFFD
1FFFFF40FFFFF8
ENDCHAR
STARTCHAR partialdiff
ENCODING 8706
SWIDTH 580 0
DWIDTH 21 0
BBX 20 29 1 0
BITMAP
000006FE40
00002FFFE0
0000BF82F4
0001FE00FC
0001FD00BD
0001FC00BD
00006800BE
00000000BE
00000500BE
0001FFF4FE
001FFFFDFD
007FF42FFD
01FF800BFD
03FE000BFC
0BFC000BF8
1FF4000FF4
2FF0001FF0
7FD0002FE0
7FC0003FD0
BF8000BFC0
FF4000FF40
FF0002FF00
FF0007FD00
FF000FF800
BF002FF000
BF00BFC000
3F96FE0000
1FFFF80000
06FF900000
ENDCHAR
STARTCHAR Delta
ENCODING 8710
SWIDTH 663 0
DWIDTH 24 0
BBX 23 22 0 0
BITMAP
000000500000
000002F40000
00000BF80000
00001FFD0000
00002FFE0000
00007DBF4000
0000B83F8000
0001F42FC000
0003E00FE000
0007C00BF000
000F8007F800
002F0002FC00
003E0001FD00
00BC0000FF00
01F400007F40
02F000003F80
07D000002FD0
0B8000000FE0
1F4000000BF4
3E00000003F8
7FFFFFFFFFF8
7FFFFFFFFFE0
ENDCHAR
STARTCHAR product
ENCODING 8719
SWIDTH 667 0
DWIDTH 24 0
BBX 20 31 2 -3
BITMAP
0055555554
0BFFFFFFFD
2FEAAAAAFD
7F800001FD
7F800001FD
7F800001FD
7F800001FD
7F800001FD
7F800001FD
7F800001FD
7F800001FD
7F800001FD
7F800001FD
7F800001FD
7F800001FD
7F800001FD
7F800001FD
7F800001FD
7F800001FD
7F800001FD
7F800001FD
7F800001FD
7F800001FD
7F800001FD
7F800001FD
7F800001FD
7F800001FD
7F800001FD
7F800001FD
7F400002FD
7E000001F4
ENDCHAR
STARTCHAR summation
ENCODING 8721
SWIDTH 677 0
DWIDTH 24 0
BBX 22 32 1 -4
BITMAP
005555555540
02FFFFFFFFD0
07FFFFFFFE80
0BFC00000000
07FE00000000
02FF40000000
01FFC0000000
00BFE0000000
003FF8000000
001FFD000000
000BFF000000
0002FF800000
0000FFD00000
00007FF00000
00002FF40000
00000FF40000
00000BF00000
00002FD00000
00007F400000
0001FE000000
0003F8000000
000BF0000000
002FD0000000
00BF40000000
01FE00000000
07F800000000
0FE000000000
2FC000000000
BFFFFFFFFE00
BFFFFFFFFF00
7FFFFFFFFD00
155555555000
ENDCHAR
STARTCHAR minus
ENCODING 8722
SWIDTH 617 0
DWIDTH 22 0
BBX 18 3 2 12
BITMAP
16AAAAAA90
BFFFFFFFF0
BFFFFFFFD0
ENDCHAR
STARTCHAR radical
ENCODING 8730
SWIDTH 709 0
DWIDTH 26 0
BBX 28 35 1 0
BITMAP
00000000000004
0000000000002D
0000000000007D
000000000000FD
000000000001FD
000000000003FC
000000000007F8
00000000000FF0
00000000001FE0
00000000003FC0
0000000000BF40
0000000000FE00
0000000002FD00
0000000003F800
000000000BF000
000000000FE000
000000002FC000
00A400003F4000
02FE0000BE0000
0BFF0000FD0000
2FFF4002F80000
BE7F8003F00000
643F800BE00000
003FC00FC00000
002FC02F400000
001FD03E000000
001FD0BD000000
000FE0F8000000
000BF2F0000000
0007F7E0000000
0007FFC0000000
0003FF40000000
0002FE00000000
0002FD00000000
0001F800000000
ENDCHAR
STARTCHAR infinity
ENCODING 8734
SWIDTH 681 0
DWIDTH 25 0
BBX 22 12 2 7
BITMAP
01A400069000
0BFF407FFD00
2FFFE2FFFF40
7F96FFFE5BC0
BD00BFF407D0
F8007FD007D0
F801FF800BD0
F807FFD02FC0
BEAFFBFAFF40
3FFFE1FFFE00
0BFE402FF800
005000014000
ENDCHAR
STARTCHAR integral
ENCODING 8747
SWIDTH 583 0
DWIDTH 21 0
BBX 29 41 -3 -7
BITMAP
00000000001AA000
00000000007FFC00
0000000001FFAE00
0000000007F81F00
000000000FF01F00
000000002FD02F40
000000003F80BF00
00000000BF42FE00
00000000FF03FD00
00000001FD01F400
00000002FC000000
00000003F8000000
0000000BF4000000
0000000FF0000000
0000001FE0000000
0000001FD0000000
0000002FD0000000
0000003FC0000000
0000007F80000000
000000BF40000000
000000FF00000000
000001FE00000000
000002FD00000000
000003FC00000000
000003F800000000
000007F800000000
00000BF400000000
00000FF000000000
00001FE000000000
00002FD000000000
00003FC000000000
0A407F4000000000
2FC0BF0000000000
7FD1FE0000000000
BF42FC0000000000
FD07F80000000000
F80BF00000000000
B42FD00000000000
79BF800000000000
3FFE000000000000
0BE4000000000000
ENDCHAR
STARTCHAR approxequal
ENCODING 8776
SWIDTH 671 0
DWIDTH 24 0
BBX 21 17 2 4
BITMAP
000140000000
002FF8000380
01FFFE000B80
07FFFF801F40
0FD0BFE5BE00
2F003FFFFC00
2D000FFFE000
280002FF4000
000000000000
006F80000900
02FFF4001D00
0FFFFD003D00
3F9BFF41F800
7D01FFEBF400
F400BFFFD000
F0001FFE0000
400001940000
ENDCHAR
STARTCHAR notequal
ENCODING 8800
SWIDTH 617 0
DWIDTH 22 0
BBX 19 23 2 2
BITMAP
00000002E0
0000000BD0
0000002F80
0000007F00
000000FD00
000002F800
000007F400
2FFFFFFFF8
3FFFFFFFF4
1555BF5550
0000BE0000
0001FC0000
0003F40000
0007F00000
2FFFFFFFF4
7FFFFFFFF4
15BF555540
00FD000000
02F8000000
03F0000000
0BD0000000
1F80000000
3E00000000
ENDCHAR
STARTCHAR lessequal
ENCODING 8804
SWIDTH 704 0
DWIDTH 25 0
BBX 19 24 2 0
BITMAP
00000001B0
0000000BF0
000000BFD0
00000BFE00
00007FE000
0007FF4000
006FF40000
02FF800000
2FF9000000
FFD0000000
7FE4000000
1BFE000000
01BFD00000
001FFD0000
0001FF8000
00002FF800
000002FF40
0000006FE0
00000007E0
0000000000
0000000000
1AAAAAAA90
7FFFFFFFF4
7FFFFFFFE0
ENDCHAR
STARTCHAR greaterequal
ENCODING 8805
SWIDTH 617 0
DWIDTH 22 0
BBX 19 24 2 0
BITMAP
7D00000000
BFD0000000
1FF9000000
01FF800000
002FF80000
0006FF4000
00007FF400
00000BFE40
000000BFE0
0000007FF4
000002FF90
00001FFD00
0001BFD000
000BFE0000
007FE00000
07FE400000
2FE4000000
BF40000000
B400000000
0000000000
0000000000
1AAAAAAA90
BFFFFFFFF0
BFFFFFFFD0
ENDCHAR
STARTCHAR lozenge
ENCODING 9674
SWIDTH 580 0
DWIDTH 21 0
BBX 18 28 1 0
BITMAP
0000100000
0000F80000
0002FD0000
0007FF0000
000BFF4000
001F9FC000
003F0BE000
00BD07F400
01F802F800
02F400FD00
07E0007F00
0FC0002F80
2F40001FD0
3E00000BE0
7E000003F0
3F400007E0
1FC0000BC0
0FD0001F80
07F0003F00
02F800BD00
00FD01F800
00BE03F000
003F4BE000
001FDFC000
000BFF4000
0003FE0000
0002FD0000
0000F80000
ENDCHAR
STARTCHAR commaaccent
ENCODING 63171
SWIDTH 250 0
DWIDTH 9 0
BBX 7 9 1 -10
BITMAP
0140
0BE0
1FF4
0BF0
07E0
0BD0
2F40
7900
1000
ENDCHAR
STARTCHAR ff
ENCODING 64256
SWIDTH 773 0
DWIDTH 28 0
BBX 34 34 -1 -5
BITMAP
0000001BE40002FE40
000000BFFD001FFFD0
000002F87F007F87E0
00000BF03F40BE07F0
00000FE07F41FD07F0
00001FC0BF02FC1FF0
00003F82FE03F43FD0
00007F42FD07F03F80
0000BF00600BE00900
0000FE00000FE00000
0000FE00001FD00000
0001FD00002FC00000
0002FC00003F800000
0003FAABFFFFFE4000
001BFFFFFFFFFFE000
02FFFFFFFFFFFFE000
0BFFE55001FD000000
015FD00002FC000000
002FC00003FC000000
003FC00007F8000000
007F800007F4000000
00BF40000BF0000000
00BF00000FE0000000
00FE00001FD0000000
01FD00002FC0000000
02FC00003F80000000
03F800007F40000000
07F40000BF00000000
0FF00000FE00000000
1FE00002FD00000000
2FD00003FC00000000
3F800007F800000000
BF40000FF000000000
7D00000B9000000000
ENDCHAR
STARTCHAR fi
ENCODING 64257
SWIDTH 623 0
DWIDTH 22 0
BBX 25 35 -1 -5
BITMAP
00000001BF9000
0000001BFFF800
0000007F90BE00
000001FE007F00
000003F8003F40
00000BF0007F40
00000FE000BF40
00002FC001FF00
00003F8002FE00
0000BF4002FD00
0000FF00006400
0001FE00000000
0002FD6AFFE000
0007FFFFFFF400
007FFFFFFFF000
02FFFA500FF000
07FFF0000FE000
029FE0001FD000
001FD0002FC000
002FC0003F4000
003F80007F0000
007F4000BE0000
00BF0001FD0000
00FF0002FC0000
01FE0003F80000
02FD0007F40000
03FC0007F40000
07F80007FFC000
0BF00007FF8000
0FE00001FE0000
1FD00000000000
3FC00000000000
7F400000000000
BE000000000000
14000000000000
ENDCHAR
STARTCHAR fl
ENCODING 64258
SWIDTH 637 0
DWIDTH 23 0
BBX 25 35 -1 -5
BITMAP
00000001BFA400
0000001FFFFD00
0000007FD0BF40
000001FE003F80
000003FC003F80
00000BF4003F80
00001FE0003F80
00002FD0007F40
00007F8000BF00
0000BF4000BF00
0000FF0000FE00
0001FE0001FD00
0002FD0002FC00
0003FC0003F800
0007FFF807F400
006FFFFF0BF000
02FFFFFE0FE000
03FFE0002FD000
001FD0003FC000
002FC0007F8000
003FC000BF4000
007F8000FF0000
00BF4001FE0000
00FF0002FD0000
01FE0002FC0000
02FD0003F80000
03FC0003FC6000
07F80002FFF000
0BF40001FFD000
0FE000007E4000
2FD00000000000
3FC00000000000
BF400000000000
FE000000000000
54000000000000
ENDCHAR
STARTCHAR .notdef
ENCODING -1
SWIDTH 896 0
DWIDTH 32 0
BBX 34 33 2 -1
BITMAP
00001AAAAAAAAAAA40
00007FFFFFFFFFFFD0
0000FFFFFFFFFFFFD0
0001FFFFFFFFFFFFC0
0002FFFFFFFFFFFF80
0003FFFFFFFFFFFF40
0007FFFFFFFFFFFF40
000BFFFAFFFEAFFF00
000FFFC0FFE00BFE00
000FFF41FF406FFD00
001FFF01FD01FFFC00
002FFF00F40BFFF800
003FFF00E02FFFF400
007FFF0080BFFFF400
00BFFF4002FFFFF000
00FFFF400BFFFFE000
01FFFF802FFFFFD000
01FFFFC03FFFFFC000
02FFFF802FFFFF8000
03FFFF001FFFFF4000
07FFFD000FFFFF0000
0BFFF42807FFFF0000
0FFFD07C01A7FE0000
1FFF41FE0007FD0000
1FFC07FF400FFC0000
2FFE5FFFE57FF80000
3FFFFFFFFFFFF40000
7FFFFFFFFFFFF00000
BFFFFFFFFFFFE00000
FFFFFFFFFFFFD00000
FFFFFFFFFFFFC00000
7FFFFFFFFFFF400000
055555555554000000
ENDCHAR
ENDFONT
